<?xml version="1.0" encoding="utf-8"?>
<!-- Generator: Adobe Illustrator 16.0.0, SVG Export Plug-In . SVG Version: 6.00 Build 0)  -->
<!DOCTYPE svg PUBLIC "-//W3C//DTD SVG 1.1//EN" "http://www.w3.org/Graphics/SVG/1.1/DTD/svg11.dtd">
<svg version="1.1" id="Capa_1" xmlns="http://www.w3.org/2000/svg" xmlns:xlink="http://www.w3.org/1999/xlink" x="0px" y="0px"
	 width="300px" height="300px" viewBox="0 0 300 300" enable-background="new 0 0 300 300" xml:space="preserve">
<g>
	
		<ellipse fill="none" stroke="#581D3B" stroke-width="9" stroke-miterlimit="10" cx="196.361" cy="63.969" rx="58.087" ry="53.628"/>
	
		<ellipse fill="#982648" stroke="#982648" stroke-width="9" stroke-miterlimit="10" cx="196.192" cy="63.656" rx="53.761" ry="49.061"/>
	
		<ellipse fill="#E8376E" stroke="#E8376E" stroke-width="9" stroke-miterlimit="10" cx="189.282" cy="63.656" rx="46.851" ry="48.169"/>
</g>
<g>
	<ellipse fill="none" stroke="#581D3B" stroke-width="9" stroke-miterlimit="10" cx="97.988" cy="63.969" rx="58.087" ry="53.628"/>
	
		<ellipse fill="#982648" stroke="#982648" stroke-width="9" stroke-miterlimit="10" cx="97.819" cy="63.656" rx="53.761" ry="49.061"/>
	
		<ellipse fill="#E8376E" stroke="#E8376E" stroke-width="9" stroke-miterlimit="10" cx="90.909" cy="63.656" rx="46.851" ry="48.169"/>
</g>
<g>
	
		<ellipse fill="none" stroke="#581D3B" stroke-width="9" stroke-miterlimit="10" cx="141.195" cy="67.163" rx="58.086" ry="53.628"/>
	
		<ellipse fill="#982648" stroke="#982648" stroke-width="9" stroke-miterlimit="10" cx="141.028" cy="66.85" rx="53.761" ry="49.062"/>
	
		<ellipse fill="#E8376E" stroke="#E8376E" stroke-width="9" stroke-miterlimit="10" cx="134.118" cy="66.851" rx="46.851" ry="48.169"/>
</g>
<g>
	
		<ellipse fill="none" stroke="#581D3B" stroke-width="9" stroke-miterlimit="10" cx="145.353" cy="184.852" rx="58.086" ry="53.629"/>
	
		<ellipse fill="#982648" stroke="#982648" stroke-width="9" stroke-miterlimit="10" cx="145.184" cy="184.539" rx="53.761" ry="49.063"/>
	
		<ellipse fill="#E8376E" stroke="#E8376E" stroke-width="9" stroke-miterlimit="10" cx="138.274" cy="184.541" rx="46.851" ry="48.168"/>
</g>
<g>
	
		<ellipse fill="none" stroke="#581D3B" stroke-width="9" stroke-miterlimit="10" cx="89.483" cy="150.983" rx="58.087" ry="53.628"/>
	
		<ellipse fill="#982648" stroke="#982648" stroke-width="9" stroke-miterlimit="10" cx="89.315" cy="150.669" rx="53.761" ry="49.061"/>
	
		<ellipse fill="#E8376E" stroke="#E8376E" stroke-width="9" stroke-miterlimit="10" cx="82.404" cy="150.67" rx="46.851" ry="48.169"/>
</g>
<g>
	
		<ellipse fill="none" stroke="#581D3B" stroke-width="9" stroke-miterlimit="10" cx="205.319" cy="150.983" rx="58.087" ry="53.628"/>
	
		<ellipse fill="#982648" stroke="#982648" stroke-width="9" stroke-miterlimit="10" cx="205.15" cy="150.669" rx="53.76" ry="49.061"/>
	
		<ellipse fill="#E8376E" stroke="#E8376E" stroke-width="9" stroke-miterlimit="10" cx="198.24" cy="150.67" rx="46.85" ry="48.169"/>
</g>
<g>
	
		<ellipse fill="none" stroke="#581D3B" stroke-width="9" stroke-miterlimit="10" cx="212.733" cy="97.353" rx="58.087" ry="53.629"/>
	
		<ellipse fill="#982648" stroke="#982648" stroke-width="9" stroke-miterlimit="10" cx="212.565" cy="97.04" rx="53.761" ry="49.062"/>
	
		<ellipse fill="#E8376E" stroke="#E8376E" stroke-width="9" stroke-miterlimit="10" cx="205.654" cy="97.041" rx="46.85" ry="48.169"/>
</g>
<g>
	<ellipse fill="none" stroke="#581D3B" stroke-width="9" stroke-miterlimit="10" cx="87.266" cy="97.353" rx="58.086" ry="53.628"/>
	
		<ellipse fill="#982648" stroke="#982648" stroke-width="9" stroke-miterlimit="10" cx="87.097" cy="97.04" rx="53.761" ry="49.061"/>
	
		<ellipse fill="#E8376E" stroke="#E8376E" stroke-width="9" stroke-miterlimit="10" cx="80.188" cy="97.041" rx="46.851" ry="48.168"/>
</g>
<g>
	<path fill="none" stroke="#581D3B" stroke-width="9" stroke-miterlimit="10" d="M199.281,107.303
		c0,29.619-26.004,53.629-58.087,53.629c-32.08,0-58.085-24.01-58.085-53.629c0-29.619,26.005-53.629,58.085-53.629
		C173.277,53.673,199.281,77.684,199.281,107.303z"/>
	
		<ellipse fill="#982648" stroke="#982648" stroke-width="9" stroke-miterlimit="10" cx="141.027" cy="106.99" rx="53.762" ry="49.063"/>
	
		<ellipse fill="#E8376E" stroke="#E8376E" stroke-width="9" stroke-miterlimit="10" cx="134.117" cy="106.991" rx="46.852" ry="48.17"/>
</g>
<circle fill="#FFFFFF" stroke="#581D3B" stroke-width="9" stroke-miterlimit="10" cx="136.816" cy="106.047" r="37.896"/>
<circle stroke="#000000" stroke-width="9" stroke-miterlimit="10" cx="135.667" cy="106.047" r="18.98"/>
<circle fill="#FFFFFF" stroke="#000000" stroke-width="2" stroke-miterlimit="10" cx="152.25" cy="90.711" r="8.171"/>
<circle fill="#FFFFFF" stroke="#FFFFFF" stroke-width="8" stroke-miterlimit="10" cx="135.667" cy="104.759" r="3.416"/>
<rect x="135.277" y="103.197" fill="#FFFFFF" stroke="#FFFFFF" stroke-width="9" stroke-miterlimit="10" width="1.067" height="10.065"/>
<rect x="86.203" y="244.01" fill="none" width="122.059" height="52.516"/>
<text transform="matrix(1 0 0 1 86.2021 280.3027)"><tspan x="0" y="0" fill="#581D3B" stroke="#581D3B" stroke-miterlimit="10" font-family="'GothamNights-Bold'" font-size="45.8834">SEC</tspan><tspan x="42.567" y="0" fill="#E8376E" stroke="#E8376E" stroke-miterlimit="10" font-family="'GothamNights-Bold'" font-size="45.8834">berry</tspan></text>
</svg>
