<?xml version="1.0" encoding="utf-8"?>
<!-- Generator: Adobe Illustrator 16.0.0, SVG Export Plug-In . SVG Version: 6.00 Build 0)  -->
<!DOCTYPE svg PUBLIC "-//W3C//DTD SVG 1.1//EN" "http://www.w3.org/Graphics/SVG/1.1/DTD/svg11.dtd">
<svg version="1.1" id="Layer_1" xmlns="http://www.w3.org/2000/svg" xmlns:xlink="http://www.w3.org/1999/xlink" x="0px" y="0px"
	 width="400px" height="300px" viewBox="0 0 400 300" enable-background="new 0 0 400 300" xml:space="preserve">
<g>
	<g>
		<path fill="#442815" d="M184.03,47.06c-1.86-4.52,1.94-10.16,6.88-9.87c6.67,0.01,13.36-0.17,20.03,0.09
			c4.93,0.5,7.58,6.65,5.22,10.83c-0.96,2.09-3.16,2.97-5.09,3.91c2.33,10.69,2.98,21.71,2.05,32.61c3.88-0.03,7.76-0.03,11.64,0
			c1.89-7.22,3.53-14.51,5.37-21.74c0.31-1.97,2.22-2.93,3.57-4.15c5.52-4.24,10.66-8.98,16.33-13.02c2.26-0.59,2.83,1.91,3.63,3.44
			c2.83,6.68,5.71,13.33,8.59,19.99c-4.03,16.63-8.2,33.22-12.18,49.86c6.12,2.38,14.7,4.35,15.65,12.15
			c0.27,16.27,0.03,32.55,0.11,48.83c-0.16,8.7,0.81,17.64-1.94,26.08c-5.36,18.02-19.57,31.96-35.2,41.63
			c-4.11,2.68-8.65,4.58-12.84,7.1c2.61,0.91,5.37,1.29,8.13,1.16c5.26-0.17,10.53,0.16,15.78-0.24c0.29-0.3,0.85-0.9,1.13-1.19
			c1.77-2.87,5.78-4.38,8.58-1.98c3.43,2.44,2.39,8.37-1.62,9.58c-2.8,1.18-5.38-0.82-7.11-2.83c-11.53-0.04-23.07-0.03-34.6-0.01
			c-0.45,1.24-0.3,3.55-2.19,3.46c-2.89,0.17-5.81,0.26-8.68-0.1c-1.26-0.59-1.12-2.33-1.68-3.43c-11.04,0.14-22.07-0.02-33.1,0.09
			c-1.82,2.44-5.26,4.29-8.11,2.31c-3.85-2.05-3.44-8.34,0.68-9.83c2.83-1.34,5.62,0.41,7.22,2.72c1.39,1.74,3.79,1.3,5.74,1.43
			c6.1-0.09,12.2,0.04,18.29-0.19l-0.43-0.97c-0.12-0.27-0.35-0.81-0.47-1.07c-16.43-7.71-31.63-19.32-40.99-35.11
			c-4.68-8.03-7.47-17.25-7.43-26.58c0.13-19.69-0.08-39.38,0.07-59.07c-0.13-3.63,1.73-7.19,4.74-9.2
			c4.07-2.6,8.92-3.55,13.19-5.75c-0.48-5.83-1.71-11.57-2.59-17.35c-0.8-0.51-1.56-1.07-2.28-1.67c-1.04-3.57-1.74-7.26-2.24-10.94
			c0.68-1.61,2.59-1.65,3.98-2.26c-1.87-5.22-5.66-9.51-10.32-12.44c-0.88-0.68-2.77-1.96-1.5-3.18c2.83-4.17,5.66-8.46,6.81-13.45
			c1.31-4.11,0.67-8.44,0.88-12.65c2.57-2.17,6.36-1.85,9.49-2.65c2.05,3.99,3.56,8.33,6.59,11.72c3.11,4.02,7.36,6.84,11.46,9.72
			c1.55,1.36-0.21,3.22-0.87,4.55c-2.77,4.24-4.01,9.3-3.85,14.34c2.5-0.69,5.2-0.19,5.56,2.81c4.29,0.11,8.58,0.05,12.87,0.07
			c-0.84-10.92-0.22-21.96,2.17-32.66C187.08,50.79,184.73,49.52,184.03,47.06z M189.36,42.42c-2.03,1.34-0.81,4.98,1.63,4.79
			c6.39,0.1,12.8,0.21,19.18-0.06c2.86-0.29,2.93-4.97,0.01-5.2c-5.39-0.33-10.79,0-16.18-0.15
			C192.48,41.99,190.66,41.42,189.36,42.42z M154.21,50.81c1,4.38,1.73,8.81,2.85,13.15c0.48,1.97,3.15,3.69,1.82,5.82
			c-0.81,2.07-4.01,2.43-5.33,0.69c-1.56-1.85,0.3-4.24-0.38-6.33c-0.84-4.09-1.8-8.16-2.41-12.3c-1.14,6.54-3.16,13-7.04,18.45
			c4.94,3.7,8.99,8.68,10.79,14.65c3.2-0.61,6.37-1.3,9.56-1.94c-0.71-6.25,0.92-12.51,4.02-17.93
			C162.44,61.42,157.93,56.36,154.21,50.81z M193.29,55.35c-0.26,1.4-0.51,2.8-0.76,4.21c2.05-1.27,4.05-2.63,5.96-4.11
			C196.75,55.4,195.02,55.37,193.29,55.35z M194.2,63.23c-3.87,1.96-2.42,6.97-2.82,10.47c5.61-3.55,10.97-7.48,16.6-11.02
			c-0.18-2.61-0.51-5.24-1.59-7.65C202.36,57.8,198.28,60.52,194.2,63.23z M234.98,63.95c1.88,1.17,3.73,2.84,6.1,2.7
			c2.18,0.08,4.05-1.23,5.96-2.08c1.27,1.5,2.4,3.17,4,4.36c1.8,1.28,4.14,0.86,6.22,1.03c-1.7-4.25-3.16-8.67-5.53-12.6
			c-2.15-0.8-4.42-1.24-6.64-1.79C241.73,58.37,238.28,61.08,234.98,63.95z M191.58,78.22c-0.01,1.97-0.07,3.96,0.19,5.92
			c1.66,1.1,4.21,0.64,5.85-0.45c3.83-2.49,7.57-5.12,11.33-7.71c-0.14-2.99-0.29-5.98-0.48-8.96
			C202.82,70.73,197.34,74.68,191.58,78.22z M229.52,84.97c4,1.72,7,5.01,8.34,9.15c2.15-7.87,3.88-15.85,5.96-23.74
			c-3.55,0.33-7.05-0.44-10.02-2.43C232.26,73.6,230.99,79.31,229.52,84.97z M236.9,114.92c2.84,0.78,5.67,1.61,8.47,2.53
			c3.97-14.41,7.23-29.01,10.83-43.52c-3.1-0.07-6.09-0.95-8.69-2.66C243.9,85.8,240.19,100.32,236.9,114.92z M203.82,84.54
			c1.52,0.02,3.06,0.03,4.59,0.03c0.04-1.17,0.09-2.35,0.13-3.53C206.9,82.12,205.32,83.28,203.82,84.54z M151.13,90.46
			c0.26,1.5,0.51,3,0.77,4.51c3.85-0.71,7.68-1.53,11.48-2.47c1.07-1.73,2.14-3.45,3.21-5.18
			C161.42,88.25,156.29,89.45,151.13,90.46z M167.48,97c0.12,4.23,4.4,7.81,8.62,6.87c3.72-0.38,5.74-3.97,6.43-7.28
			c-2.01,0.03-4.02,0.08-6.03,0.2c-0.82,0.97-0.82,3.58-2.62,3.19c-2.09,0.21-1.96-2.34-1.5-3.69c0.75-2.33,3.25-3.67,5.62-3.46
			c14.68-0.01,29.36,0.01,44.04-0.01c2.75-0.31,5.54,1.49,6.08,4.27c0.69,1.51-0.6,3.03-2.1,3.16c-1.33-0.7-1.63-2.24-2.21-3.48
			c-1.86-0.1-3.72-0.16-5.58-0.21c0.58,1.95,0.99,4.14,2.64,5.51c3.38,3.4,9.88,2.07,11.66-2.39c2.29-4.47-1.53-10.5-6.54-10.26
			c-17.01-0.05-34.03-0.02-51.04-0.02C170.87,89.13,167.2,92.95,167.48,97z M155.24,99.36c0.6,5.83,1.16,11.76,2.98,17.36
			c5.12-1.82,10.45-2.85,15.73-4.08c-0.45-2.18-1.28-4.29-3.64-4.92c-4.24-1.5-6.52-5.51-7.92-9.53
			C159.98,98.4,157.59,98.79,155.24,99.36z M190.75,97.66c-0.01,1.36-0.03,2.72-0.03,4.09c0,2.96,0,5.92-0.01,8.88
			c2.52-0.09,5.04-0.18,7.57-0.27c-0.01-2.88,0-5.75,0-8.63c-0.01-1.36-0.02-2.73-0.03-4.1C195.75,97.63,193.25,97.63,190.75,97.66z
			 M201.94,97.64c0.01,1.37,0.02,2.74,0.03,4.11c0.04,2.87,0.07,5.73,0.08,8.59c2.45,0.09,4.9,0.17,7.36,0.26
			c-0.01-2.97-0.02-5.94-0.02-8.9c-0.01-1.36-0.01-2.72-0.02-4.07C206.9,97.62,204.42,97.62,201.94,97.64z M214.18,100.04
			c0,3.66-0.04,7.32,0.01,10.99c1.33,0.13,2.67,0.27,4.01,0.4c0.36-1.46,0.72-2.92,1.09-4.37
			C216.99,105.2,215.2,102.82,214.18,100.04z M177.55,108.66c0.23,0.82,0.68,2.46,0.9,3.29c2.57-0.32,5.14-0.61,7.71-0.88
			c0.01-3.31-0.01-6.62,0.08-9.94C184.46,104.73,181.33,107.36,177.55,108.66z M223.72,108.75c-0.26,1.11-0.51,2.21-0.76,3.32
			c3.38,0.54,6.74,1.2,10.09,1.9c0.81-3.16,1.59-6.32,2.43-9.47C232.22,107.38,228.14,109.22,223.72,108.75z M144.58,127.56
			c-2.69,0.95-4.32,3.64-4.07,6.46c-0.03,19.33-0.01,38.65,0,57.98c0.06,13.21,6.38,25.68,15.25,35.2
			c10.1,10.83,22.95,18.94,36.7,24.31c4.57,0.06,9.67-2.17,13.92,0.73c8.21-2.86,15.95-6.97,23.18-11.77
			c12.88-8.76,24.46-20.81,28.96-36.06c2.49-7.92,1.78-16.29,1.86-24.46c-0.01-15.31,0.03-30.62,0-45.93
			c0.23-2.78-1.37-5.43-3.99-6.42C221.29,112.09,179.69,112.1,144.58,127.56z"/>
	</g>
	<g>
		<path fill="#442815" d="M198.58,137.12c-0.6-2.26,3.47-2.27,3.09-0.05c0.21,7.35-0.07,14.71,0.09,22.07
			c3.34,0.03,6.68,0.02,10.03-0.05c-0.26,1.35-0.51,2.71-0.75,4.06c-2.5-0.05-4.99-0.06-7.48-0.05c0.25,0.37,0.76,1.1,1.02,1.47
			c0.13,0.18,0.4,0.56,0.54,0.74c2.24,3.64,4.4,7.33,6.77,10.9c1.55-3.55,3.09-7.11,4.5-10.72c1.3,0.05,2.6,0.09,3.91,0.13
			c-1.48,4.4-3.42,8.63-5.28,12.88c4.31,0.01,8.62,0.01,12.93,0c-2.36-4.33-4.77-8.63-7.24-12.89c-0.18-0.36-0.54-1.07-0.72-1.43
			l-0.54-0.19c-0.56-0.06-1.68-0.19-2.24-0.26c-0.91-1.09-1.97-1.37-3.19-0.83c-0.42-1.23-0.76-2.49-1.08-3.75
			c2.86,0.01,5.75-0.25,8.58,0.3c2.88,3.97,4.77,8.55,7.3,12.74c1.6,3.01,3.81,5.86,4.15,9.36c-3.47,1.42-5.92,4.31-8.29,7.09
			c-4.9,5.77-10.54,10.86-15.47,16.61c-2.56,2.76-4.93,5.74-7.85,8.13c-1.58,1.35-3.24-0.43-4.27-1.57
			c-2.92-3.36-5.84-6.73-9.01-9.86c-0.26,2.48-0.33,4.98-0.72,7.45c-0.93,0.4-1.92,0.6-2.96,0.58c-0.26-4.82,0.96-10.25-1.81-14.54
			c-5.52-4.27-9-11.02-15.54-13.9c0.81-4.13,3.49-7.48,5.34-11.15c2.09-3.58,3.72-7.43,6.12-10.81c6.59-0.76,13.27-0.03,19.9-0.32
			C198.68,151.88,198.24,144.49,198.58,137.12z M183.37,162.98c1.99,4.4,4.03,8.78,6.08,13.15c2.67-4.28,5.05-8.73,7.49-13.15
			C192.42,162.99,187.89,163.08,183.37,162.98z M179.73,164.78c-2.44,4.64-4.98,9.24-7.53,13.82c4.68,0.02,9.37,0.01,14.05,0.02
			C184.23,173.93,182.28,169.2,179.73,164.78z M200.24,164.94c-2.49,4.57-5.19,9.02-7.52,13.68c5.36-0.03,10.71-0.16,16.06-0.14
			C205.86,174.01,203.26,169.35,200.24,164.94z M177.08,183.8c1.14,1.46,2.19,3.01,3.53,4.3c0.95,1.16,1.95,2.28,2.94,3.41
			c-0.12,0.61-0.35,1.85-0.47,2.46c0.54-0.34,1.61-1.02,2.14-1.36l0.35,0.12c2.78,3.85,6.1,7.27,9.59,10.48
			c-1.76-5.21-4.08-10.21-5.96-15.38c-0.64-1.36-0.99-2.99-2.17-4C183.72,183.51,180.39,183.75,177.08,183.8z M191.62,183.73
			c2.96,7.31,5.68,14.72,8.95,21.9c2.94-7.3,5.91-14.59,8.83-21.9C203.47,183.72,197.55,183.72,191.62,183.73z M206.47,201.79
			c5.97-5.68,11.52-11.81,16.98-17.98c-3.24-0.08-6.49-0.11-9.73-0.16C211.06,189.59,208.53,195.61,206.47,201.79z"/>
	</g>
</g>
<g>
	<path fill="#FFC44F" d="M189.36,42.42c1.3-1,3.12-0.43,4.64-0.62c5.39,0.15,10.79-0.18,16.18,0.15c2.92,0.23,2.85,4.91-0.01,5.2
		c-6.38,0.27-12.79,0.16-19.18,0.06C188.55,47.4,187.33,43.76,189.36,42.42z"/>
</g>
<g>
	<path fill="#E9EAEC" d="M154.21,50.81c3.72,5.55,8.23,10.61,13.88,14.26c-3.1,5.42-4.73,11.68-4.02,17.93
		c-3.19,0.64-6.36,1.33-9.56,1.94c-1.8-5.97-5.85-10.95-10.79-14.65c3.88-5.45,5.9-11.91,7.04-18.45c0.61,4.14,1.57,8.21,2.41,12.3
		c0.68,2.09-1.18,4.48,0.38,6.33c1.32,1.74,4.52,1.38,5.33-0.69c1.33-2.13-1.34-3.85-1.82-5.82
		C155.94,59.62,155.21,55.19,154.21,50.81z"/>
</g>
<g>
	<path fill="#A061A7" d="M193.29,55.35c1.73,0.02,3.46,0.05,5.2,0.1c-1.91,1.48-3.91,2.84-5.96,4.11
		C192.78,58.15,193.03,56.75,193.29,55.35z"/>
	<path fill="#A061A7" d="M191.58,78.22c5.76-3.54,11.24-7.49,16.89-11.2c0.19,2.98,0.34,5.97,0.48,8.96
		c-3.76,2.59-7.5,5.22-11.33,7.71c-1.64,1.09-4.19,1.55-5.85,0.45C191.51,82.18,191.57,80.19,191.58,78.22z"/>
</g>
<g>
	<path fill="#8A3E98" d="M194.2,63.23c4.08-2.71,8.16-5.43,12.19-8.2c1.08,2.41,1.41,5.04,1.59,7.65
		c-5.63,3.54-10.99,7.47-16.6,11.02C191.78,70.2,190.33,65.19,194.2,63.23z"/>
	<path fill="#8A3E98" d="M203.82,84.54c1.5-1.26,3.08-2.42,4.72-3.5c-0.04,1.18-0.09,2.36-0.13,3.53
		C206.88,84.57,205.34,84.56,203.82,84.54z"/>
</g>
<g>
	<path fill="#EEBD7A" d="M234.98,63.95c3.3-2.87,6.75-5.58,10.11-8.38c2.22,0.55,4.49,0.99,6.64,1.79c2.37,3.93,3.83,8.35,5.53,12.6
		c-2.08-0.17-4.42,0.25-6.22-1.03c-1.6-1.19-2.73-2.86-4-4.36c-1.91,0.85-3.78,2.16-5.96,2.08
		C238.71,66.79,236.86,65.12,234.98,63.95z"/>
</g>
<g>
	<path fill="#62BC98" d="M229.52,84.97c1.47-5.66,2.74-11.37,4.28-17.02c2.97,1.99,6.47,2.76,10.02,2.43
		c-2.08,7.89-3.81,15.87-5.96,23.74C236.52,89.98,233.52,86.69,229.52,84.97z"/>
</g>
<g>
	<path fill="#499B77" d="M236.9,114.92c3.29-14.6,7-29.12,10.61-43.65c2.6,1.71,5.59,2.59,8.69,2.66
		c-3.6,14.51-6.86,29.11-10.83,43.52C242.57,116.53,239.74,115.7,236.9,114.92z"/>
</g>
<g>
	<path fill="#6B6C6C" d="M151.13,90.46c5.16-1.01,10.29-2.21,15.46-3.14c-1.07,1.73-2.14,3.45-3.21,5.18
		c-3.8,0.94-7.63,1.76-11.48,2.47C151.64,93.46,151.39,91.96,151.13,90.46z"/>
</g>
<g>
	<path fill="#FFC750" d="M167.48,97c-0.28-4.05,3.39-7.87,7.47-7.6c17.01,0,34.03-0.03,51.04,0.02c5.01-0.24,8.83,5.79,6.54,10.26
		c-1.78,4.46-8.28,5.79-11.66,2.39c-1.65-1.37-2.06-3.56-2.64-5.51c1.86,0.05,3.72,0.11,5.58,0.21c0.58,1.24,0.88,2.78,2.21,3.48
		c1.5-0.13,2.79-1.65,2.1-3.16c-0.54-2.78-3.33-4.58-6.08-4.27c-14.68,0.02-29.36,0-44.04,0.01c-2.37-0.21-4.87,1.13-5.62,3.46
		c-0.46,1.35-0.59,3.9,1.5,3.69c1.8,0.39,1.8-2.22,2.62-3.19c2.01-0.12,4.02-0.17,6.03-0.2c-0.69,3.31-2.71,6.9-6.43,7.28
		C171.88,104.81,167.6,101.23,167.48,97z"/>
</g>
<g>
	<path fill="#595450" d="M155.24,99.36c2.35-0.57,4.74-0.96,7.15-1.17c1.4,4.02,3.68,8.03,7.92,9.53c2.36,0.63,3.19,2.74,3.64,4.92
		c-5.28,1.23-10.61,2.26-15.73,4.08C156.4,111.12,155.84,105.19,155.24,99.36z"/>
</g>
<g>
	<path fill="#636363" d="M190.75,97.66c2.5-0.03,5-0.03,7.5-0.03c0.01,1.37,0.02,2.74,0.03,4.1c-2.52,0.01-5.04,0.01-7.56,0.02
		C190.72,100.38,190.74,99.02,190.75,97.66z"/>
</g>
<g>
	<path fill="#616362" d="M201.94,97.64c2.48-0.02,4.96-0.02,7.43-0.01c0.01,1.35,0.01,2.71,0.02,4.07
		c-2.47,0.01-4.95,0.03-7.42,0.05C201.96,100.38,201.95,99.01,201.94,97.64z"/>
</g>
<g>
	<path fill="#FCFCFC" d="M177.55,108.66c3.78-1.3,6.91-3.93,8.69-7.53c-0.09,3.32-0.07,6.63-0.08,9.94
		c-2.57,0.27-5.14,0.56-7.71,0.88C178.23,111.12,177.78,109.48,177.55,108.66z"/>
</g>
<g>
	<path fill="#929290" d="M190.72,101.75c2.52-0.01,5.04-0.01,7.56-0.02c0,2.88-0.01,5.75,0,8.63c-2.53,0.09-5.05,0.18-7.57,0.27
		C190.72,107.67,190.72,104.71,190.72,101.75z"/>
</g>
<g>
	<path fill="#929292" d="M201.97,101.75c2.47-0.02,4.95-0.04,7.42-0.05c0,2.96,0.01,5.93,0.02,8.9c-2.46-0.09-4.91-0.17-7.36-0.26
		C202.04,107.48,202.01,104.62,201.97,101.75z"/>
</g>
<g>
	<path fill="#61BB97" d="M223.72,108.75c4.42,0.47,8.5-1.37,11.76-4.25c-0.84,3.15-1.62,6.31-2.43,9.47
		c-3.35-0.7-6.71-1.36-10.09-1.9C223.21,110.96,223.46,109.86,223.72,108.75z"/>
</g>
<g>
	<g>
		<path fill="#AB6F4A" d="M144.58,127.56c35.11-15.46,76.71-15.47,111.81,0.04c2.62,0.99,4.22,3.64,3.99,6.42
			c0.03,15.31-0.01,30.62,0,45.93c-0.08,8.17,0.63,16.54-1.86,24.46c-4.5,15.25-16.08,27.3-28.96,36.06
			c-7.23,4.8-14.97,8.91-23.18,11.77c-4.25-2.9-9.35-0.67-13.92-0.73c-13.75-5.37-26.6-13.48-36.7-24.31
			c-8.87-9.52-15.19-21.99-15.25-35.2c-0.01-19.33-0.03-38.65,0-57.98C140.26,131.2,141.89,128.51,144.58,127.56z M188.46,124.62
			c-12.17,1.05-24.19,3.75-35.64,7.97c-1.49,0.6-3.71,1.28-3.3,3.34c-0.05,19.02,0,38.04-0.02,57.06
			c0.01,11.65,6.18,22.34,14.14,30.46c9.78,9.77,21.95,16.93,34.8,21.9c2.03,0.98,4.19-0.03,6.11-0.79
			c12.46-5.23,24.35-12.33,33.7-22.19c7.47-7.94,13.13-18.24,13.14-29.37c0-16.34-0.02-32.68,0-49.03
			c-0.04-3.29,0.25-6.62-0.29-9.88c-2.96-1.83-6.4-2.64-9.67-3.74C224.38,124.91,206.27,123.2,188.46,124.62z"/>
	</g>
</g>
<g>
	<g>
		<path fill="#432815" d="M188.46,124.62c17.81-1.42,35.92,0.29,52.97,5.73c3.27,1.1,6.71,1.91,9.67,3.74
			c0.54,3.26,0.25,6.59,0.29,9.88c-0.02,16.35,0,32.69,0,49.03c-0.01,11.13-5.67,21.43-13.14,29.37
			c-9.35,9.86-21.24,16.96-33.7,22.19c-1.92,0.76-4.08,1.77-6.11,0.79c-12.85-4.97-25.02-12.13-34.8-21.9
			c-7.96-8.12-14.13-18.81-14.14-30.46c0.02-19.02-0.03-38.04,0.02-57.06c-0.41-2.06,1.81-2.74,3.3-3.34
			C164.27,128.37,176.29,125.67,188.46,124.62z M172.72,131.86c0.01,0.86,0.02,2.59,0.03,3.46c-0.19,6.86,0.15,13.73-0.12,20.59
			c0.4,2.2-3.55,2.11-3.08-0.06c-0.3-7.61,0.39-15.25-0.46-22.84c-4.54,0.96-9.05,2.16-13.4,3.81c-1.84,0.44-1.04,2.77-1.35,4.1
			c-0.14,17.03,0,34.05-0.08,51.08c-0.39,11.82,6.36,22.89,15.23,30.24c0.13-5.83-0.18-11.67,0.23-17.5
			c0.74,0.12,2.22,0.34,2.95,0.46c0.15,6.26-0.11,12.53,0.09,18.79c-0.18,1.45,1.17,2.29,2.11,3.11
			c6.88,5.16,14.44,9.36,22.35,12.72c1.59,0.67,3.38,1.41,5.05,0.54c4.47-1.83,8.99-3.72,13-6.44c0.54-6.27,0.07-12.59,0.18-18.88
			c1.23-0.14,3.3-1.03,3.16,1.06c0.36,5.23-0.07,10.48,0.16,15.71c4.21-2.27,8.16-5.11,11.6-8.43c0.67-11.87-0.13-23.82,0.39-35.71
			c0.76,0.07,2.27,0.21,3.02,0.28c0.21,10.62-0.18,21.24,0.21,31.86c6.08-5.76,10.68-13.33,12.22-21.61
			c1.12-5.67,0.59-11.46,0.69-17.19c-0.11-14.61,0.24-29.22-0.19-43.83C223.29,128.35,197.14,126.21,172.72,131.86z"/>
	</g>
</g>
<g>
	<path fill="#7A4C2E" d="M172.72,131.86c24.42-5.65,50.57-3.51,73.99,5.32c0.43,14.61,0.08,29.22,0.19,43.83
		c-0.1,5.73,0.43,11.52-0.69,17.19c0.33-15.38,0.06-30.76,0.16-46.13c0-3.66,0.3-7.34-0.28-10.97c-2.65-1.82-5.97-2.26-8.99-3.21
		c-14.62-4.22-29.97-5.72-45.15-4.84c-6.44,0.38-12.79,1.54-19.2,2.27C172.74,134.45,172.73,132.72,172.72,131.86z"/>
</g>
<g>
	<g>
		<path fill="#985E39" d="M155.69,136.82c4.35-1.65,8.86-2.85,13.4-3.81c0.85,7.59,0.16,15.23,0.46,22.84
			c-0.47,2.17,3.48,2.26,3.08,0.06c0.27-6.86-0.07-13.73,0.12-20.59c6.41-0.73,12.76-1.89,19.2-2.27
			c15.18-0.88,30.53,0.62,45.15,4.84c3.02,0.95,6.34,1.39,8.99,3.21c0.58,3.63,0.28,7.31,0.28,10.97
			c-0.1,15.37,0.17,30.75-0.16,46.13c-1.54,8.28-6.14,15.85-12.22,21.61c-0.39-10.62,0-21.24-0.21-31.86
			c-0.75-0.07-2.26-0.21-3.02-0.28c-0.52,11.89,0.28,23.84-0.39,35.71c-3.44,3.32-7.39,6.16-11.6,8.43
			c-0.23-5.23,0.2-10.48-0.16-15.71c0.14-2.09-1.93-1.2-3.16-1.06c-0.11,6.29,0.36,12.61-0.18,18.88c-4.01,2.72-8.53,4.61-13,6.44
			c-1.67,0.87-3.46,0.13-5.05-0.54c-7.91-3.36-15.47-7.56-22.35-12.72c-0.94-0.82-2.29-1.66-2.11-3.11
			c-0.2-6.26,0.06-12.53-0.09-18.79c-0.73-0.12-2.21-0.34-2.95-0.46c-0.41,5.83-0.1,11.67-0.23,17.5
			c-8.87-7.35-15.62-18.42-15.23-30.24c0.08-17.03-0.06-34.05,0.08-51.08C154.65,139.59,153.85,137.26,155.69,136.82z
			 M198.58,137.12c-0.34,7.37,0.1,14.76-0.17,22.14c-6.63,0.29-13.31-0.44-19.9,0.32c-2.4,3.38-4.03,7.23-6.12,10.81
			c-1.85,3.67-4.53,7.02-5.34,11.15c6.54,2.88,10.02,9.63,15.54,13.9c2.77,4.29,1.55,9.72,1.81,14.54c1.04,0.02,2.03-0.18,2.96-0.58
			c0.39-2.47,0.46-4.97,0.72-7.45c3.17,3.13,6.09,6.5,9.01,9.86c1.03,1.14,2.69,2.92,4.27,1.57c2.92-2.39,5.29-5.37,7.85-8.13
			c4.93-5.75,10.57-10.84,15.47-16.61c2.37-2.78,4.82-5.67,8.29-7.09c-0.34-3.5-2.55-6.35-4.15-9.36c-2.53-4.19-4.42-8.77-7.3-12.74
			c-2.83-0.55-5.72-0.29-8.58-0.3c-0.16-0.67-0.48-2-0.65-2.67c-0.12,0.65-0.37,1.96-0.5,2.61c-3.35,0.07-6.69,0.08-10.03,0.05
			c-0.16-7.36,0.12-14.72-0.09-22.07C202.05,134.85,197.98,134.86,198.58,137.12z M231.16,140.84c-0.28,2-1.15,4.22-0.03,6.13
			C235.06,148.56,234.95,140.73,231.16,140.84z M230.75,151.02c-0.32,4.93-0.27,9.89,0.21,14.8c0.68-0.06,2.02-0.17,2.7-0.23
			c0.09-5.09,0.49-10.23-0.09-15.3C233.1,148.75,230.39,149.42,230.75,151.02z M172.65,166.97c0.02-1.92,0.1-3.85-0.09-5.76
			C168.38,157.99,167.87,168.74,172.65,166.97z M241,171.14c-0.79,3.27-0.46,6.67,0.13,9.95c1.07-0.45,2.82-0.48,2.61-2.11
			c0.27-2.5,0.28-5.05-0.21-7.51C242.9,171.39,241.63,171.22,241,171.14z M158.6,187.4c-0.38,2.71-0.39,5.5,0,8.21
			c0.55,1.56,3.23,0.92,3.03-0.62c0.19-2.3,0.2-4.62-0.01-6.91C161.78,186.59,159.25,186.03,158.6,187.4z M215.87,204.17
			c-0.19,2.68-1.73,7.3,1.36,8.58c1.77-0.3,1.36-2.42,1.56-3.73C218.76,206.99,219.19,202.41,215.87,204.17z M198.82,220.03
			c-0.45,4.75-0.54,9.55-0.19,14.31c0.94,0.44,1.94,0.69,3,0.74c0.11-4.93,0.12-9.87-0.01-14.8
			C200.92,220.21,199.52,220.09,198.82,220.03z"/>
	</g>
</g>
<g>
	<path fill="#422715" d="M231.16,140.84c3.79-0.11,3.9,7.72-0.03,6.13C230.01,145.06,230.88,142.84,231.16,140.84z"/>
</g>
<g>
	<path fill="#412613" d="M230.75,151.02c-0.36-1.6,2.35-2.27,2.82-0.73c0.58,5.07,0.18,10.21,0.09,15.3
		c-0.68,0.06-2.02,0.17-2.7,0.23C230.48,160.91,230.43,155.95,230.75,151.02z"/>
</g>
<g>
	<path fill="#3F2515" d="M172.65,166.97c-4.78,1.77-4.27-8.98-0.09-5.76C172.75,163.12,172.67,165.05,172.65,166.97z"/>
</g>
<g>
	<path fill="#EC5D71" d="M183.37,162.98c4.52,0.1,9.05,0.01,13.57,0c-2.44,4.42-4.82,8.87-7.49,13.15
		C187.4,171.76,185.36,167.38,183.37,162.98z"/>
	<path fill="#EC5D71" d="M191.62,183.73c5.93-0.01,11.85-0.01,17.78,0c-2.92,7.31-5.89,14.6-8.83,21.9
		C197.3,198.45,194.58,191.04,191.62,183.73z"/>
</g>
<g>
	<path fill="#EA5B6D" d="M203.56,163.1c2.49-0.01,4.98,0,7.48,0.05c-2.15,0.5-4.31,0.96-6.46,1.42
		C204.32,164.2,203.81,163.47,203.56,163.1z"/>
	<path fill="#EA5B6D" d="M214.02,162.9c1.22-0.54,2.28-0.26,3.19,0.83C215.73,164.36,214.66,164.08,214.02,162.9z"/>
	<path fill="#EA5B6D" d="M205.12,165.31c1.88,0.28,3.77,0.53,5.67,0.77c0.57,2.18,1.12,4.36,1.69,6.54
		c0.84-2.57,0.24-6.76,3.91-7.13c-1.41,3.61-2.95,7.17-4.5,10.72C209.52,172.64,207.36,168.95,205.12,165.31z"/>
</g>
<g>
	<path fill="#F2768E" d="M179.73,164.78c2.55,4.42,4.5,9.15,6.52,13.84c-4.68-0.01-9.37,0-14.05-0.02
		C174.75,174.02,177.29,169.42,179.73,164.78z"/>
</g>
<g>
	<path fill="#EB5D71" d="M200.24,164.94c3.02,4.41,5.62,9.07,8.54,13.54c-5.35-0.02-10.7,0.11-16.06,0.14
		C195.05,173.96,197.75,169.51,200.24,164.94z"/>
</g>
<g>
	<path fill="#F1768D" d="M220.3,165.62l0.41-0.01c2.47,4.26,4.88,8.56,7.24,12.89c-4.31,0.01-8.62,0.01-12.93,0
		C216.88,174.25,218.82,170.02,220.3,165.62z"/>
</g>
<g>
	<path fill="#422814" d="M241,171.14c0.63,0.08,1.9,0.25,2.53,0.33c0.49,2.46,0.48,5.01,0.21,7.51c0.21,1.63-1.54,1.66-2.61,2.11
		C240.54,177.81,240.21,174.41,241,171.14z"/>
</g>
<g>
	<path fill="#AA3B53" d="M177.08,183.8c3.31-0.05,6.64-0.29,9.95,0.03c1.18,1.01,1.53,2.64,2.17,4c1.88,5.17,4.2,10.17,5.96,15.38
		c-3.49-3.21-6.81-6.63-9.59-10.48c0.93,0.31,2.78,0.93,3.7,1.24c-1.02-1.04-2.05-2.08-3.07-3.11c0.53-1.36,1.07-2.72,1.6-4.07
		c-1.07,1.04-2.13,2.08-3.19,3.13c-1.34-0.59-2.69-1.18-4-1.82C179.27,186.81,178.22,185.26,177.08,183.8z"/>
</g>
<g>
	<path fill="#AA3A53" d="M206.47,201.79c2.06-6.18,4.59-12.2,7.25-18.14c3.24,0.05,6.49,0.08,9.73,0.16
		C217.99,189.98,212.44,196.11,206.47,201.79z"/>
</g>
<g>
	<path fill="#402514" d="M158.6,187.4c0.65-1.37,3.18-0.81,3.02,0.68c0.21,2.29,0.2,4.61,0.01,6.91c0.2,1.54-2.48,2.18-3.03,0.62
		C158.21,192.9,158.22,190.11,158.6,187.4z"/>
</g>
<g>
	<path fill="#412713" d="M215.87,204.17c3.32-1.76,2.89,2.82,2.92,4.85c-0.2,1.31,0.21,3.43-1.56,3.73
		C214.14,211.47,215.68,206.85,215.87,204.17z"/>
</g>
<g>
	<path fill="#412615" d="M198.82,220.03c0.7,0.06,2.1,0.18,2.8,0.25c0.13,4.93,0.12,9.87,0.01,14.8c-1.06-0.05-2.06-0.3-3-0.74
		C198.28,229.58,198.37,224.78,198.82,220.03z"/>
</g>
<g>
	<path fill="#351602" d="M160.28,254.51c7.86,0.22,15.76-0.32,23.6,0.27l0.43,0.97c-6.09,0.23-12.19,0.1-18.29,0.19
		C164.07,255.81,161.67,256.25,160.28,254.51z"/>
	<path fill="#351602" d="M215.85,254.8c8.33-0.57,16.7-0.11,25.04-0.27c-0.28,0.29-0.84,0.89-1.13,1.19
		c-5.25,0.4-10.52,0.07-15.78,0.24C221.22,256.09,218.46,255.71,215.85,254.8z"/>
</g>
</svg>
