<?xml version="1.0" encoding="utf-8"?>
<!-- Generator: Adobe Illustrator 16.0.0, SVG Export Plug-In . SVG Version: 6.00 Build 0)  -->
<!DOCTYPE svg PUBLIC "-//W3C//DTD SVG 1.1//EN" "http://www.w3.org/Graphics/SVG/1.1/DTD/svg11.dtd">
<svg version="1.1" id="Capa_1" xmlns="http://www.w3.org/2000/svg" xmlns:xlink="http://www.w3.org/1999/xlink" x="0px" y="0px"
	 width="800px" height="149.689px" viewBox="0 0 800 149.689" enable-background="new 0 0 800 149.689" xml:space="preserve">
<g id="_x23_000000ff">
	<path fill="#010202" d="M48.25,23.538c0.593-0.375,1.276-0.64,1.987-0.625c1.162-0.082,2.25,0.419,3.276,0.898
		c0.743-0.292,1.568-0.387,2.354-0.211c0.76,0.171,1.452,0.552,2.113,0.953c1.037-0.321,2.207-0.221,3.15,0.329
		c0.81,0.479,1.504,1.123,2.179,1.771c0.755-0.054,1.53,0.08,2.203,0.436c0.526,0.268,0.952,0.685,1.377,1.084
		c2.043,1.961,3.607,4.389,4.691,6.997c0.018,0.068,0.141,0.285,0.171,0.078c1.084-2.617,2.639-5.061,4.683-7.034
		c0.425-0.401,0.848-0.82,1.368-1.098c0.684-0.376,1.479-0.519,2.254-0.463c0.806-0.757,1.623-1.559,2.653-2.002
		c0.846-0.349,1.806-0.363,2.677-0.099c0.812-0.49,1.683-0.969,2.649-1.03c0.619-0.055,1.24,0.067,1.816,0.288
		c0.688-0.336,1.403-0.626,2.147-0.816c1.059-0.209,2.213-0.08,3.117,0.543c1.018-0.238,2.06-0.56,3.115-0.426
		c0.792,0.103,1.532,0.474,2.125,1.003c1.004-0.091,2.072-0.094,2.985,0.394c0.369,0.164,0.653,0.459,0.988,0.672
		c0.637,0.004,1.279-0.016,1.914,0.07c0.874,0.114,1.779,0.278,2.525,0.776c0.404,0.257,0.74,0.605,1.036,0.98
		c0.94-0.14,1.94-0.074,2.783,0.402c1.113,0.593,1.896,1.755,2.03,3.01c0.096,0.786-0.07,1.586-0.425,2.289
		c0.511,0.739,0.789,1.644,0.724,2.546c-0.049,0.907-0.468,1.741-0.941,2.499c0.249,0.868,0.234,1.818-0.112,2.658
		c-0.289,0.728-0.824,1.313-1.294,1.925c0.18,0.892,0.053,1.843-0.379,2.646c-0.363,0.69-0.959,1.21-1.501,1.757
		c0.033,1.032-0.331,2.078-1.041,2.833c-0.647,0.671-1.404,1.222-2.16,1.76c-0.11,0.829-0.476,1.625-1.059,2.227
		c-0.804,0.811-1.859,1.303-2.893,1.748c-0.242,0.664-0.642,1.276-1.187,1.729c-0.708,0.606-1.625,0.869-2.498,1.146
		c1.198,0.752,2.29,1.666,3.251,2.703c1.358,1.3,2.394,2.889,3.315,4.516c0.51,1.073,1.018,2.155,1.355,3.297
		c0.358,1.018,0.506,2.088,0.722,3.141c0.162,1.073,0.178,2.163,0.21,3.245c0.122,0.348,0.343,0.652,0.497,0.988
		c0.168,0.407,0.614,0.559,0.933,0.823c1.312,1.047,2.588,2.167,3.587,3.525c2.216,2.803,3.604,6.262,3.92,9.823
		c0.224,1.831,0.047,3.683-0.259,5.494c-0.201,0.872-0.395,1.748-0.734,2.579c-0.555,1.66-1.372,3.227-2.38,4.657
		c-0.329,0.434-0.668,0.86-1.003,1.288c-0.108,0.127-0.164,0.283-0.19,0.448c-0.361,1.773-0.858,3.516-1.438,5.229
		c-0.101,0.827-0.037,1.667-0.126,2.495c-0.128,0.977-0.241,1.959-0.516,2.908c-0.189,0.922-0.546,1.797-0.864,2.682
		c-0.307,0.801-0.707,1.561-1.083,2.328c-0.528,0.893-1.05,1.794-1.711,2.596c-0.46,0.648-1.004,1.228-1.554,1.8
		c-0.535,0.604-1.177,1.1-1.778,1.638c-2.04,1.637-4.377,2.917-6.879,3.692c-0.303,0.1-0.535,0.326-0.789,0.506
		c-2.877,2.108-6.018,3.86-9.332,5.181c-0.345,0.131-0.531,0.475-0.788,0.718c-1.089,1.235-2.382,2.273-3.742,3.193
		c-3.232,2.125-7.085,3.382-10.97,3.295c-1.081,0.025-2.167-0.019-3.237-0.177c-0.864-0.173-1.74-0.307-2.573-0.598
		c-0.884-0.264-1.757-0.563-2.593-0.954c-0.833-0.324-1.593-0.8-2.368-1.239c-0.538-0.329-1.03-0.724-1.546-1.085
		c-0.787-0.551-1.482-1.214-2.183-1.865c-0.327-0.287-0.534-0.726-0.946-0.901c-4.136-1.528-8.023-3.722-11.492-6.443
		c-0.702-0.408-1.507-0.61-2.196-1.045c-0.849-0.45-1.654-0.976-2.417-1.557c-1.407-0.967-2.622-2.188-3.712-3.497
		c-0.611-0.665-1.085-1.438-1.584-2.187c-0.622-1.048-1.23-2.113-1.651-3.262c-0.43-1.017-0.714-2.085-0.999-3.149
		c-0.174-0.679-0.196-1.391-0.405-2.059c-1.005-2.321-1.805-4.731-2.38-7.195c-0.079-0.285-0.082-0.611-0.294-0.84
		c-0.612-0.719-1.168-1.482-1.683-2.272c-0.406-0.717-0.805-1.439-1.178-2.176c-0.716-1.654-1.297-3.385-1.517-5.181
		c-0.249-1.393-0.219-2.816-0.155-4.224c0.113-2.066,0.67-4.083,1.454-5.991c1.297-3.101,3.477-5.811,6.168-7.815
		c0.165-0.127,0.365-0.229,0.457-0.425c0.186-0.368,0.369-0.739,0.563-1.102c0.141-0.225,0.083-0.494,0.085-0.742
		c-0.016-0.974,0.016-1.951,0.176-2.913c0.22-1.909,0.771-3.77,1.551-5.525c0.779-1.847,1.929-3.514,3.232-5.027
		c1.257-1.442,2.74-2.681,4.361-3.697c-1.198-0.386-2.207-1.317-2.613-2.518c-0.946-0.405-1.895-0.854-2.675-1.537
		c-0.707-0.623-1.157-1.511-1.28-2.441c-0.738-0.52-1.47-1.061-2.108-1.705c-0.74-0.759-1.127-1.827-1.089-2.883
		c-0.572-0.576-1.204-1.13-1.561-1.875c-0.392-0.782-0.487-1.692-0.324-2.548c-0.539-0.665-1.126-1.334-1.386-2.167
		c-0.256-0.774-0.24-1.619-0.017-2.398c-0.506-0.806-0.945-1.708-0.95-2.68c-0.023-0.843,0.255-1.675,0.732-2.366
		c-0.47-0.915-0.589-2.006-0.281-2.991c0.377-1.265,1.433-2.303,2.712-2.639c0.636-0.186,1.305-0.147,1.954-0.07
		c0.473-0.622,1.109-1.124,1.85-1.386c1.165-0.398,2.411-0.464,3.632-0.439c0.425-0.313,0.839-0.662,1.349-0.834
		c0.831-0.335,1.746-0.302,2.622-0.232c0.804-0.731,1.907-1.128,2.993-1.024C46.764,23.169,47.509,23.35,48.25,23.538
		 M50.452,26.801c0.469,0.452,1.076,1.018,0.898,1.739c-0.08,0.205-0.271,0.601-0.538,0.41c-1.531-1.018-3.295-1.662-5.107-1.949
		c0.53,0.34,1.094,0.708,1.378,1.293c0.13,0.252,0.087,0.544,0.066,0.815c-0.168,0.008-0.342,0.063-0.506,0.004
		c-1.546-0.551-3.136-1.128-4.8-1.124c0.436,0.239,0.935,0.476,1.139,0.962c0.147,0.284,0.12,0.609,0.036,0.907
		c-0.485,0.146-0.934-0.125-1.391-0.244c-1.573-0.451-3.259-0.713-4.873-0.322c0.579,0.409,1.053,0.94,1.528,1.461
		c-1.865,0.27-3.769,0.313-5.64,0.095c1.095,1.239,1.763,2.786,2.223,4.357c-0.835,0.015-1.689,0.034-2.502-0.19
		c0.704,1.496,2.062,2.529,3.349,3.501c0.041,0.188,0.085,0.376,0.126,0.565c-0.878,0.3-1.841,0.225-2.691-0.129
		c1.081,1.503,2.474,2.745,3.877,3.939c-0.665,0.557-1.594,0.377-2.377,0.254c1.023,1.119,2.239,2.044,3.507,2.866
		c0.308,0.212,0.682,0.351,0.893,0.676c-0.723,0.435-1.615,0.479-2.413,0.241c1.23,1.148,2.717,1.979,4.223,2.708
		c0.408,0.212,0.865,0.335,1.23,0.625c-0.603,0.601-1.511,0.683-2.314,0.595c0.674,0.485,1.454,0.79,2.229,1.071
		c0.836,0.293,1.686,0.55,2.542,0.778c0.313,0.088,0.662,0.122,0.908,0.36c-0.421,0.627-1.174,0.875-1.889,0.97
		c1.689,0.708,3.544,0.887,5.358,0.93c0.318,0.014,0.61,0.159,0.907,0.262c-0.136,0.79-0.982,1.097-1.629,1.373
		c1.225,0.222,2.479,0.178,3.711,0.05c2.123-0.255,4.218-0.774,6.202-1.575c0.963-0.4,1.87-0.952,2.616-1.685
		c1.044-0.998,1.749-2.326,2.076-3.726c-0.159-0.243-0.372-0.444-0.56-0.666c-1.345-1.446-2.827-2.76-4.363-4.003
		c-2.501-2.019-5.146-3.854-7.858-5.576c-2.806-1.769-5.684-3.435-8.676-4.87c0.764,0.209,1.511,0.476,2.26,0.731
		c3.569,1.266,7.046,2.79,10.411,4.528c2.485,1.292,4.908,2.707,7.208,4.303c1.317,0.922,2.61,1.885,3.806,2.96
		c1.438-0.611,2.75-1.65,3.463-3.064c0.642-1.257,0.758-2.732,0.478-4.103c-0.342-1.6-0.913-3.147-1.66-4.602
		c-0.904-1.783-2.116-3.417-3.618-4.743c-0.001,0.654-0.232,1.297-0.635,1.811c-1.162-1.474-2.335-2.986-3.87-4.095
		c0.151,0.543,0.279,1.159,0.001,1.686c-0.123,0.268-0.383,0.422-0.638,0.543c-0.946-1.227-2.042-2.42-3.474-3.076
		c0.209,0.244,0.431,0.521,0.435,0.862c0.041,0.476-0.208,0.904-0.45,1.292c-0.157-0.051-0.317-0.106-0.437-0.225
		C53.424,28.248,52.035,27.281,50.452,26.801 M88.744,29.358c-0.122,0.122-0.284,0.18-0.442,0.231
		c-0.241-0.388-0.489-0.816-0.449-1.291c0.002-0.34,0.224-0.617,0.435-0.861c-1.432,0.654-2.529,1.845-3.472,3.073
		c-0.257-0.117-0.516-0.274-0.64-0.541c-0.279-0.526-0.154-1.144,0.002-1.688c-1.535,1.108-2.709,2.622-3.874,4.095
		c-0.4-0.515-0.633-1.155-0.631-1.808c-1.522,1.335-2.738,2.995-3.648,4.798c-0.733,1.439-1.293,2.969-1.633,4.549
		c-0.284,1.391-0.155,2.892,0.512,4.159c0.718,1.385,2.014,2.396,3.429,3.003c1.244-1.113,2.588-2.112,3.958-3.065
		c3.197-2.195,6.609-4.061,10.119-5.706c3.123-1.448,6.318-2.759,9.615-3.757c-4.279,2.074-8.356,4.552-12.265,7.255
		c-2.948,2.069-5.825,4.278-8.332,6.875c-0.298,0.32-0.609,0.632-0.863,0.988c0.466,2.136,1.914,4.025,3.863,5.022
		c1.552,0.784,3.244,1.255,4.936,1.625c1.904,0.381,3.878,0.622,5.807,0.29c-0.648-0.275-1.497-0.581-1.63-1.372
		c0.296-0.103,0.587-0.249,0.908-0.262c1.813-0.044,3.668-0.221,5.356-0.93c-0.715-0.096-1.47-0.342-1.887-0.972
		c0.358-0.312,0.86-0.31,1.292-0.461c1.503-0.454,3.072-0.852,4.387-1.747c-0.804,0.087-1.717,0.006-2.317-0.597
		c0.352-0.276,0.787-0.398,1.179-0.599c1.525-0.735,3.032-1.569,4.276-2.733c-0.798,0.239-1.691,0.194-2.414-0.244
		c0.216-0.321,0.588-0.462,0.896-0.673c1.269-0.822,2.481-1.749,3.507-2.866c-0.784,0.123-1.713,0.302-2.377-0.254
		c1.402-1.197,2.794-2.439,3.878-3.942c-0.85,0.358-1.81,0.427-2.688,0.136c0.037-0.191,0.079-0.38,0.12-0.571
		c1.289-0.971,2.643-2.008,3.352-3.501c-0.815,0.221-1.669,0.205-2.505,0.189c0.461-1.572,1.126-3.119,2.225-4.356
		c-1.872,0.216-3.778,0.175-5.643-0.097c0.477-0.519,0.95-1.054,1.53-1.461c-1.892-0.45-3.859-0.037-5.664,0.575
		c-0.198,0.076-0.404,0.009-0.604-0.012c-0.08-0.298-0.111-0.622,0.037-0.905c0.205-0.487,0.705-0.724,1.142-0.961
		c-1.652-0.002-3.233,0.561-4.766,1.114c-0.176,0.071-0.364,0.019-0.543,0.004c-0.021-0.272-0.063-0.564,0.07-0.816
		c0.283-0.583,0.847-0.951,1.375-1.29c-1.789,0.286-3.539,0.909-5.051,1.916c-0.095,0.057-0.214,0.143-0.317,0.05
		c-0.277-0.237-0.382-0.638-0.27-0.984c0.153-0.485,0.538-0.839,0.892-1.185C91.335,27.281,89.948,28.246,88.744,29.358
		 M69.888,57.033c-2.55,0.181-5.031,1.085-7.155,2.497c-1.244,0.861-2.474,1.833-3.266,3.147c-0.231,0.359-0.293,0.792-0.393,1.199
		c-0.132,0.499-0.071,1.024,0.034,1.521c0.076,0.397,0.357,0.704,0.532,1.058c0.203,0.394,0.423,0.789,0.744,1.1
		c0.831,0.797,1.829,1.396,2.864,1.889c1.585,0.744,3.28,1.247,5.004,1.546c0.928,0.15,1.869,0.104,2.804,0.144
		c1.118,0.145,2.25,0.062,3.365-0.082c0.628-0.072,1.22-0.318,1.853-0.362c1.63-0.168,3.072-1.003,4.496-1.749
		c0.666-0.316,1.192-0.857,1.622-1.444c0.564-0.691,1.131-1.512,1.063-2.447c-0.015-0.636-0.162-1.271-0.426-1.85
		c-0.396-0.744-0.984-1.356-1.564-1.958c-0.769-0.703-1.564-1.381-2.447-1.937c-1.127-0.654-2.283-1.291-3.551-1.626
		C73.678,57.079,71.764,56.904,69.888,57.033 M48.335,60.254c-2.016,0.604-3.891,1.662-5.462,3.059
		c-1.142,1.012-2.106,2.212-2.917,3.501c-1.511,2.526-2.273,5.493-2.159,8.436c0.025,0.208,0.007,0.443,0.112,0.63
		c0.376,0.146,0.821,0.206,1.198,0.028c0.368-0.163,0.733-0.333,1.12-0.449c0.872-0.286,1.582-0.888,2.356-1.355
		c1.148-0.55,2.157-1.343,3.167-2.11c1.141-0.94,2.346-1.802,3.472-2.761c1.478-1.211,2.813-2.58,4.231-3.857
		c0.482-0.432,0.885-0.94,1.328-1.409c0.329-0.353,0.548-0.79,0.876-1.142c0.212-0.229,0.399-0.479,0.583-0.729
		c0.358-0.458,0.474-1.043,0.748-1.546c-0.073-0.217-0.172-0.462-0.424-0.514c-1.037-0.264-2.099-0.456-3.171-0.458
		C51.685,59.499,49.961,59.719,48.335,60.254 M85.22,60.055c-0.132,0.033-0.245,0.111-0.362,0.176
		c0.009,0.938,0.547,1.772,1.177,2.426c0.438,0.556,0.885,1.106,1.392,1.602c0.359,0.342,0.656,0.742,1.004,1.098
		c0.525,0.56,1.134,1.035,1.646,1.611c0.53,0.586,1.132,1.097,1.725,1.617c1.073,1.02,2.188,2.008,3.446,2.796
		c0.192,0.124,0.373,0.265,0.541,0.421c0.839,0.761,1.732,1.47,2.707,2.051c1.015,0.508,1.837,1.349,2.921,1.731
		c0.608,0.167,1.081,0.706,1.74,0.704c0.214-0.008,0.447,0.043,0.652-0.034c0.208-0.22,0.184-0.542,0.202-0.822
		c0.047-0.914-0.013-1.828-0.105-2.737c-0.111-0.622-0.234-1.242-0.366-1.858c-0.583-2.228-1.676-4.316-3.17-6.066
		c-0.723-0.743-1.425-1.516-2.264-2.133c-1.042-0.725-2.109-1.44-3.305-1.891c-1.398-0.578-2.875-0.976-4.385-1.096
		C88.677,59.516,86.91,59.612,85.22,60.055 M83.596,71.706c-0.567,0.077-1.139,0.146-1.687,0.317
		c-1.161,0.399-2.273,0.946-3.284,1.641c-0.491,0.443-0.993,0.877-1.438,1.368c-0.371,0.488-0.688,1.014-1.028,1.524
		c-0.611,0.882-0.969,1.905-1.273,2.926c-0.289,1.116-0.447,2.267-0.45,3.418c0.104,0.93,0.075,1.869,0.208,2.796
		c0.176,0.747,0.333,1.498,0.546,2.235c0.312,0.875,0.81,1.667,1.169,2.523c0.444,0.798,0.799,1.66,1.419,2.343
		c0.615,0.818,1.383,1.494,2.071,2.245c1.005,1.077,2.305,1.814,3.609,2.465c0.617,0.307,1.207,0.701,1.895,0.829
		c0.718,0.137,1.415,0.403,2.153,0.409c0.649,0.033,1.281,0.264,1.937,0.21c0.404-0.041,0.81-0.072,1.213-0.125
		c0.455-0.079,0.892-0.236,1.345-0.326c0.528-0.097,0.979-0.41,1.484-0.572c0.5-0.159,0.935-0.457,1.378-0.729
		c0.481-0.299,0.875-0.71,1.309-1.069c0.389-0.317,0.669-0.738,0.995-1.115c0.31-0.348,0.515-0.771,0.779-1.154
		c0.343-0.491,0.526-1.066,0.768-1.608c0.657-1.777,0.937-3.691,0.817-5.583c-0.049-1.521-0.464-2.997-0.913-4.443
		c-0.432-1.238-1.063-2.391-1.735-3.513c-0.928-1.358-1.994-2.641-3.277-3.676c-0.809-0.679-1.667-1.311-2.614-1.78
		c-0.512-0.258-0.999-0.574-1.552-0.736c-0.64-0.194-1.253-0.488-1.917-0.597c-0.678-0.105-1.347-0.314-2.04-0.284
		C84.855,71.653,84.222,71.607,83.596,71.706 M56.609,72.144c-2.036,0.208-4.019,0.903-5.755,1.98
		c-2.466,1.55-4.557,3.733-5.868,6.346c-1.903,3.539-2.419,7.866-1.107,11.691c0.601,1.712,1.643,3.256,2.972,4.487
		c0.314,0.241,0.611,0.504,0.922,0.749c0.644,0.435,1.315,0.829,2.031,1.139c2.877,1.222,6.243,1.197,9.123-0.004
		c0.481-0.215,0.989-0.378,1.432-0.671c0.325-0.212,0.683-0.365,1.011-0.571c1.022-0.719,2.034-1.475,2.858-2.422
		c0.358-0.347,0.681-0.723,0.974-1.125c1.072-1.258,1.935-2.7,2.538-4.24c0.288-0.605,0.423-1.266,0.626-1.9
		c0.143-0.799,0.243-1.608,0.378-2.409c0.242-2.033,0.042-4.154-0.783-6.041c-0.541-1.602-1.491-3.066-2.743-4.202
		C62.928,72.837,59.703,71.804,56.609,72.144 M104.505,79.321c-0.252,0.063-0.458,0.242-0.585,0.465
		c-0.429,0.806-0.67,1.699-0.792,2.6c-0.083,0.61-0.211,1.214-0.236,1.831c-0.055,0.732,0.04,1.467,0.001,2.201
		c-0.046,1.274,0.211,2.528,0.337,3.789c0.121,1.086,0.337,2.16,0.521,3.236c0.221,0.813,0.284,1.66,0.533,2.468
		c0.149,0.738,0.503,1.409,0.697,2.134c0.253,0.873,0.572,1.746,1.109,2.489c0.286,0.4,0.445,0.886,0.781,1.255
		c0.235,0.292,0.563,0.485,0.867,0.696c0.296,0.216,0.709,0.063,0.959-0.157c0.541-0.488,0.999-1.06,1.437-1.638
		c0.448-0.537,0.806-1.138,1.161-1.738c0.85-1.629,1.489-3.396,1.665-5.234c0.175-1.163,0.138-2.347-0.009-3.511
		c-0.352-2.841-1.624-5.547-3.533-7.676c-1.204-1.283-2.596-2.42-4.185-3.192C105.006,79.202,104.739,79.231,104.505,79.321
		 M36.557,79.977c-0.602,0.168-1.098,0.572-1.605,0.919c-2.388,1.738-4.277,4.202-5.18,7.025c-0.322,0.877-0.535,1.791-0.65,2.716
		c-0.146,1.309-0.19,2.638,0.043,3.94c0.158,1.344,0.59,2.639,1.121,3.877c0.521,1.026,1.065,2.048,1.797,2.943
		c0.477,0.564,0.914,1.233,1.627,1.519c0.466,0.043,0.896-0.212,1.275-0.453c0.306-0.313,0.615-0.644,0.803-1.045
		c0.152-0.325,0.455-0.551,0.615-0.871c0.139-0.276,0.268-0.556,0.404-0.833c0.265-0.517,0.311-1.111,0.561-1.632
		c0.508-1.267,0.89-2.592,1.053-3.951c0.26-1.239,0.525-2.483,0.631-3.748c0.173-2.087,0.165-4.187-0.051-6.27
		c-0.11-0.827-0.218-1.663-0.528-2.442c-0.146-0.604-0.62-1.023-0.985-1.493C37.242,79.927,36.881,79.89,36.557,79.977
		 M69.973,97.555c-0.721,0.108-1.448,0.196-2.146,0.414c-0.682,0.188-1.34,0.448-1.999,0.704c-0.671,0.265-1.292,0.637-1.93,0.974
		c-0.485,0.288-0.924,0.645-1.372,0.985c-0.57,0.422-1.045,0.953-1.545,1.454c-0.288,0.278-0.488,0.629-0.709,0.96
		c-0.233,0.353-0.507,0.679-0.683,1.069c-0.232,0.517-0.593,0.968-0.791,1.503c-0.125,0.342-0.246,0.686-0.373,1.029
		c-0.204,0.528-0.218,1.102-0.326,1.651c-0.127,0.609-0.073,1.234-0.135,1.852c-0.073,0.651,0.077,1.295,0.17,1.935
		c0.059,0.41,0.183,0.807,0.322,1.195c0.194,0.508,0.314,1.043,0.565,1.531c0.379,0.912,0.942,1.73,1.548,2.504
		c0.691,0.793,1.394,1.597,2.27,2.194c0.538,0.426,1.152,0.732,1.731,1.092c0.516,0.316,1.103,0.479,1.652,0.724
		c1.035,0.45,2.155,0.663,3.27,0.797c0.835,0.138,1.688,0.142,2.531,0.123c0.685-0.094,1.381-0.125,2.054-0.288
		c1.909-0.372,3.725-1.165,5.344-2.237c1.179-0.852,2.257-1.858,3.097-3.051c0.447-0.522,0.717-1.157,1.05-1.75
		c0.183-0.335,0.297-0.702,0.446-1.052c0.163-0.407,0.377-0.799,0.442-1.237c0.116-0.71,0.321-1.408,0.338-2.13
		c0.01-0.76,0.04-1.524-0.097-2.278c-0.111-0.778-0.209-1.568-0.511-2.3c-0.241-0.568-0.427-1.17-0.796-1.674
		c-0.272-0.359-0.465-0.77-0.681-1.162c-0.201-0.37-0.509-0.664-0.775-0.984c-0.307-0.335-0.568-0.719-0.937-0.993
		c-0.35-0.271-0.716-0.522-1.043-0.821c-0.403-0.361-0.869-0.646-1.32-0.942c-0.547-0.376-1.175-0.608-1.784-0.863
		c-0.574-0.25-1.208-0.297-1.794-0.507c-0.617-0.222-1.271-0.308-1.913-0.426c-0.627-0.123-1.268-0.03-1.901-0.074
		C70.818,97.445,70.393,97.491,69.973,97.555 M100.969,101.899c-0.512,0.084-1.019,0.194-1.525,0.308
		c-0.513,0.103-0.974,0.364-1.441,0.59c-0.726,0.411-1.507,0.735-2.145,1.287c-0.715,0.509-1.3,1.165-1.993,1.7
		c-0.657,0.54-1.271,1.137-1.79,1.813c-0.274,0.365-0.606,0.682-0.887,1.042c-0.534,0.655-0.97,1.378-1.427,2.088
		c-0.483,0.775-1.008,1.527-1.447,2.33c-0.391,0.787-0.709,1.608-1.002,2.437c-0.467,0.972-0.584,2.054-0.829,3.092
		c-0.27,1.066-0.215,2.182-0.077,3.264c0.074,0.47,0.038,0.961,0.22,1.41c0.11,0.288,0.195,0.593,0.379,0.848
		c0.331,0.457,0.595,0.974,1.027,1.352c0.56,0.437,1.253,0.648,1.928,0.84c1.126,0.219,2.282,0.034,3.407-0.108
		c1.522-0.251,3.015-0.706,4.408-1.373c3.114-1.461,5.751-3.948,7.329-7.012c0.881-1.729,1.513-3.602,1.724-5.536
		c0.231-2.187,0.113-4.435-0.575-6.535c-0.204-0.82-0.501-1.634-1.043-2.296c-0.41-0.563-0.96-1.057-1.641-1.254
		C102.747,101.853,101.841,101.75,100.969,101.899 M39.992,103.624c-0.747,0.162-1.482,0.479-2.022,1.035
		c-0.396,0.309-0.714,0.705-0.958,1.144c-0.682,1.465-0.833,3.11-0.836,4.707c0.021,0.646,0.083,1.29,0.125,1.935
		c0.415,3.214,1.798,6.311,3.988,8.707c0.72,0.805,1.506,1.56,2.402,2.168c0.973,0.743,2.034,1.378,3.177,1.823
		c1.05,0.479,2.155,0.847,3.298,1.023c0.587,0.095,1.169,0.252,1.768,0.248c0.758,0.01,1.551,0.017,2.258-0.295
		c0.228-0.093,0.465-0.163,0.684-0.28c0.688-0.515,1.189-1.223,1.698-1.904c0.172-0.302,0.211-0.657,0.319-0.983
		c0.144-0.427,0.092-0.884,0.173-1.32c0.097-0.512,0.044-1.03,0.048-1.547c0.012-0.503-0.187-0.975-0.294-1.458
		c-0.126-0.557-0.237-1.115-0.357-1.673c-0.104-0.537-0.38-1.017-0.574-1.523c-0.233-0.617-0.688-1.118-0.894-1.748
		c-0.442-0.921-0.996-1.784-1.59-2.61c-0.736-1.148-1.84-1.99-2.653-3.075c-0.43-0.45-0.9-0.858-1.367-1.267
		c-0.603-0.382-1.08-0.938-1.719-1.269c-0.667-0.36-1.305-0.773-1.987-1.102c-0.968-0.315-1.93-0.777-2.971-0.724
		C41.136,103.627,40.562,103.525,39.992,103.624 M70.497,125.954c-0.642,0.033-1.287,0.007-1.926,0.094
		c-1.054,0.083-2.075,0.371-3.121,0.51c-0.915,0.182-1.836,0.39-2.681,0.798c-0.379,0.165-0.786,0.25-1.163,0.42
		c-0.924,0.532-1.873,1.072-2.59,1.879c-0.233,0.347-0.387,0.743-0.481,1.149c-0.037,0.563,0.219,1.097,0.55,1.537
		c1.379,1.795,3.193,3.229,5.183,4.297c1.877,0.916,3.916,1.548,6.012,1.668c1.895,0.104,3.821-0.06,5.635-0.639
		c1.65-0.508,3.213-1.3,4.601-2.326c1.404-0.983,2.579-2.255,3.593-3.628c0.412-0.532,0.49-1.256,0.352-1.897
		c-0.088-0.456-0.503-0.722-0.785-1.053c-0.358-0.45-0.86-0.764-1.38-0.995c-0.785-0.252-1.519-0.646-2.32-0.852
		c-0.412-0.113-0.808-0.276-1.226-0.367c-0.848-0.182-1.714-0.253-2.564-0.411c-0.647-0.127-1.312-0.072-1.961-0.186
		C72.991,125.764,71.735,125.837,70.497,125.954z"/>
	<path fill="#010202" d="M108.927,60.227 M109.639,64.897"/>
</g>
<g id="_x23_60b22eff">
	<path fill="#61B231" d="M50.452,26.801c1.583,0.48,2.973,1.447,4.177,2.563c0.119,0.119,0.28,0.174,0.437,0.225
		c0.242-0.388,0.491-0.816,0.45-1.292c-0.004-0.34-0.226-0.618-0.435-0.862c1.432,0.656,2.528,1.849,3.474,3.076
		c0.255-0.122,0.516-0.276,0.638-0.543c0.277-0.527,0.15-1.143-0.001-1.686c1.534,1.108,2.708,2.621,3.87,4.095
		c0.403-0.514,0.634-1.157,0.635-1.811c1.501,1.326,2.713,2.96,3.618,4.743c0.747,1.455,1.317,3.002,1.66,4.602
		c0.28,1.37,0.164,2.846-0.478,4.103c-0.714,1.414-2.025,2.453-3.463,3.064c-1.196-1.075-2.489-2.038-3.806-2.96
		c-2.301-1.596-4.724-3.011-7.208-4.303c-3.365-1.739-6.842-3.263-10.411-4.528c-0.75-0.255-1.497-0.522-2.26-0.731
		c2.993,1.435,5.871,3.101,8.676,4.87c2.712,1.722,5.357,3.557,7.858,5.576c1.536,1.243,3.018,2.557,4.363,4.003
		c0.188,0.222,0.4,0.423,0.56,0.666c-0.327,1.4-1.032,2.728-2.076,3.726c-0.746,0.733-1.653,1.285-2.616,1.685
		c-1.984,0.801-4.08,1.32-6.202,1.575c-1.233,0.127-2.487,0.171-3.711-0.05c0.647-0.276,1.493-0.583,1.629-1.373
		c-0.297-0.103-0.589-0.248-0.907-0.262c-1.814-0.043-3.669-0.222-5.358-0.93c0.715-0.095,1.468-0.342,1.889-0.97
		c-0.246-0.238-0.594-0.272-0.908-0.36c-0.856-0.228-1.706-0.485-2.542-0.778c-0.774-0.281-1.554-0.586-2.229-1.071
		c0.803,0.087,1.711,0.006,2.314-0.595c-0.365-0.29-0.822-0.413-1.23-0.625c-1.506-0.728-2.993-1.559-4.223-2.708
		c0.798,0.238,1.69,0.193,2.413-0.241c-0.211-0.325-0.585-0.464-0.893-0.676c-1.269-0.822-2.484-1.747-3.507-2.866
		c0.783,0.123,1.712,0.302,2.377-0.254c-1.403-1.194-2.796-2.436-3.877-3.939c0.851,0.354,1.813,0.429,2.691,0.129
		c-0.042-0.189-0.085-0.377-0.126-0.565c-1.287-0.972-2.646-2.006-3.349-3.501c0.813,0.224,1.667,0.205,2.502,0.19
		c-0.459-1.572-1.127-3.118-2.223-4.357c1.872,0.218,3.775,0.174,5.64-0.095c-0.475-0.521-0.949-1.053-1.528-1.461
		c1.614-0.391,3.3-0.128,4.873,0.322c0.458,0.119,0.906,0.391,1.391,0.244c0.084-0.298,0.112-0.624-0.036-0.907
		c-0.205-0.487-0.703-0.724-1.139-0.962c1.665-0.004,3.254,0.573,4.8,1.124c0.165,0.059,0.338,0.003,0.506-0.004
		c0.021-0.271,0.063-0.563-0.066-0.815c-0.284-0.584-0.848-0.953-1.378-1.293c1.812,0.287,3.576,0.931,5.107,1.949
		c0.268,0.191,0.458-0.205,0.538-0.41C51.528,27.819,50.92,27.253,50.452,26.801z"/>
	<path fill="#61B231" d="M88.744,29.358c1.204-1.112,2.591-2.077,4.172-2.559c-0.354,0.346-0.739,0.7-0.892,1.185
		c-0.112,0.346-0.007,0.747,0.27,0.984c0.103,0.093,0.223,0.007,0.317-0.05c1.512-1.007,3.262-1.63,5.051-1.916
		c-0.529,0.339-1.092,0.706-1.375,1.29c-0.132,0.252-0.091,0.544-0.07,0.816c0.179,0.015,0.368,0.067,0.543-0.004
		c1.533-0.554,3.114-1.116,4.766-1.114c-0.437,0.238-0.937,0.475-1.142,0.961c-0.148,0.284-0.117,0.607-0.037,0.905
		c0.199,0.021,0.405,0.088,0.604,0.012c1.805-0.612,3.772-1.025,5.664-0.575c-0.58,0.407-1.053,0.942-1.53,1.461
		c1.865,0.272,3.771,0.313,5.643,0.097c-1.099,1.237-1.764,2.784-2.225,4.356c0.836,0.016,1.689,0.031,2.505-0.189
		c-0.709,1.493-2.063,2.53-3.352,3.501c-0.041,0.19-0.083,0.38-0.12,0.571c0.878,0.291,1.838,0.222,2.688-0.136
		c-1.083,1.503-2.476,2.745-3.878,3.942c0.664,0.556,1.593,0.376,2.377,0.254c-1.025,1.117-2.238,2.043-3.507,2.866
		c-0.308,0.211-0.68,0.352-0.896,0.673c0.723,0.438,1.616,0.482,2.414,0.244c-1.244,1.164-2.751,1.998-4.276,2.733
		c-0.392,0.2-0.827,0.323-1.179,0.599c0.601,0.603,1.513,0.684,2.317,0.597c-1.315,0.895-2.884,1.292-4.387,1.747
		c-0.431,0.151-0.933,0.15-1.292,0.461c0.417,0.63,1.172,0.876,1.887,0.972c-1.688,0.709-3.543,0.886-5.356,0.93
		c-0.32,0.013-0.611,0.159-0.908,0.262c0.134,0.791,0.982,1.097,1.63,1.372c-1.929,0.332-3.903,0.091-5.807-0.29
		c-1.692-0.369-3.384-0.841-4.936-1.625c-1.949-0.997-3.396-2.886-3.863-5.022c0.254-0.356,0.565-0.667,0.863-0.988
		c2.507-2.597,5.383-4.806,8.332-6.875c3.909-2.703,7.986-5.181,12.265-7.255c-3.296,0.999-6.492,2.31-9.615,3.757
		c-3.51,1.645-6.922,3.511-10.119,5.706c-1.371,0.953-2.715,1.952-3.958,3.065c-1.415-0.607-2.711-1.618-3.429-3.003
		c-0.667-1.267-0.795-2.768-0.512-4.159c0.339-1.58,0.899-3.109,1.633-4.549c0.91-1.803,2.126-3.463,3.648-4.798
		c-0.002,0.653,0.231,1.293,0.631,1.808c1.165-1.473,2.339-2.987,3.874-4.095c-0.157,0.544-0.281,1.161-0.002,1.688
		c0.124,0.267,0.382,0.424,0.64,0.541c0.943-1.228,2.04-2.418,3.472-3.073c-0.211,0.244-0.433,0.521-0.435,0.861
		c-0.041,0.475,0.208,0.903,0.449,1.291C88.46,29.538,88.623,29.479,88.744,29.358z"/>
</g>
<g id="_x23_d6264fff">
	<path fill="#D62750" d="M69.888,57.033c1.875-0.129,3.79,0.046,5.577,0.647c1.269,0.335,2.424,0.972,3.551,1.626
		c0.883,0.555,1.679,1.233,2.447,1.937c0.58,0.602,1.168,1.213,1.564,1.958c0.265,0.579,0.412,1.214,0.426,1.85
		c0.068,0.935-0.499,1.756-1.063,2.447c-0.43,0.587-0.956,1.128-1.622,1.444c-1.423,0.746-2.865,1.581-4.496,1.749
		c-0.633,0.044-1.225,0.29-1.853,0.362c-1.115,0.143-2.247,0.227-3.365,0.082c-0.935-0.039-1.876,0.007-2.804-0.144
		c-1.724-0.3-3.418-0.802-5.004-1.546c-1.035-0.493-2.034-1.092-2.864-1.889c-0.321-0.312-0.541-0.707-0.744-1.1
		c-0.174-0.354-0.456-0.661-0.532-1.058c-0.104-0.498-0.166-1.022-0.034-1.521c0.1-0.407,0.162-0.839,0.393-1.199
		c0.792-1.315,2.021-2.287,3.266-3.147C64.857,58.118,67.338,57.214,69.888,57.033z"/>
	<path fill="#D62750" d="M48.335,60.254c1.626-0.536,3.349-0.756,5.058-0.677c1.072,0.002,2.134,0.193,3.171,0.458
		c0.251,0.051,0.351,0.297,0.424,0.514c-0.274,0.503-0.39,1.089-0.748,1.546c-0.185,0.25-0.372,0.5-0.583,0.729
		c-0.329,0.352-0.547,0.789-0.876,1.142c-0.443,0.469-0.846,0.978-1.328,1.409c-1.417,1.277-2.753,2.646-4.231,3.857
		c-1.126,0.959-2.331,1.821-3.472,2.761c-1.009,0.768-2.018,1.56-3.167,2.11c-0.774,0.467-1.484,1.07-2.356,1.355
		c-0.387,0.117-0.752,0.287-1.12,0.449c-0.377,0.178-0.822,0.118-1.198-0.028c-0.104-0.187-0.086-0.421-0.112-0.63
		c-0.114-2.942,0.648-5.909,2.159-8.436c0.811-1.289,1.775-2.489,2.917-3.501C44.444,61.916,46.32,60.858,48.335,60.254z"/>
	<path fill="#D62750" d="M85.22,60.055c1.69-0.443,3.458-0.539,5.196-0.404c1.51,0.12,2.987,0.518,4.385,1.096
		c1.195,0.451,2.262,1.166,3.305,1.891c0.839,0.618,1.542,1.39,2.264,2.133c1.494,1.75,2.587,3.838,3.17,6.066
		c0.131,0.617,0.254,1.237,0.366,1.858c0.093,0.909,0.152,1.823,0.105,2.737c-0.019,0.28,0.006,0.603-0.202,0.822
		c-0.206,0.077-0.438,0.026-0.652,0.034c-0.659,0.001-1.132-0.537-1.74-0.704c-1.084-0.382-1.906-1.223-2.921-1.731
		c-0.975-0.581-1.868-1.29-2.707-2.051c-0.168-0.156-0.349-0.297-0.541-0.421c-1.259-0.788-2.373-1.776-3.446-2.796
		c-0.592-0.52-1.194-1.031-1.725-1.617c-0.511-0.576-1.12-1.051-1.646-1.611c-0.348-0.356-0.645-0.756-1.004-1.098
		c-0.506-0.496-0.954-1.046-1.392-1.602c-0.63-0.654-1.167-1.488-1.177-2.426C84.975,60.166,85.088,60.088,85.22,60.055z"/>
	<path fill="#D62750" d="M83.596,71.706c0.625-0.099,1.259-0.053,1.89-0.063c0.693-0.03,1.362,0.179,2.04,0.284
		c0.664,0.109,1.277,0.402,1.917,0.597c0.553,0.162,1.041,0.478,1.552,0.736c0.948,0.469,1.806,1.102,2.614,1.78
		c1.283,1.036,2.349,2.318,3.277,3.676c0.672,1.122,1.303,2.275,1.735,3.513c0.449,1.446,0.864,2.921,0.913,4.443
		c0.12,1.893-0.16,3.806-0.817,5.583c-0.242,0.542-0.425,1.117-0.768,1.608c-0.264,0.382-0.469,0.806-0.779,1.154
		c-0.326,0.377-0.606,0.798-0.995,1.115c-0.435,0.359-0.828,0.77-1.309,1.069c-0.443,0.272-0.878,0.569-1.378,0.729
		c-0.506,0.163-0.956,0.475-1.484,0.572c-0.453,0.09-0.891,0.247-1.345,0.326c-0.404,0.053-0.81,0.085-1.213,0.125
		c-0.656,0.054-1.287-0.177-1.937-0.21c-0.738-0.006-1.435-0.272-2.153-0.409c-0.688-0.128-1.278-0.522-1.895-0.829
		c-1.305-0.651-2.604-1.388-3.609-2.465c-0.688-0.751-1.456-1.427-2.071-2.245c-0.62-0.683-0.975-1.545-1.419-2.343
		c-0.359-0.855-0.857-1.647-1.169-2.523c-0.214-0.737-0.37-1.488-0.546-2.235c-0.133-0.927-0.104-1.866-0.208-2.796
		c0.003-1.152,0.161-2.303,0.45-3.418c0.304-1.021,0.662-2.044,1.273-2.926c0.34-0.51,0.657-1.036,1.028-1.524
		c0.445-0.49,0.947-0.924,1.438-1.368c1.011-0.695,2.123-1.242,3.284-1.641C82.458,71.853,83.029,71.783,83.596,71.706z"/>
	<path fill="#D62750" d="M56.609,72.144c3.094-0.339,6.318,0.694,8.61,2.807c1.252,1.136,2.202,2.6,2.743,4.202
		c0.825,1.887,1.025,4.007,0.783,6.041c-0.136,0.801-0.235,1.609-0.378,2.409c-0.203,0.635-0.338,1.295-0.626,1.9
		c-0.603,1.54-1.466,2.982-2.538,4.24c-0.293,0.402-0.616,0.779-0.974,1.125c-0.824,0.947-1.836,1.703-2.858,2.422
		c-0.328,0.206-0.686,0.359-1.011,0.571c-0.443,0.293-0.951,0.457-1.432,0.671c-2.88,1.201-6.246,1.227-9.123,0.004
		c-0.716-0.31-1.387-0.704-2.031-1.139c-0.312-0.245-0.608-0.508-0.922-0.749c-1.33-1.231-2.371-2.775-2.972-4.487
		c-1.312-3.826-0.796-8.153,1.107-11.691c1.311-2.612,3.401-4.795,5.868-6.346C52.591,73.047,54.573,72.351,56.609,72.144z"/>
	<path fill="#D62750" d="M104.505,79.321c0.234-0.09,0.501-0.119,0.727,0.018c1.589,0.772,2.98,1.909,4.185,3.192
		c1.909,2.128,3.181,4.834,3.533,7.676c0.147,1.164,0.185,2.348,0.009,3.511c-0.176,1.838-0.814,3.605-1.665,5.234
		c-0.355,0.6-0.713,1.202-1.161,1.738c-0.438,0.578-0.896,1.149-1.437,1.638c-0.25,0.22-0.663,0.373-0.959,0.157
		c-0.304-0.211-0.632-0.404-0.867-0.696c-0.336-0.369-0.495-0.854-0.781-1.255c-0.537-0.744-0.855-1.617-1.109-2.489
		c-0.194-0.725-0.548-1.396-0.697-2.134c-0.249-0.808-0.312-1.655-0.533-2.468c-0.184-1.077-0.4-2.15-0.521-3.236
		c-0.126-1.261-0.384-2.514-0.337-3.789c0.038-0.734-0.056-1.468-0.001-2.201c0.025-0.617,0.154-1.221,0.236-1.831
		c0.122-0.901,0.364-1.794,0.792-2.6C104.047,79.563,104.253,79.384,104.505,79.321z"/>
	<path fill="#D62750" d="M36.557,79.977c0.325-0.087,0.685-0.049,0.931,0.2c0.365,0.47,0.839,0.889,0.985,1.493
		c0.31,0.78,0.418,1.616,0.528,2.442c0.215,2.083,0.224,4.183,0.051,6.27c-0.106,1.265-0.371,2.509-0.631,3.748
		c-0.164,1.358-0.545,2.684-1.053,3.951c-0.25,0.521-0.296,1.116-0.561,1.632c-0.136,0.277-0.265,0.557-0.404,0.833
		c-0.16,0.32-0.462,0.546-0.615,0.871c-0.188,0.401-0.498,0.731-0.803,1.045c-0.379,0.241-0.809,0.496-1.275,0.453
		c-0.714-0.285-1.15-0.954-1.627-1.519c-0.731-0.896-1.275-1.917-1.797-2.943c-0.531-1.238-0.963-2.533-1.121-3.877
		c-0.233-1.302-0.189-2.631-0.043-3.94c0.116-0.925,0.328-1.839,0.65-2.716c0.903-2.823,2.792-5.287,5.18-7.025
		C35.459,80.549,35.955,80.145,36.557,79.977z"/>
	<path fill="#D62750" d="M69.973,97.555c0.419-0.064,0.845-0.11,1.271-0.08c0.633,0.043,1.273-0.049,1.901,0.074
		c0.642,0.118,1.295,0.204,1.913,0.426c0.586,0.21,1.22,0.257,1.794,0.507c0.608,0.255,1.236,0.487,1.784,0.863
		c0.451,0.297,0.917,0.581,1.32,0.942c0.327,0.299,0.694,0.55,1.043,0.821c0.369,0.274,0.63,0.658,0.937,0.993
		c0.266,0.32,0.575,0.614,0.775,0.984c0.216,0.393,0.409,0.803,0.681,1.162c0.369,0.504,0.555,1.105,0.796,1.674
		c0.302,0.731,0.4,1.521,0.511,2.3c0.136,0.754,0.107,1.519,0.097,2.278c-0.018,0.722-0.222,1.42-0.338,2.13
		c-0.064,0.438-0.279,0.83-0.442,1.237c-0.149,0.35-0.263,0.717-0.446,1.052c-0.333,0.593-0.604,1.228-1.05,1.75
		c-0.84,1.192-1.918,2.199-3.097,3.051c-1.619,1.072-3.435,1.865-5.344,2.237c-0.673,0.163-1.369,0.194-2.054,0.288
		c-0.843,0.019-1.696,0.015-2.531-0.123c-1.115-0.134-2.235-0.347-3.27-0.797c-0.55-0.245-1.136-0.407-1.652-0.724
		c-0.579-0.359-1.193-0.666-1.731-1.092c-0.876-0.598-1.579-1.401-2.27-2.194c-0.606-0.773-1.169-1.592-1.548-2.504
		c-0.251-0.488-0.371-1.023-0.565-1.531c-0.139-0.389-0.263-0.785-0.322-1.195c-0.093-0.64-0.244-1.283-0.17-1.935
		c0.063-0.617,0.008-1.242,0.135-1.852c0.107-0.55,0.122-1.123,0.326-1.651c0.126-0.344,0.248-0.688,0.373-1.029
		c0.197-0.535,0.559-0.986,0.791-1.503c0.175-0.391,0.449-0.717,0.683-1.069c0.222-0.331,0.422-0.682,0.709-0.96
		c0.5-0.501,0.975-1.032,1.545-1.454c0.448-0.34,0.887-0.698,1.372-0.985c0.637-0.337,1.258-0.709,1.93-0.974
		c0.658-0.256,1.316-0.517,1.999-0.704C68.525,97.751,69.252,97.664,69.973,97.555z"/>
	<path fill="#D62750" d="M100.969,101.899c0.872-0.149,1.778-0.046,2.599,0.285c0.681,0.197,1.231,0.691,1.641,1.254
		c0.542,0.662,0.839,1.476,1.043,2.296c0.688,2.101,0.806,4.349,0.575,6.535c-0.211,1.935-0.842,3.807-1.724,5.536
		c-1.577,3.063-4.214,5.551-7.329,7.012c-1.393,0.667-2.885,1.122-4.408,1.373c-1.125,0.143-2.281,0.327-3.407,0.108
		c-0.675-0.191-1.369-0.403-1.928-0.84c-0.432-0.378-0.696-0.895-1.027-1.352c-0.184-0.255-0.269-0.56-0.379-0.848
		c-0.182-0.449-0.146-0.94-0.22-1.41c-0.138-1.082-0.193-2.197,0.077-3.264c0.245-1.038,0.362-2.12,0.829-3.092
		c0.293-0.828,0.612-1.649,1.002-2.437c0.439-0.803,0.964-1.555,1.447-2.33c0.457-0.71,0.894-1.433,1.427-2.088
		c0.281-0.36,0.613-0.677,0.887-1.042c0.519-0.677,1.133-1.273,1.79-1.813c0.693-0.535,1.278-1.191,1.993-1.7
		c0.638-0.552,1.419-0.876,2.145-1.287c0.467-0.226,0.928-0.487,1.441-0.59C99.95,102.093,100.457,101.983,100.969,101.899z"/>
	<path fill="#D62750" d="M39.992,103.624c0.57-0.099,1.145,0.004,1.717,0.012c1.042-0.054,2.003,0.408,2.971,0.724
		c0.682,0.328,1.32,0.741,1.987,1.102c0.64,0.33,1.116,0.887,1.719,1.269c0.467,0.408,0.937,0.816,1.367,1.267
		c0.813,1.085,1.917,1.927,2.653,3.075c0.594,0.826,1.148,1.689,1.59,2.61c0.205,0.63,0.66,1.131,0.894,1.748
		c0.194,0.507,0.469,0.986,0.574,1.523c0.121,0.558,0.231,1.116,0.357,1.673c0.108,0.483,0.307,0.955,0.294,1.458
		c-0.004,0.517,0.049,1.035-0.048,1.547c-0.081,0.437-0.029,0.894-0.173,1.32c-0.108,0.326-0.147,0.682-0.319,0.983
		c-0.509,0.682-1.011,1.39-1.698,1.904c-0.218,0.117-0.456,0.188-0.684,0.28c-0.707,0.312-1.5,0.305-2.258,0.295
		c-0.599,0.004-1.181-0.153-1.768-0.248c-1.143-0.177-2.248-0.545-3.298-1.023c-1.143-0.445-2.204-1.08-3.177-1.823
		c-0.896-0.608-1.682-1.363-2.402-2.168c-2.189-2.396-3.573-5.493-3.988-8.707c-0.042-0.645-0.104-1.288-0.125-1.935
		c0.003-1.597,0.154-3.242,0.836-4.707c0.244-0.438,0.562-0.835,0.958-1.144C38.51,104.102,39.245,103.786,39.992,103.624z"/>
	<path fill="#D62750" d="M70.497,125.954c1.238-0.116,2.494-0.189,3.728-0.002c0.649,0.113,1.313,0.059,1.961,0.186
		c0.85,0.158,1.716,0.229,2.564,0.411c0.417,0.091,0.814,0.254,1.226,0.367c0.801,0.206,1.535,0.6,2.32,0.852
		c0.52,0.231,1.022,0.545,1.38,0.995c0.282,0.331,0.696,0.597,0.785,1.053c0.138,0.642,0.06,1.365-0.352,1.897
		c-1.014,1.373-2.189,2.645-3.593,3.628c-1.388,1.026-2.951,1.818-4.601,2.326c-1.814,0.579-3.74,0.742-5.635,0.639
		c-2.096-0.12-4.134-0.752-6.012-1.668c-1.99-1.067-3.804-2.502-5.183-4.297c-0.331-0.44-0.586-0.975-0.55-1.537
		c0.094-0.406,0.249-0.803,0.481-1.149c0.717-0.807,1.666-1.347,2.59-1.879c0.377-0.17,0.784-0.255,1.163-0.42
		c0.844-0.408,1.766-0.616,2.681-0.798c1.046-0.139,2.066-0.427,3.121-0.51C69.21,125.96,69.855,125.987,70.497,125.954z"/>
</g>
<g id="_x23_ffffffff">
	<path fill="#FFFFFF" d="M179.582,45.531c6.504,0.011,13.009,0.006,19.514,0.006c0.034,9.38-0.178,18.767,0.252,28.142
		c9.49-0.011,18.974-0.011,28.463-0.011c-0.011,6.125-0.005,12.245-0.005,18.365c-9.564,0.005-19.135,0.005-28.699,0.011
		c-0.006,9.186-0.006,18.372-0.011,27.557c-6.504-0.012-13.009-0.006-19.514-0.006c0-9.186,0-18.371,0-27.557
		c-9.57,0-19.14,0-28.705-0.005c0-6.12,0-12.246,0-18.365c9.57-0.052,19.152,0.229,28.716-0.247
		C179.582,64.126,179.588,54.826,179.582,45.531z"/>
</g>
<text transform="matrix(1 0 0 1 251.9995 96.8091)" fill="#FFFFFF" font-family="'Impact'" font-size="36">RaspiMJPEG</text>
<g id="_x23_ffffffff_1_">
	<path fill="#FFFFFF" d="M484.856,44.933c6.504,0.011,13.009,0.006,19.513,0.006c0.035,9.38-0.178,18.767,0.253,28.142
		c9.489-0.011,18.974-0.011,28.464-0.011c-0.012,6.125-0.006,12.246-0.006,18.365c-9.564,0.006-19.135,0.006-28.699,0.012
		c-0.006,9.186-0.006,18.372-0.012,27.557c-6.504-0.012-13.009-0.006-19.513-0.006c0-9.186,0-18.371,0-27.557
		c-9.57,0-19.141,0-28.705-0.006c0-6.119,0-12.246,0-18.365c9.57-0.052,19.152,0.229,28.717-0.247
		C484.856,63.528,484.862,54.228,484.856,44.933z"/>
</g>
<g id="_x23_16244dff">
	<path fill="#4B63AC" d="M711.242,47.484c0.747-0.238,1.541-0.147,2.312-0.162c3.648,0.027,7.299-0.04,10.945,0.079
		c1.32,0.302,2.701-0.022,4.037,0.209c0.537,0.145,1.106,0.09,1.646,0.243c0.264,0.071,0.532,0.135,0.799,0.208
		c0.265,0.064,0.537,0.127,0.804,0.199c0.473,0.114,0.937,0.262,1.401,0.411c0.48,0.156,0.96,0.326,1.43,0.517
		c0.255,0.103,0.514,0.189,0.771,0.289c0.341,0.121,0.682,0.251,1.018,0.395c0.336,0.126,0.67,0.263,1.003,0.404
		c0.419,0.155,0.827,0.338,1.238,0.524c0.393,0.159,0.788,0.311,1.176,0.49c0.274,0.099,0.553,0.203,0.83,0.306
		c0.336,0.199,0.662,0.417,0.997,0.62c0.188,0.097,0.382,0.193,0.574,0.29c0.102,0.05,0.303,0.15,0.401,0.201
		c0.539,0.266,1.078,0.531,1.622,0.792c0.623,0.214,1.215,0.512,1.803,0.812c0.268,0.133,0.537,0.265,0.807,0.398
		c0.725,0.386,1.503,0.736,2.072,1.342c1.14,1.449,1.124,3.396,1.028,5.145c-0.217,0.489-0.716,0.809-1.06,1.215
		c-2.329,0.042-4.214-1.543-6.15-2.618c-1.523-0.631-2.859-1.636-4.397-2.236c-1.491-0.701-3.036-1.285-4.548-1.941
		c-1.092-0.246-2.133-0.664-3.222-0.916c-0.984-0.447-2.038-0.765-3.125-0.76c-3.892-0.002-7.783,0.006-11.675,0.014
		c-2.14,0.228-4.291,0.32-6.42,0.646c-3.09,0.61-6.202,1.176-9.183,2.218c-0.672,0.224-1.344,0.442-2.011,0.674
		c-0.749,0.237-1.501,0.473-2.21,0.814c-2.197,0.623-4.293,1.563-6.259,2.718c-1.123,0.402-2.208,0.899-3.292,1.389
		c-0.766,0.439-1.497,0.936-2.296,1.311c-2.248,0.93-4.323,2.264-6.669,2.954c-0.813,0.431-1.713,0.674-2.509,1.139
		c-0.794,0.457-1.679,0.799-2.605,0.817c-0.991-0.012-1.964,0.288-2.957,0.184c-0.438-0.435-0.781-0.948-1.057-1.496
		c-0.316-0.471-0.678-0.905-0.992-1.375c-0.004-0.276-0.004-0.55-0.002-0.823c0.44-0.808,1.351-1.21,2.203-1.434
		c0.992-0.211,1.96-0.517,2.93-0.809c0.095-0.026,0.281-0.078,0.377-0.103c1.201-0.495,2.398-1.008,3.633-1.42
		c2.691-0.739,4.943-2.46,7.452-3.619c0.998-0.475,1.96-1.041,3.007-1.409c0.334-0.144,0.672-0.279,1.016-0.404
		c0.327-0.161,0.656-0.318,0.986-0.479c0.102-0.026,0.303-0.077,0.404-0.103c2.561-1.093,5.17-2.075,7.854-2.825
		c1.163-0.435,2.29-0.953,3.438-1.419c1.209-0.73,2.537-1.233,3.819-1.815c0.448-0.239,0.911-0.458,1.398-0.62
		c0.197-0.066,0.398-0.133,0.599-0.197c1.02-0.432,2.118-0.653,3.21-0.792C710.165,47.53,710.705,47.518,711.242,47.484z"/>
	<path fill="#4B63AC" d="M722.232,65.834c1.396-0.207,2.813-0.213,4.221-0.131c1.445,0.24,2.98,0.196,4.314,0.878
		c1.398,0.545,2.668,1.396,3.831,2.337c1.524,1.444,3.246,2.657,4.832,4.029c1.117,1.085,2.728,1.268,4.146,1.721
		c1.063,0.102,2.14,0.068,3.206,0.014c2.443-0.404,5.182-0.311,7.239,1.232c0.98,0.574,1.488,1.619,1.677,2.702
		c0.212,0.889,0.097,1.813,0.127,2.716c0.088,1.509-0.713,3.083-2.096,3.753c-0.771,0.423-1.684,0.157-2.515,0.305
		c-1.648,0.32-3.401-0.161-4.965,0.6c-0.732,0.352-1.435,0.771-2.205,1.032c-1.02,0.648-2.139,1.12-3.2,1.693
		c-2.943,1.557-6.283,2.021-9.543,2.427c-2.693,0.042-5.389,0.008-8.08,0.016c-1.928-0.292-3.888-0.147-5.833-0.192
		c-0.013,0.131-0.034,0.394-0.046,0.526c-0.465,0.917-1.115,1.721-1.729,2.538c-0.763,0.714-1.3,1.647-2.162,2.257
		c-0.95,0.796-1.974,1.534-2.7,2.559c-1.01,0.854-1.962,1.779-2.868,2.745c-1.313,1.558-2.522,3.257-4.205,4.447
		c-1.846,1.733-3.785,3.378-5.93,4.733c-1.712,1.19-3.599,2.127-5.18,3.501c-1.923,1.285-3.823,2.603-5.772,3.845
		c-1.675,1.038-3.486,1.844-5.114,2.955c-0.467,0.247-0.976,0.407-1.442,0.651c-1.26,0.089-2.525,0.06-3.784-0.016
		c-0.406-0.151-0.813-0.301-1.208-0.471c-1.628-0.706-3.27-1.394-4.824-2.261c-0.521-0.172-1.063-0.251-1.604-0.306
		c-0.799-0.232-1.61-0.427-2.401-0.679c-1.547-0.722-2.499-2.337-2.805-3.971c-0.909-2.257-0.901-4.757-0.556-7.128
		c0.011-1.147,0.859-2.058,1.586-2.856c1.026-0.61,2.005-1.452,3.242-1.559c1.403-0.188,2.803-0.505,4.229-0.407
		c1.102-0.07,2.075,0.527,3.006,1.034c0.896,0.538,1.859,1.043,2.536,1.862c0.701,1.05,1.595,2.177,1.469,3.517
		c-0.548,1.4-1.622,2.525-2.831,3.39c-0.75,0.486-0.817,1.688-0.091,2.23c0.697,0.424,1.566,0.242,2.339,0.206
		c1.183-0.346,2.468-0.443,3.531-1.115c1.54-0.939,3.303-1.441,4.825-2.403c0.829-0.445,1.725-0.77,2.504-1.308
		c0.875-0.629,1.897-1.027,2.725-1.731c1.048-0.851,2.273-1.446,3.329-2.29c1.093-0.688,2.016-1.611,3.112-2.297
		c0.849-0.548,1.69-1.108,2.467-1.756c0.778-0.708,1.755-1.186,2.423-2.019c0.71-0.955,1.632-1.727,2.326-2.694
		c1.326-1.776,2.802-3.456,3.84-5.425c0.09-0.2,0.153-0.412,0.19-0.629c0.334-0.359,0.697-0.687,1.077-0.995
		c-0.537-0.284-1.08-0.556-1.63-0.817c-1.241-0.463-2.37-1.184-3.627-1.615c-0.55-0.173-1.09-0.365-1.615-0.6
		c-1.098-0.193-2.058-0.796-3.141-1.034c-1.196-0.235-2.396-0.468-3.614-0.497c-1.322-0.278-2.683-0.051-4.008-0.315
		c-2.574-0.038-5.156-0.049-7.734,0.013c-0.578,0.232-1.211,0.149-1.815,0.205c-0.86,0.312-1.8,0.021-2.67,0.282
		c-2.189,0.103-4.39,0.125-6.576,0c-1.014-0.2-2.087-0.05-3.061-0.483c-0.218-0.015-0.434-0.029-0.648-0.042
		c-0.282-0.308-0.452-0.685-0.525-1.094c-0.304-1.481-0.038-3.075,0.557-4.451c0.769-0.889,2.044-1.041,3.136-1.235
		c2.214-0.121,4.438,0.016,6.655-0.069c1.585-0.294,3.205-0.048,4.803-0.214c1.532-0.354,3.057-0.748,4.552-1.231
		c2.403-1.119,4.897-2.119,7.536-2.505c0.795-0.083,1.555-0.342,2.337-0.501c2.41-1.179,4.944-2.063,7.441-3.027
		c0.649-0.324,1.331-0.577,1.999-0.863c0.692-0.209,1.354-0.501,2.033-0.748c0.73-0.363,1.461-0.719,2.192-1.075
		c0.607-0.178,1.22-0.338,1.828-0.525c0.195-0.077,0.395-0.151,0.597-0.222c0.382-0.189,0.782-0.336,1.207-0.397
		C718.735,65.95,720.495,65.777,722.232,65.834 M716.272,70.498c-0.209,0.069-0.416,0.133-0.623,0.193l-0.147,0.107
		c-0.106,0.02-0.322,0.063-0.429,0.084c-2.938,1.459-5.627,3.399-8.661,4.66c-0.626,0.423-1.32,0.719-1.982,1.077
		c-1.543,0.965-2.888,2.213-4.103,3.562c-0.416,0.473-0.288,1.117-0.262,1.69c0.283,0.285,0.569,0.571,0.874,0.838
		c0.69,0.095,1.306,0.441,1.976,0.612c1.569,0.421,3.113,0.93,4.662,1.419c3.523,1.132,7.127,2.083,10.823,2.443
		c2.079,0.051,4.163,0.018,6.243,0.016c2.451-0.052,4.783-0.853,7.176-1.282c1.773-0.261,3.456-0.921,5.21-1.267
		c1.144-0.287,2.125-0.966,3.214-1.389c0.752-0.29,1.444-0.715,2.212-0.978c0.51-0.272,1.082-0.347,1.657-0.348
		c0.411-0.369,0.903-0.801,0.869-1.409c-0.088-0.525-0.505-0.878-0.873-1.22c-0.411-0.021-0.82-0.041-1.229-0.072
		c-0.217-0.07-0.434-0.135-0.652-0.197c-1.585-1.052-3.281-1.932-4.821-3.057c-1.672-1.437-3.479-2.714-5.309-3.944
		c-0.579-0.426-1.257-0.667-1.915-0.937c-0.745-0.252-1.504-0.47-2.216-0.803c-0.898-0.228-1.817-0.258-2.734-0.294
		c-1.726-0.279-3.48-0.122-5.216-0.168C718.752,69.916,717.474,70.078,716.272,70.498z"/>
	<path fill="#4B63AC" d="M593.38,67.117c0.173-0.001,0.346,0,0.519,0.002c0.634,0.222,1.317,0.064,1.968,0.165
		c1.062,0.178,2.113,0.437,3.088,0.902c1.826,0.851,3.423,2.228,4.413,3.994c0.704,1.041,1.06,2.272,1.302,3.491
		c0.04,0.696,0.088,1.391,0.186,2.081c-0.296,0.724-0.022,1.535-0.28,2.272c-0.066,0.266-0.131,0.533-0.2,0.799
		c-0.116,0.563-0.354,1.086-0.61,1.596c-0.787,1.704-2.16,3.1-3.794,4.009c-0.909,0.605-1.954,0.954-3.006,1.215
		c-0.33,0.076-0.666,0.129-1,0.187c-0.229,0.067-0.461,0.111-0.698,0.133c-1.857,0.027-3.76,0.13-5.538-0.524
		c-0.34-0.126-0.676-0.266-1.011-0.404c-0.42-0.16-0.824-0.361-1.203-0.604c-1.692-0.998-3.179-2.406-3.998-4.213
		c-0.258-0.507-0.493-1.033-0.609-1.592c-0.178-0.696-0.381-1.396-0.339-2.123c0.049-1.101-0.112-2.224,0.14-3.308
		c0.11-0.473,0.25-0.938,0.393-1.403c0.124-0.338,0.265-0.67,0.411-0.998c0.751-1.551,1.916-2.913,3.396-3.81
		c0.326-0.222,0.666-0.417,1.014-0.6c0.698-0.354,1.431-0.644,2.2-0.805C591.169,67.162,592.307,67.351,593.38,67.117
		 M592.348,68.276c-0.271,0.091-0.55,0.166-0.827,0.238c-0.205,0.064-0.413,0.125-0.62,0.181c-1.693,0.721-2.972,2.171-3.647,3.864
		c-0.064,0.207-0.134,0.412-0.206,0.615c-0.192,0.902-0.471,1.797-0.469,2.727c-0.066,2.057-0.126,4.151,0.471,6.144
		c0.07,0.203,0.137,0.406,0.199,0.613c0.229,0.463,0.455,0.928,0.677,1.395c0.843,1.191,2.024,2.119,3.38,2.656
		c0.214,0.071,0.428,0.146,0.638,0.226c1.132,0.102,2.271,0.121,3.401,0c0.271-0.088,0.545-0.157,0.821-0.228
		c0.259-0.097,0.522-0.181,0.783-0.275c0.284-0.174,0.562-0.36,0.851-0.526c0.623-0.576,1.275-1.137,1.75-1.848
		c0.152-0.338,0.311-0.672,0.476-1.002c0.063-0.205,0.13-0.41,0.202-0.613c0.14-0.61,0.261-1.223,0.421-1.83
		c0.035-0.589,0.054-1.179,0.119-1.764c0.188-0.808,0.189-1.677,0-2.483c-0.064-0.519-0.088-1.041-0.121-1.563
		c-0.099-0.335-0.163-0.678-0.226-1.02c-0.072-0.268-0.137-0.54-0.2-0.809c-0.146-0.334-0.278-0.672-0.404-1.014
		c-0.044-0.107-0.135-0.316-0.182-0.423c-0.438-0.809-1-1.557-1.729-2.129c-0.817-0.6-1.807-0.869-2.771-1.135
		C594.207,68.236,593.275,68.235,592.348,68.276z"/>
	<path fill="#4B63AC" d="M554.048,67.447c1.99-0.006,3.98,0.002,5.97-0.006c0.24,0.64,0.466,1.283,0.68,1.933
		c0.068,0.197,0.138,0.396,0.204,0.595c0.311,0.722,0.552,1.473,0.799,2.218c0.318,0.718,0.556,1.466,0.805,2.21
		c0.317,0.721,0.558,1.471,0.808,2.217c0.07,0.199,0.139,0.4,0.203,0.601c0.317,0.718,0.556,1.47,0.801,2.214
		c0.318,0.721,0.558,1.469,0.805,2.215c0.231,0.529,0.415,1.078,0.646,1.61c0.288-0.435,0.455-0.93,0.649-1.409
		c0.123-0.34,0.256-0.676,0.395-1.008c0.126-0.341,0.262-0.677,0.407-1.008c0.179-0.543,0.379-1.081,0.6-1.608
		c0.127-0.34,0.265-0.674,0.408-1.007c0.18-0.543,0.373-1.082,0.599-1.609c0.13-0.338,0.266-0.674,0.407-1.007
		c0.181-0.543,0.377-1.084,0.604-1.61c0.127-0.337,0.26-0.673,0.396-1.006c0.127-0.339,0.262-0.676,0.406-1.008
		c0.18-0.543,0.382-1.081,0.6-1.61c0.127-0.338,0.265-0.674,0.408-1.006c0.104-0.306,0.214-0.61,0.32-0.913c2.194,0,4.387,0,6.581,0
		c0,0.265,0,0.53,0,0.796c-0.369,0.008-0.734,0.014-1.102,0.029c-0.532,0.139-1.077,0.271-1.524,0.61
		c0.023,5.637,0.002,11.273,0.011,16.909c-0.058,0.457,0.313,0.765,0.669,0.971c0.55,0.026,1.104,0.021,1.651,0.078
		c0.439,0.105,0.259,0.595,0.313,0.922c-2.89,0.017-5.781,0.002-8.671,0.008c0-0.318,0-0.636,0.002-0.955
		c0.713,0.009,1.425-0.019,2.138-0.058c0.158-0.143,0.317-0.286,0.476-0.426c0-5.224,0-10.446,0-15.669l-0.132,0.003
		c-0.121,0.37-0.254,0.736-0.404,1.098c-0.131,0.337-0.266,0.671-0.402,1.007c-0.126,0.34-0.263,0.674-0.407,1.007
		c-0.184,0.543-0.381,1.082-0.607,1.608c-0.127,0.337-0.26,0.672-0.397,1.006c-0.128,0.338-0.263,0.674-0.401,1.008
		c-0.123,0.34-0.261,0.675-0.405,1.006c-0.183,0.544-0.38,1.082-0.607,1.608c-0.127,0.337-0.26,0.673-0.396,1.007
		c-0.127,0.337-0.264,0.672-0.402,1.006c-0.127,0.34-0.264,0.674-0.406,1.008c-0.186,0.541-0.379,1.081-0.605,1.608
		c-0.127,0.338-0.261,0.672-0.397,1.006c-0.127,0.338-0.266,0.674-0.406,1.007c-0.149,0.378-0.222,0.82-0.542,1.101
		c-0.426,0.034-0.854,0.016-1.281,0.017c-0.101-0.305-0.207-0.61-0.304-0.917c-0.32-0.718-0.56-1.469-0.808-2.215
		c-0.316-0.716-0.555-1.467-0.805-2.211c-0.232-0.526-0.422-1.069-0.605-1.614c-0.071-0.199-0.139-0.398-0.203-0.598
		c-0.233-0.527-0.425-1.07-0.604-1.616c-0.071-0.199-0.137-0.398-0.201-0.6c-0.233-0.524-0.423-1.064-0.601-1.61
		c-0.315-0.721-0.557-1.47-0.805-2.213c-0.315-0.723-0.566-1.472-0.792-2.225c-0.163-0.332-0.323-0.667-0.499-0.99
		c-0.036,0.435-0.063,0.872-0.063,1.308c0.007,4.5,0,9,0.003,13.497c-0.061,0.465,0.302,0.789,0.671,0.991
		c0.566,0.088,1.238-0.115,1.723,0.255c0.021,0.249,0.033,0.499,0.039,0.749c-2.094,0.012-4.184,0.014-6.274,0
		c0.055-0.327-0.128-0.815,0.311-0.922c0.545-0.059,1.094-0.059,1.642-0.08c0.161-0.162,0.321-0.323,0.481-0.479
		c0-5.79,0-11.579,0-17.369c-0.154-0.145-0.31-0.292-0.465-0.437c-0.698-0.111-1.395-0.251-2.105-0.246
		C554.045,67.969,554.045,67.708,554.048,67.447z"/>
	<path fill="#4B63AC" d="M610.963,67.444c6.276,0.016,12.557-0.021,18.833,0.016c0.663,1.065,0.862,2.363,1.333,3.521
		c0.067,0.201,0.132,0.399,0.196,0.602c0.052,0.117,0.153,0.351,0.203,0.467c-0.139,0.011-0.418,0.038-0.56,0.05
		c-0.209,0.075-0.418,0.145-0.628,0.216c-0.236-0.395-0.496-0.777-0.737-1.168c-0.598-0.823-1.256-1.6-2.021-2.271
		c-0.552-0.145-1.112-0.246-1.662-0.397c-1.163-0.047-2.329-0.034-3.492-0.021c-0.289-0.01-0.478,0.324-0.418,0.587
		c0.002,5.64,0.004,11.283,0,16.924c-0.108,0.442,0.417,0.564,0.68,0.791c0.922,0.058,1.848,0.07,2.772,0.042
		c0.086,0.31,0.122,0.632,0.154,0.954c-3.483,0.033-6.965,0.004-10.446,0.015c-0.002-0.32,0-0.638,0.002-0.958
		c0.982,0.01,1.965,0.008,2.945-0.054c0.158-0.153,0.315-0.305,0.475-0.459c0-5.749-0.003-11.5,0.002-17.249
		c0.036-0.25-0.049-0.443-0.258-0.581c-1.429-0.06-2.867-0.064-4.272,0.232c-0.212,0.069-0.424,0.132-0.639,0.189
		c-1.352,0.752-2.046,2.21-2.939,3.403c-0.46-0.087-0.917-0.192-1.375-0.284c0.124-0.276,0.246-0.552,0.375-0.825
		c0.119-0.343,0.25-0.68,0.391-1.013c0.129-0.338,0.264-0.674,0.402-1.006c0.123-0.341,0.26-0.672,0.404-1.005
		C610.771,67.92,610.862,67.682,610.963,67.444z"/>
	<path fill="#4B63AC" d="M639.57,67.445c5.349-0.002,10.699,0,16.048,0c-0.002,0.268-0.002,0.538,0,0.806
		c-1.935,0.056-3.889-0.165-5.797,0.222c-0.21,0.221-0.532,0.414-0.483,0.769c-0.013,5.572-0.015,11.144,0,16.716
		c-0.049,0.555,0.604,0.793,1.056,0.821c1.643,0.101,3.29-0.02,4.933,0.054c0.43,0.12,0.256,0.6,0.312,0.929
		c-5.351,0.017-10.703,0.008-16.054,0.004c-0.012-0.273-0.023-0.548-0.034-0.82c2.018-0.429,4.174,0.233,6.164-0.385
		c0.058-0.125,0.179-0.372,0.237-0.496c0.019-5.546,0.005-11.089,0.009-16.635c0.038-0.374-0.251-0.654-0.417-0.958
		c-0.377-0.033-0.757-0.069-1.114-0.192c-1.62-0.068-3.24-0.009-4.86-0.032C639.568,67.981,639.568,67.713,639.57,67.445z"/>
	<path fill="#4B63AC" d="M770.973,67.447c1.994,0.016,3.995-0.042,5.989,0.027c3.81,4.301,7.529,8.678,11.309,13.009
		c0.725,0.792,1.364,1.664,2.163,2.392c0.021-4.668,0-9.336,0.01-14.005c-0.152-0.131-0.302-0.263-0.449-0.395
		c-0.914-0.181-1.84-0.278-2.771-0.225c-0.005-0.269-0.002-0.538,0-0.806c2.683,0,5.365,0,8.049,0c-0.004,0.268-0.004,0.537,0,0.806
		c-0.934-0.059-1.855,0.058-2.771,0.213c-0.267,0.169-0.483,0.39-0.66,0.644c0.021,6.223,0.005,12.442,0.009,18.663
		c-0.447,0-0.893,0-1.335,0c-4.292-5.053-8.601-10.095-12.893-15.147c-0.764-0.808-1.37-1.784-2.25-2.469
		c-0.053,5.206-0.008,10.414-0.021,15.619c-0.062,0.463,0.303,0.783,0.667,0.988c0.817,0.061,1.64,0.028,2.459,0.071
		c0.431,0.119,0.258,0.6,0.314,0.929c-2.753,0.008-5.506,0.026-8.259-0.009c0.033-0.322,0.075-0.643,0.168-0.953
		c0.921,0.035,1.843,0.01,2.762-0.044c0.157-0.158,0.315-0.312,0.479-0.467c0-5.793,0-11.584,0-17.375
		c-0.153-0.146-0.304-0.29-0.453-0.435c-0.833-0.149-1.67-0.281-2.518-0.235C770.969,67.977,770.969,67.713,770.973,67.447z"/>
	<path fill="#4B63AC" d="M717.159,77.048c0.72-0.844,1.682-1.57,2.849-1.529c1.739,0.038,3.497-0.125,5.226,0.161
		c1.356,0.026,2.833,0.214,3.872,1.179c0.375,0.281,0.53,0.727,0.689,1.149c0.272,0.877,0.608,2.123-0.283,2.754
		c-0.964,0.802-2.172,1.457-3.461,1.367c-2.015-0.031-4.029,0-6.041-0.026c-0.672-0.075-1.441-0.094-1.945-0.605
		c-0.03-1.176-0.224-2.342-0.492-3.486C717.426,77.695,717.288,77.372,717.159,77.048z"/>
	<path fill="#4B63AC" d="M721.917,96.099c0.628-0.167,1.235-0.473,1.899-0.46c1.482-0.018,2.966-0.007,4.449-0.013
		c0.455-0.028,0.884,0.142,1.313,0.274c0.193,0.1,0.386,0.204,0.582,0.306c1.086,0.3,2.187,0.553,3.27,0.881
		c0.135,0.138,0.273,0.273,0.414,0.414c0.002,0.111,0.009,0.33,0.013,0.441c-0.15,0.188-0.241,0.432-0.442,0.573
		c-1.584,0.928-3.037,2.116-4.19,3.548c-0.79,0.916-1.18,2.086-1.549,3.215c-0.052,0.804-0.038,1.616-0.203,2.41
		c-0.034,1.677-0.112,3.367,0.157,5.028c-0.057,1.034,0.306,2.266-0.525,3.082c-0.558,0.93-1.504,1.507-2.476,1.921
		c-0.646,0.103-1.287-0.033-1.9-0.222c-0.478-0.27-1.011-0.457-1.438-0.806c-0.435-0.923-0.42-1.964-0.617-2.948
		c-0.167-1.278-0.487-2.546-0.444-3.843c0-3.557-0.018-7.114,0.006-10.669c0.121-0.788,0.477-1.521,0.667-2.296
		C720.982,96.42,721.521,96.306,721.917,96.099z"/>
</g>
</svg>
