<?xml version="1.0" encoding="utf-8"?>
<!-- Generator: Adobe Illustrator 16.0.0, SVG Export Plug-In . SVG Version: 6.00 Build 0)  -->
<!DOCTYPE svg PUBLIC "-//W3C//DTD SVG 1.1//EN" "http://www.w3.org/Graphics/SVG/1.1/DTD/svg11.dtd">
<svg version="1.1" id="Capa_1" xmlns="http://www.w3.org/2000/svg" xmlns:xlink="http://www.w3.org/1999/xlink" x="0px" y="0px"
	 width="1283px" height="395px" viewBox="0 0 1283 395" enable-background="new 0 0 1283 395" xml:space="preserve">
<g id="_x23_16244dff">
	<path fill="#4A63AE" d="M819.42,8.8c3.71-1.18,7.659-0.73,11.489-0.8c18.13,0.13,36.271-0.2,54.391,0.39
		c6.561,1.5,13.42-0.11,20.061,1.04c2.67,0.72,5.5,0.45,8.18,1.21c1.311,0.35,2.65,0.67,3.971,1.03c1.319,0.319,2.67,0.63,4,0.99
		c2.34,0.569,4.649,1.3,6.96,2.04c2.391,0.779,4.771,1.619,7.109,2.569c1.261,0.51,2.551,0.94,3.83,1.431
		c1.689,0.6,3.38,1.25,5.051,1.96c1.67,0.63,3.329,1.31,4.989,2.01c2.08,0.77,4.109,1.68,6.149,2.6c1.95,0.79,3.92,1.55,5.841,2.44
		c1.369,0.49,2.75,1.01,4.13,1.52c1.67,0.99,3.29,2.07,4.949,3.08c0.939,0.48,1.9,0.96,2.859,1.44c0.5,0.25,1.5,0.75,1.99,1
		c2.681,1.319,5.36,2.64,8.061,3.939c3.101,1.061,6.04,2.54,8.96,4.03c1.33,0.66,2.67,1.32,4.011,1.98
		c3.6,1.92,7.47,3.659,10.3,6.67c5.66,7.199,5.58,16.88,5.109,25.569c-1.079,2.431-3.561,4.021-5.271,6.04
		c-11.569,0.21-20.939-7.67-30.56-13.01c-7.57-3.14-14.211-8.13-21.852-11.11c-7.409-3.489-15.09-6.39-22.6-9.649
		c-5.431-1.221-10.601-3.3-16.011-4.55c-4.891-2.221-10.13-3.801-15.529-3.78c-19.34-0.01-38.681,0.03-58.021,0.07
		c-10.63,1.13-21.319,1.59-31.899,3.21C794.71,47.19,779.24,50,764.43,55.18c-3.34,1.11-6.68,2.2-9.989,3.35
		c-3.721,1.181-7.46,2.351-10.979,4.051c-10.92,3.09-21.341,7.76-31.11,13.5c-5.58,2-10.97,4.47-16.359,6.909
		c-3.8,2.181-7.439,4.65-11.409,6.511c-11.171,4.62-21.48,11.25-33.141,14.68c-4.04,2.14-8.511,3.35-12.46,5.66
		c-3.95,2.27-8.351,3.97-12.95,4.06c-4.931-0.06-9.761,1.431-14.7,0.91c-2.17-2.16-3.88-4.71-5.25-7.43
		c-1.569-2.34-3.369-4.5-4.93-6.84c-0.021-1.37-0.021-2.73-0.011-4.09c2.189-4.011,6.71-6.011,10.95-7.12
		c4.93-1.051,9.739-2.57,14.561-4.021c0.47-0.13,1.399-0.39,1.869-0.51c5.971-2.46,11.921-5.01,18.051-7.061
		c13.38-3.67,24.569-12.22,37.04-17.979c4.96-2.36,9.739-5.17,14.939-7c1.66-0.71,3.34-1.39,5.05-2.01c1.62-0.8,3.261-1.58,4.9-2.38
		c0.5-0.131,1.5-0.381,2.01-0.511c12.721-5.43,25.689-10.31,39.03-14.04c5.779-2.159,11.38-4.739,17.09-7.05
		c6.01-3.63,12.601-6.13,18.979-9.02c2.229-1.19,4.529-2.28,6.949-3.08c0.979-0.33,1.979-0.66,2.979-0.98
		c5.061-2.149,10.521-3.25,15.95-3.939C814.07,9.03,816.75,8.97,819.42,8.8z"/>
	<path fill="#4A63AE" d="M874.039,99.99c6.931-1.029,13.979-1.06,20.971-0.649c7.181,1.189,14.811,0.97,21.439,4.36
		c6.95,2.71,13.26,6.939,19.04,11.619c7.58,7.17,16.13,13.2,24.01,20.021c5.551,5.39,13.561,6.3,20.61,8.55
		c5.279,0.51,10.63,0.34,15.93,0.07c12.141-2.01,25.75-1.55,35.979,6.12c4.87,2.85,7.391,8.05,8.33,13.43
		c1.051,4.42,0.479,9.01,0.631,13.5c0.438,7.5-3.541,15.32-10.41,18.65c-3.84,2.1-8.37,0.779-12.5,1.51
		c-8.19,1.59-16.9-0.8-24.67,2.979c-3.641,1.75-7.131,3.83-10.96,5.13c-5.07,3.221-10.631,5.569-15.9,8.409
		c-14.63,7.74-31.229,10.052-47.43,12.062c-13.38,0.21-26.771,0.04-40.15,0.08c-9.58-1.45-19.319-0.729-28.989-0.96
		c-0.061,0.659-0.171,1.96-0.229,2.62c-2.311,4.55-5.54,8.55-8.59,12.608c-3.79,3.551-6.46,8.19-10.74,11.221
		c-4.729,3.96-9.811,7.619-13.42,12.709c-5.021,4.24-9.75,8.842-14.25,13.642c-6.53,7.74-12.54,16.188-20.9,22.101
		c-9.17,8.609-18.81,16.789-29.47,23.529c-8.51,5.91-17.88,10.569-25.74,17.391c-9.55,6.39-19,12.93-28.688,19.109
		c-8.32,5.16-17.32,9.16-25.41,14.68c-2.32,1.23-4.851,2.03-7.17,3.24c-6.261,0.439-12.551,0.29-18.801-0.07
		c-2.021-0.76-4.04-1.5-6.01-2.34c-8.091-3.51-16.25-6.939-23.971-11.24c-2.59-0.85-5.279-1.25-7.97-1.52
		c-3.971-1.15-8-2.119-11.931-3.369c-7.689-3.591-12.42-11.621-13.939-19.74c-4.521-11.211-4.479-23.631-2.76-35.42
		c0.05-5.701,4.27-10.221,7.88-14.189c5.1-3.04,9.96-7.221,16.109-7.75c6.979-0.939,13.931-2.512,21.021-2.03
		c5.479-0.34,10.311,2.62,14.939,5.14c4.449,2.682,9.239,5.19,12.601,9.262c3.489,5.22,7.93,10.818,7.3,17.47
		c-2.72,6.96-8.061,12.55-14.069,16.841c-3.729,2.43-4.061,8.389-0.45,11.09c3.46,2.109,7.779,1.209,11.62,1.029
		c5.88-1.73,12.261-2.21,17.551-5.551c7.648-4.659,16.409-7.159,23.979-11.939c4.12-2.209,8.57-3.819,12.44-6.5
		c4.35-3.129,9.43-5.109,13.54-8.601c5.21-4.229,11.3-7.181,16.54-11.379c5.438-3.421,10.02-8.011,15.47-11.421
		c4.22-2.721,8.399-5.51,12.26-8.721c3.87-3.52,8.721-5.898,12.04-10.029c3.53-4.739,8.11-8.579,11.561-13.391
		c6.591-8.83,13.921-17.17,19.08-26.959c0.449-1,0.761-2.051,0.949-3.131c1.66-1.779,3.461-3.41,5.352-4.939
		c-2.671-1.409-5.37-2.76-8.102-4.061c-6.17-2.3-11.779-5.88-18.02-8.02c-2.73-0.86-5.42-1.82-8.03-2.98
		c-5.45-0.96-10.229-3.96-15.609-5.14c-5.939-1.17-11.899-2.33-17.96-2.471c-6.569-1.38-13.33-0.25-19.91-1.569
		c-12.801-0.181-25.63-0.24-38.439,0.069c-2.87,1.15-6.021,0.74-9.021,1.021c-4.279,1.55-8.949,0.1-13.271,1.399
		c-10.88,0.511-21.811,0.62-32.68,0c-5.04-1-10.37-0.25-15.21-2.399c-1.08-0.08-2.15-0.15-3.222-0.21
		c-1.398-1.53-2.25-3.4-2.608-5.44c-1.511-7.359-0.19-15.279,2.77-22.12c3.812-4.42,10.15-5.17,15.58-6.14
		c11-0.6,22.05,0.08,33.07-0.34c7.88-1.46,15.93-0.24,23.87-1.061c7.608-1.76,15.188-3.72,22.619-6.119
		c11.939-5.561,24.341-10.53,37.449-12.45c3.95-0.41,7.73-1.7,11.61-2.49c11.979-5.86,24.57-10.25,36.979-15.04
		c3.229-1.61,6.619-2.87,9.939-4.29c3.44-1.04,6.73-2.49,10.101-3.72c3.631-1.8,7.261-3.57,10.899-5.34
		c3.021-0.881,6.061-1.681,9.08-2.61c0.97-0.38,1.96-0.75,2.97-1.1c1.892-0.94,3.88-1.671,6-1.971
		C856.659,100.57,865.4,99.71,874.039,99.99 M844.42,123.17c-1.04,0.34-2.07,0.66-3.101,0.96l-0.729,0.53
		c-0.53,0.1-1.601,0.31-2.13,0.42c-14.601,7.25-27.96,16.89-43.04,23.16c-3.11,2.1-6.561,3.569-9.851,5.35
		c-7.67,4.8-14.351,11-20.391,17.7c-2.069,2.35-1.43,5.55-1.3,8.399c1.41,1.42,2.83,2.84,4.34,4.17c3.431,0.471,6.49,2.19,9.82,3.04
		c7.8,2.091,15.47,4.62,23.17,7.051c17.51,5.63,35.42,10.35,53.79,12.14c10.329,0.25,20.68,0.09,31.02,0.08
		c12.181-0.26,23.771-4.24,35.66-6.37c8.811-1.3,17.17-4.58,25.891-6.3c5.681-1.42,10.561-4.8,15.97-6.9
		c3.74-1.439,7.181-3.55,10.99-4.859c2.54-1.351,5.38-1.721,8.239-1.73c2.04-1.83,4.49-3.979,4.32-7
		c-0.439-2.61-2.511-4.36-4.341-6.06c-2.039-0.101-4.079-0.2-6.109-0.36c-1.08-0.35-2.159-0.67-3.239-0.98
		c-7.881-5.229-16.311-9.6-23.96-15.189c-8.311-7.141-17.29-13.49-26.381-19.601c-2.88-2.119-6.25-3.319-9.521-4.659
		c-3.699-1.25-7.47-2.33-11.01-3.99c-4.46-1.13-9.03-1.28-13.59-1.46c-8.57-1.391-17.29-0.61-25.921-0.84
		C856.74,120.28,850.39,121.08,844.42,123.17z"/>
	<path fill="#4A63AE" d="M233.71,106.37c0.859-0.011,1.72,0,2.58,0.01c3.149,1.1,6.54,0.32,9.779,0.82
		c5.271,0.88,10.5,2.17,15.341,4.479c9.079,4.23,17.01,11.07,21.93,19.85c3.5,5.171,5.27,11.29,6.47,17.351
		c0.2,3.46,0.44,6.91,0.92,10.34c-1.47,3.6-0.109,7.63-1.39,11.29c-0.33,1.32-0.65,2.65-1,3.97c-0.57,2.8-1.75,5.4-3.03,7.931
		c-3.91,8.47-10.729,15.409-18.85,19.92c-4.521,3.01-9.71,4.739-14.94,6.04c-1.64,0.38-3.31,0.64-4.97,0.93
		c-1.14,0.33-2.29,0.551-3.47,0.66c-9.23,0.141-18.681,0.648-27.521-2.602c-1.689-0.629-3.359-1.318-5.02-2.01
		c-2.09-0.789-4.101-1.789-5.98-3c-8.41-4.959-15.8-11.95-19.87-20.938c-1.279-2.521-2.45-5.131-3.029-7.91
		c-0.881-3.46-1.891-6.94-1.681-10.55c0.24-5.471-0.56-11.051,0.69-16.44c0.55-2.35,1.24-4.66,1.95-6.97
		c0.619-1.681,1.319-3.33,2.05-4.96c3.729-7.71,9.52-14.471,16.87-18.931c1.62-1.1,3.31-2.069,5.04-2.979
		c3.47-1.76,7.109-3.2,10.93-4C222.72,106.59,228.38,107.53,233.71,106.37 M228.58,112.13c-1.351,0.45-2.73,0.82-4.11,1.18
		c-1.02,0.32-2.05,0.62-3.08,0.9c-8.42,3.58-14.77,10.79-18.13,19.2c-0.32,1.029-0.66,2.05-1.021,3.06
		c-0.96,4.48-2.34,8.93-2.329,13.55c-0.33,10.221-0.631,20.63,2.34,30.53c0.35,1.01,0.68,2.02,0.989,3.05
		c1.141,2.3,2.261,4.61,3.36,6.93c4.19,5.921,10.061,10.531,16.8,13.201c1.061,0.351,2.12,0.721,3.17,1.119
		c5.62,0.51,11.28,0.602,16.9,0c1.34-0.438,2.71-0.779,4.08-1.13c1.29-0.479,2.6-0.899,3.89-1.36c1.41-0.868,2.79-1.789,4.23-2.618
		c3.1-2.86,6.34-5.65,8.7-9.181c0.75-1.68,1.54-3.34,2.359-4.979c0.311-1.021,0.65-2.04,1.01-3.051
		c0.69-3.029,1.29-6.079,2.091-9.09c0.17-2.93,0.26-5.859,0.59-8.77c0.93-4.01,0.939-8.33,0-12.34c-0.32-2.58-0.44-5.17-0.601-7.761
		c-0.489-1.67-0.81-3.369-1.119-5.069c-0.36-1.33-0.681-2.681-1-4.021c-0.721-1.66-1.381-3.34-2.011-5.04
		c-0.22-0.529-0.67-1.569-0.899-2.1c-2.181-4.021-4.971-7.74-8.59-10.58c-4.061-2.98-8.98-4.32-13.771-5.64
		C237.82,111.93,233.19,111.92,228.58,112.13z"/>
	<path fill="#4A63AE" d="M38.25,108.01c9.89-0.03,19.779,0.01,29.67-0.03c1.189,3.181,2.31,6.38,3.37,9.601
		c0.35,0.979,0.689,1.97,1.02,2.96c1.54,3.59,2.74,7.319,3.97,11.02c1.58,3.57,2.761,7.29,4,10.99c1.57,3.58,2.771,7.31,4.011,11.01
		c0.35,0.99,0.689,1.99,1.01,2.99c1.58,3.57,2.76,7.3,3.979,11c1.58,3.58,2.771,7.3,4,11.01c1.15,2.63,2.061,5.36,3.211,8
		c1.43-2.16,2.26-4.62,3.229-7c0.61-1.689,1.271-3.359,1.96-5.01c0.63-1.69,1.3-3.36,2.021-5.01c0.89-2.7,1.88-5.37,2.979-7.99
		c0.63-1.69,1.32-3.35,2.03-5c0.899-2.7,1.859-5.38,2.979-8c0.641-1.68,1.32-3.35,2.021-5c0.899-2.7,1.87-5.39,3-8
		c0.63-1.68,1.29-3.35,1.97-5c0.63-1.69,1.3-3.36,2.021-5.01c0.89-2.7,1.89-5.37,2.979-8c0.63-1.681,1.311-3.351,2.03-5
		c0.51-1.521,1.06-3.03,1.59-4.54c10.9,0,21.8,0,32.7,0c0,1.319,0,2.64,0,3.96c-1.83,0.04-3.65,0.069-5.471,0.149
		c-2.649,0.69-5.35,1.341-7.579,3.03c0.119,28.01,0.01,56.021,0.06,84.03c-0.29,2.27,1.55,3.801,3.32,4.82
		c2.729,0.13,5.479,0.109,8.21,0.39c2.18,0.521,1.279,2.96,1.55,4.58c-14.36,0.09-28.73,0.011-43.09,0.04c0-1.58,0-3.16,0.01-4.74
		c3.54,0.04,7.08-0.1,10.62-0.289c0.79-0.711,1.58-1.421,2.37-2.121c0-25.959,0-51.91,0-77.87l-0.66,0.02
		c-0.601,1.84-1.26,3.66-2.01,5.45c-0.65,1.68-1.32,3.34-2,5.01c-0.62,1.689-1.301,3.35-2.021,5c-0.91,2.7-1.89,5.38-3.02,7.99
		c-0.63,1.68-1.29,3.34-1.971,5c-0.64,1.68-1.31,3.35-2,5.01c-0.609,1.689-1.29,3.35-2.01,5c-0.91,2.7-1.89,5.37-3.02,7.99
		c-0.63,1.67-1.29,3.34-1.971,5c-0.63,1.68-1.31,3.34-2,5c-0.63,1.689-1.31,3.35-2.02,5.01c-0.92,2.689-1.88,5.37-3.01,7.99
		c-0.63,1.68-1.29,3.34-1.971,5c-0.63,1.68-1.319,3.35-2.02,5c-0.74,1.88-1.1,4.079-2.69,5.47c-2.119,0.17-4.25,0.08-6.369,0.09
		c-0.5-1.52-1.03-3.029-1.511-4.56c-1.59-3.57-2.779-7.301-4.01-11.011c-1.58-3.56-2.76-7.29-4-10.989
		c-1.16-2.61-2.1-5.311-3.01-8.021c-0.351-0.99-0.69-1.979-1.01-2.97c-1.16-2.62-2.11-5.32-3-8.03c-0.351-0.99-0.681-1.979-1-2.979
		c-1.16-2.601-2.101-5.29-2.98-8c-1.57-3.58-2.77-7.301-4-11c-1.57-3.591-2.82-7.311-3.94-11.051c-0.81-1.649-1.609-3.31-2.479-4.92
		c-0.18,2.16-0.311,4.33-0.311,6.5c0.03,22.36,0,44.721,0.011,67.07c-0.3,2.311,1.5,3.92,3.33,4.93
		c2.819,0.432,6.159-0.58,8.569,1.262c0.101,1.238,0.16,2.479,0.19,3.72c-10.4,0.06-20.79,0.069-31.18,0
		c0.27-1.62-0.631-4.05,1.54-4.58c2.71-0.29,5.439-0.29,8.159-0.399C49.41,203.18,50.2,202.38,51,201.6c0-28.77,0-57.54,0-86.31
		c-0.771-0.721-1.54-1.45-2.311-2.17c-3.47-0.551-6.93-1.25-10.46-1.221C38.24,110.6,38.24,109.3,38.25,108.01z"/>
	<path fill="#4A63AE" d="M321.09,107.99c31.189,0.08,62.399-0.1,93.59,0.08c3.29,5.29,4.28,11.74,6.62,17.5
		c0.34,0.99,0.66,1.98,0.979,2.99c0.25,0.58,0.76,1.74,1.01,2.32c-0.689,0.06-2.079,0.189-2.779,0.25
		c-1.04,0.37-2.08,0.72-3.12,1.07c-1.18-1.961-2.47-3.86-3.67-5.801c-2.97-4.09-6.24-7.949-10.04-11.29
		c-2.74-0.72-5.53-1.22-8.26-1.97c-5.78-0.24-11.57-0.17-17.351-0.11c-1.439-0.05-2.37,1.61-2.08,2.921
		c0.011,28.029,0.021,56.069,0,84.1c-0.54,2.2,2.07,2.81,3.38,3.931c4.58,0.289,9.181,0.351,13.771,0.209
		c0.43,1.541,0.609,3.142,0.77,4.74C376.6,209.09,359.3,208.95,342,209c-0.011-1.59,0-3.17,0.01-4.76
		c4.88,0.05,9.76,0.039,14.64-0.271c0.78-0.76,1.561-1.52,2.351-2.279c0-28.569-0.011-57.149,0.01-85.721
		c0.18-1.24-0.24-2.2-1.28-2.88c-7.1-0.3-14.25-0.32-21.229,1.149c-1.051,0.341-2.11,0.66-3.171,0.94
		c-6.72,3.74-10.17,10.98-14.609,16.91c-2.29-0.43-4.561-0.95-6.84-1.41c0.62-1.37,1.229-2.74,1.87-4.1
		c0.59-1.7,1.239-3.38,1.939-5.03c0.64-1.68,1.311-3.35,2-5c0.61-1.69,1.29-3.34,2.01-4.99
		C320.13,110.36,320.59,109.17,321.09,107.99z"/>
	<path fill="#4A63AE" d="M463.25,108c26.579-0.011,53.17,0,79.75,0c-0.011,1.33-0.011,2.67,0,4c-9.61,0.279-19.32-0.82-28.811,1.1
		c-1.04,1.101-2.641,2.061-2.4,3.82c-0.06,27.689-0.069,55.38,0,83.07c-0.239,2.76,3,3.939,5.25,4.078
		c8.16,0.5,16.351-0.09,24.511,0.271c2.13,0.6,1.271,2.979,1.55,4.62c-26.59,0.08-53.189,0.04-79.779,0.021
		c-0.061-1.359-0.12-2.721-0.17-4.08c10.021-2.131,20.739,1.16,30.63-1.909c0.29-0.62,0.891-1.851,1.181-2.462
		c0.09-27.56,0.021-55.108,0.04-82.669c0.189-1.859-1.24-3.25-2.07-4.76c-1.87-0.16-3.76-0.34-5.54-0.95
		c-8.05-0.34-16.1-0.05-24.149-0.16C463.24,110.66,463.24,109.33,463.25,108z"/>
	<path fill="#4A63AE" d="M1116.25,108.01c9.909,0.08,19.85-0.21,29.76,0.13c18.93,21.38,37.42,43.13,56.199,64.65
		c3.602,3.939,6.78,8.27,10.75,11.89c0.102-23.2,0-46.4,0.051-69.6c-0.76-0.65-1.5-1.301-2.229-1.96
		c-4.55-0.9-9.149-1.381-13.78-1.12c-0.02-1.34-0.01-2.67,0-4c13.33,0,26.66,0,40,0c-0.02,1.33-0.02,2.66,0,4
		c-4.64-0.29-9.22,0.29-13.77,1.06c-1.32,0.84-2.4,1.94-3.28,3.2c0.11,30.92,0.021,61.83,0.05,92.74c-2.229,0-4.438,0-6.64,0
		c-21.33-25.11-42.74-50.16-64.069-75.271c-3.791-4.02-6.811-8.87-11.181-12.27c-0.261,25.87-0.04,51.75-0.11,77.62
		c-0.3,2.3,1.511,3.89,3.32,4.91c4.061,0.3,8.149,0.14,12.22,0.35c2.141,0.591,1.28,2.979,1.561,4.62
		c-13.681,0.04-27.359,0.13-41.039-0.05c0.159-1.601,0.369-3.19,0.829-4.729c4.58,0.17,9.16,0.049,13.729-0.221
		c0.78-0.779,1.569-1.55,2.38-2.32c0-28.79,0-57.57,0-86.35c-0.76-0.721-1.51-1.44-2.25-2.16c-4.14-0.74-8.3-1.391-12.51-1.17
		C1116.23,110.64,1116.23,109.33,1116.25,108.01z"/>
	<path fill="#4A63AE" d="M848.829,155.72c3.57-4.19,8.351-7.8,14.15-7.6c8.649,0.189,17.38-0.62,25.97,0.8
		c6.74,0.13,14.08,1.06,19.24,5.859c1.869,1.391,2.64,3.61,3.43,5.711c1.351,4.359,3.021,10.55-1.409,13.689
		c-4.79,3.98-10.79,7.23-17.2,6.79c-10.01-0.15-20.021,0-30.021-0.13c-3.34-0.37-7.16-0.47-9.66-3.01
		c-0.159-5.84-1.119-11.641-2.449-17.32C850.15,158.93,849.47,157.33,848.829,155.72z"/>
	<path fill="#4A63AE" d="M872.47,250.391c3.12-0.83,6.141-2.351,9.439-2.291c7.37-0.09,14.74-0.029,22.109-0.06
		c2.261-0.142,4.391,0.7,6.521,1.358c0.961,0.5,1.92,1.012,2.891,1.521c5.399,1.49,10.87,2.75,16.25,4.37
		c0.67,0.688,1.359,1.37,2.061,2.06c0.01,0.551,0.04,1.641,0.061,2.19c-0.75,0.938-1.2,2.149-2.2,2.851
		c-7.869,4.609-15.09,10.521-20.819,17.64c-3.931,4.551-5.87,10.36-7.7,15.971c-0.26,4-0.189,8.029-1.01,11.979
		c-0.17,8.33-0.561,16.729,0.779,24.99c-0.279,5.139,1.521,11.25-2.609,15.31c-2.771,4.62-7.471,7.489-12.3,9.55
		c-3.21,0.511-6.4-0.17-9.45-1.1c-2.37-1.34-5.021-2.271-7.141-4.01c-2.159-4.58-2.09-9.761-3.069-14.642
		c-0.83-6.358-2.42-12.659-2.21-19.101c0-17.68-0.09-35.35,0.029-53.02c0.601-3.91,2.37-7.561,3.311-11.41
		C867.829,251.99,870.5,251.42,872.47,250.391z"/>
</g>
</svg>
