<?xml version="1.0" encoding="UTF-8" ?>
<!DOCTYPE svg PUBLIC "-//W3C//DTD SVG 1.1//EN" "http://www.w3.org/Graphics/SVG/1.1/DTD/svg11.dtd">
<svg width="1134pt" height="1367pt" viewBox="0 0 1134 1367" version="1.1" xmlns="http://www.w3.org/2000/svg">
<g id="#000000ff">
<path fill="#000000" opacity="1.00" d=" M 272.43 7.80 C 279.18 3.53 286.95 0.52 295.04 0.69 C 308.25 -0.24 320.63 5.46 332.30 10.91 C 340.76 7.59 350.15 6.51 359.08 8.51 C 367.72 10.45 375.59 14.79 383.11 19.35 C 394.91 15.69 408.21 16.83 418.94 23.09 C 428.15 28.53 436.04 35.86 443.72 43.24 C 452.32 42.63 461.13 44.14 468.78 48.20 C 474.77 51.24 479.61 55.98 484.45 60.53 C 507.69 82.84 525.47 110.46 537.81 140.12 C 538.01 140.90 539.42 143.36 539.76 141.01 C 552.10 111.24 569.78 83.44 593.03 61.00 C 597.87 56.44 602.67 51.66 608.59 48.51 C 616.37 44.23 625.41 42.61 634.23 43.24 C 643.40 34.63 652.70 25.51 664.42 20.47 C 674.04 16.50 684.96 16.34 694.87 19.35 C 704.10 13.78 714.01 8.33 725.00 7.63 C 732.04 7.01 739.10 8.40 745.65 10.91 C 753.48 7.08 761.61 3.78 770.08 1.62 C 782.12 -0.76 795.25 0.71 805.54 7.80 C 817.12 5.10 828.96 1.43 840.97 2.96 C 849.98 4.12 858.39 8.34 865.14 14.36 C 876.56 13.32 888.71 13.30 899.10 18.84 C 903.29 20.70 906.53 24.06 910.34 26.48 C 917.59 26.53 924.89 26.30 932.11 27.28 C 942.05 28.58 952.34 30.44 960.83 36.11 C 965.43 39.03 969.25 42.99 972.62 47.25 C 983.31 45.66 994.69 46.41 1004.27 51.82 C 1016.93 58.57 1025.83 71.79 1027.36 86.06 C 1028.45 94.99 1026.56 104.10 1022.52 112.09 C 1028.33 120.50 1031.50 130.79 1030.75 141.05 C 1030.20 151.37 1025.43 160.86 1020.05 169.48 C 1022.88 179.35 1022.72 190.16 1018.78 199.71 C 1015.49 207.99 1009.41 214.65 1004.05 221.61 C 1006.10 231.75 1004.66 242.58 999.74 251.70 C 995.62 259.56 988.83 265.47 982.67 271.70 C 983.05 283.44 978.92 295.33 970.83 303.92 C 963.47 311.55 954.86 317.82 946.26 323.94 C 945.01 333.37 940.85 342.42 934.21 349.27 C 925.07 358.49 913.07 364.09 901.30 369.15 C 898.55 376.70 894.01 383.66 887.81 388.82 C 879.75 395.72 869.32 398.71 859.40 401.86 C 873.03 410.40 885.45 420.80 896.38 432.59 C 911.83 447.38 923.61 465.45 934.09 483.96 C 939.89 496.17 945.67 508.47 949.50 521.47 C 953.58 533.03 955.26 545.22 957.72 557.19 C 959.56 569.39 959.74 581.79 960.10 594.10 C 961.49 598.06 964.01 601.52 965.75 605.34 C 967.66 609.97 972.74 611.70 976.36 614.71 C 991.28 626.61 1005.80 639.35 1017.16 654.80 C 1042.37 686.69 1058.15 726.03 1061.75 766.53 C 1064.30 787.36 1062.29 808.43 1058.80 829.03 C 1056.51 838.94 1054.31 848.91 1050.45 858.36 C 1044.13 877.24 1034.84 895.07 1023.38 911.34 C 1019.63 916.27 1015.77 921.11 1011.96 925.99 C 1010.73 927.43 1010.10 929.22 1009.79 931.08 C 1005.70 951.25 1000.03 971.07 993.45 990.56 C 992.30 999.95 993.02 1009.51 992.01 1018.93 C 990.55 1030.04 989.27 1041.21 986.14 1052.01 C 983.99 1062.51 979.93 1072.46 976.31 1082.51 C 972.83 1091.62 968.28 1100.26 964.00 1109.00 C 957.99 1119.14 952.05 1129.39 944.54 1138.52 C 939.30 1145.90 933.11 1152.48 926.86 1159.00 C 920.77 1165.88 913.47 1171.51 906.64 1177.62 C 883.43 1196.25 856.85 1210.81 828.39 1219.62 C 824.95 1220.75 822.31 1223.32 819.42 1225.38 C 786.69 1249.36 750.97 1269.28 713.28 1284.30 C 709.36 1285.79 707.24 1289.70 704.32 1292.47 C 691.92 1306.52 677.22 1318.32 661.75 1328.80 C 624.98 1352.96 581.16 1367.26 536.97 1366.27 C 524.67 1366.56 512.33 1366.06 500.15 1364.25 C 490.33 1362.28 480.37 1360.77 470.89 1357.45 C 460.84 1354.46 450.90 1351.05 441.39 1346.60 C 431.91 1342.92 423.27 1337.52 414.45 1332.51 C 408.34 1328.77 402.73 1324.28 396.87 1320.17 C 387.92 1313.92 380.01 1306.37 372.04 1298.96 C 368.32 1295.69 365.96 1290.70 361.28 1288.70 C 314.23 1271.31 270.02 1246.37 230.57 1215.40 C 222.59 1210.77 213.43 1208.47 205.59 1203.51 C 195.93 1198.40 186.78 1192.43 178.09 1185.82 C 162.09 1174.81 148.28 1160.92 135.87 1146.05 C 128.92 1138.48 123.53 1129.69 117.85 1121.17 C 110.78 1109.25 103.85 1097.13 99.07 1084.08 C 94.18 1072.51 90.95 1060.35 87.71 1048.25 C 85.73 1040.53 85.48 1032.43 83.10 1024.82 C 71.66 998.43 62.57 971.01 56.02 942.99 C 55.13 939.75 55.09 936.03 52.68 933.44 C 45.72 925.27 39.39 916.58 33.54 907.59 C 28.92 899.43 24.39 891.21 20.14 882.85 C 11.99 864.03 5.38 844.34 2.88 823.91 C 0.05 808.06 0.39 791.88 1.12 775.86 C 2.41 752.36 8.74 729.42 17.66 707.72 C 32.42 672.45 57.21 641.63 87.82 618.82 C 89.69 617.38 91.97 616.21 93.01 613.98 C 95.13 609.79 97.21 605.58 99.42 601.44 C 101.02 598.89 100.37 595.82 100.39 593.01 C 100.21 581.93 100.57 570.82 102.39 559.88 C 104.90 538.16 111.16 516.99 120.04 497.03 C 128.90 476.03 141.98 457.07 156.80 439.85 C 171.10 423.44 187.97 409.36 206.40 397.81 C 192.78 393.41 181.29 382.82 176.68 369.16 C 165.92 364.56 155.13 359.46 146.25 351.68 C 138.21 344.60 133.09 334.50 131.69 323.91 C 123.29 317.99 114.97 311.84 107.71 304.53 C 99.29 295.89 94.88 283.74 95.32 271.73 C 88.81 265.18 81.63 258.88 77.57 250.41 C 73.11 241.51 72.03 231.16 73.89 221.43 C 67.76 213.86 61.08 206.25 58.12 196.77 C 55.21 187.97 55.40 178.36 57.93 169.49 C 52.17 160.32 47.18 150.07 47.13 139.01 C 46.87 129.42 50.03 119.95 55.45 112.09 C 50.11 101.69 48.75 89.27 52.26 78.07 C 56.55 63.68 68.56 51.88 83.11 48.05 C 90.34 45.94 97.95 46.37 105.33 47.25 C 110.71 40.18 117.95 34.47 126.37 31.49 C 139.62 26.96 153.79 26.21 167.68 26.49 C 172.52 22.93 177.22 18.96 183.02 17.00 C 192.47 13.18 202.88 13.56 212.84 14.35 C 221.98 6.04 234.53 1.52 246.88 2.71 C 255.53 3.60 264.01 5.66 272.43 7.80 M 297.48 44.91 C 302.81 50.05 309.72 56.49 307.70 64.70 C 306.79 67.03 304.62 71.53 301.57 69.36 C 284.16 57.78 264.09 50.46 243.48 47.19 C 249.51 51.05 255.93 55.25 259.15 61.90 C 260.63 64.77 260.15 68.09 259.91 71.17 C 258.00 71.26 256.02 71.89 254.15 71.22 C 236.56 64.95 218.48 58.39 199.55 58.44 C 204.51 61.15 210.18 63.85 212.51 69.38 C 214.18 72.61 213.87 76.31 212.91 79.70 C 207.39 81.37 202.29 78.28 197.09 76.93 C 179.20 71.80 160.02 68.82 141.66 73.26 C 148.24 77.91 153.64 83.95 159.03 89.88 C 137.82 92.95 116.17 93.45 94.88 90.97 C 107.34 105.06 114.94 122.65 120.17 140.53 C 110.66 140.70 100.95 140.91 91.70 138.37 C 99.71 155.38 115.16 167.14 129.80 178.20 C 130.27 180.34 130.77 182.48 131.24 184.63 C 121.25 188.04 110.30 187.19 100.63 183.16 C 112.92 200.26 128.77 214.38 144.72 227.97 C 137.16 234.30 126.60 232.26 117.69 230.86 C 129.33 243.59 143.15 254.11 157.58 263.47 C 161.08 265.87 165.33 267.46 167.74 271.15 C 159.51 276.10 149.37 276.60 140.29 273.90 C 154.29 286.96 171.20 296.41 188.33 304.70 C 192.97 307.11 198.17 308.51 202.32 311.81 C 195.47 318.64 185.13 319.57 176.00 318.57 C 183.67 324.09 192.54 327.56 201.35 330.76 C 210.86 334.10 220.52 337.02 230.26 339.62 C 233.83 340.62 237.79 341.00 240.59 343.71 C 235.80 350.85 227.23 353.66 219.10 354.75 C 238.31 362.80 259.41 364.83 280.05 365.32 C 283.67 365.49 286.99 367.14 290.37 368.30 C 288.82 377.29 279.20 380.78 271.84 383.92 C 285.77 386.44 300.03 385.94 314.05 384.49 C 338.20 381.59 362.03 375.68 384.60 366.58 C 395.55 362.02 405.88 355.75 414.36 347.41 C 426.23 336.05 434.25 320.95 437.97 305.03 C 436.16 302.26 433.74 299.97 431.60 297.46 C 416.30 281.00 399.44 266.06 381.98 251.92 C 353.53 228.96 323.44 208.09 292.59 188.50 C 260.67 168.38 227.94 149.43 193.90 133.11 C 202.59 135.49 211.08 138.53 219.61 141.43 C 260.21 155.83 299.76 173.16 338.03 192.94 C 366.29 207.63 393.85 223.73 420.03 241.88 C 435.00 252.37 449.71 263.32 463.31 275.55 C 479.68 268.59 494.59 256.78 502.71 240.70 C 510.01 226.41 511.33 209.62 508.15 194.03 C 504.25 175.84 497.76 158.24 489.27 141.69 C 478.98 121.41 465.20 102.82 448.12 87.74 C 448.11 95.18 445.48 102.49 440.90 108.33 C 427.69 91.57 414.33 74.37 396.88 61.76 C 398.61 67.94 400.05 74.94 396.90 80.93 C 395.50 83.98 392.54 85.74 389.64 87.12 C 378.88 73.16 366.41 59.59 350.12 52.13 C 352.51 54.91 355.03 58.06 355.07 61.93 C 355.53 67.34 352.70 72.21 349.95 76.63 C 348.17 76.04 346.34 75.42 344.99 74.07 C 331.29 61.38 315.49 50.38 297.48 44.91 M 733.04 74.00 C 731.66 75.38 729.81 76.04 728.01 76.63 C 725.27 72.21 722.44 67.35 722.91 61.94 C 722.93 58.07 725.45 54.93 727.85 52.15 C 711.56 59.59 699.09 73.14 688.36 87.10 C 685.43 85.77 682.49 83.98 681.08 80.95 C 677.91 74.96 679.33 67.94 681.11 61.75 C 663.65 74.36 650.30 91.58 637.05 108.33 C 632.50 102.48 629.85 95.20 629.87 87.77 C 612.55 102.95 598.72 121.84 588.37 142.35 C 580.03 158.72 573.65 176.12 569.80 194.09 C 566.57 209.91 568.03 226.98 575.62 241.40 C 583.79 257.15 598.53 268.65 614.62 275.56 C 628.77 262.89 644.06 251.54 659.65 240.70 C 696.01 215.73 734.83 194.50 774.75 175.80 C 810.27 159.33 846.62 144.42 884.12 133.06 C 835.44 156.65 789.07 184.84 744.60 215.58 C 711.06 239.12 678.35 264.24 649.84 293.78 C 646.45 297.42 642.91 300.96 640.02 305.01 C 645.33 329.31 661.79 350.80 683.96 362.14 C 701.61 371.05 720.85 376.41 740.10 380.62 C 761.75 384.95 784.21 387.68 806.15 383.91 C 798.78 380.79 789.13 377.30 787.61 368.31 C 790.98 367.13 794.29 365.48 797.93 365.32 C 818.55 364.82 839.66 362.81 858.86 354.75 C 850.73 353.65 842.14 350.86 837.39 343.69 C 841.47 340.15 847.18 340.17 852.08 338.44 C 869.18 333.27 887.03 328.75 901.99 318.57 C 892.84 319.57 882.46 318.65 875.63 311.78 C 879.63 308.65 884.58 307.26 889.04 304.98 C 906.38 296.62 923.53 287.13 937.67 273.89 C 928.60 276.61 918.44 276.10 910.22 271.13 C 912.67 267.47 916.90 265.86 920.41 263.47 C 934.84 254.11 948.64 243.57 960.30 230.87 C 951.38 232.26 940.81 234.30 933.26 227.98 C 949.21 214.37 965.05 200.24 977.37 183.14 C 967.71 187.22 956.79 188.00 946.80 184.69 C 947.22 182.52 947.70 180.36 948.16 178.20 C 962.82 167.16 978.23 155.36 986.29 138.38 C 977.02 140.89 967.31 140.71 957.80 140.53 C 963.04 122.65 970.61 105.05 983.11 90.98 C 961.81 93.44 940.14 92.98 918.93 89.88 C 924.35 83.98 929.73 77.90 936.33 73.27 C 914.81 68.15 892.43 72.85 871.90 79.81 C 869.65 80.67 867.30 79.92 865.04 79.67 C 864.13 76.28 863.78 72.60 865.46 69.37 C 867.79 63.84 873.47 61.14 878.44 58.44 C 859.65 58.41 841.67 64.81 824.23 71.11 C 822.23 71.92 820.09 71.32 818.05 71.15 C 817.81 68.06 817.34 64.74 818.84 61.87 C 822.06 55.23 828.47 51.05 834.49 47.20 C 814.14 50.45 794.24 57.54 777.04 69.00 C 775.96 69.64 774.60 70.62 773.43 69.56 C 770.28 66.86 769.08 62.30 770.36 58.37 C 772.10 52.85 776.48 48.82 780.50 44.89 C 762.51 50.38 746.73 61.35 733.04 74.00 M 518.56 388.79 C 489.55 390.85 461.34 401.13 437.17 417.19 C 423.02 426.98 409.03 438.04 400.03 452.99 C 397.40 457.08 396.69 461.99 395.55 466.63 C 394.05 472.30 394.75 478.27 395.94 483.93 C 396.80 488.45 400.00 491.94 401.99 495.97 C 404.30 500.44 406.80 504.94 410.45 508.48 C 419.90 517.54 431.25 524.37 443.03 529.97 C 461.07 538.43 480.34 544.15 499.95 547.56 C 510.50 549.27 521.21 548.75 531.84 549.19 C 544.56 550.84 557.44 549.89 570.12 548.26 C 577.26 547.44 584.00 544.65 591.19 544.15 C 609.74 542.23 626.14 532.73 642.33 524.25 C 649.90 520.66 655.89 514.50 660.78 507.82 C 667.20 499.97 673.64 490.62 672.87 479.99 C 672.70 472.75 671.03 465.54 668.02 458.95 C 663.52 450.48 656.82 443.52 650.23 436.68 C 641.49 428.68 632.44 420.96 622.39 414.65 C 609.57 407.21 596.43 399.97 582.00 396.16 C 561.67 389.31 539.89 387.32 518.56 388.79 M 273.40 425.43 C 250.48 432.30 229.15 444.34 211.27 460.23 C 198.29 471.74 187.32 485.40 178.09 500.05 C 160.91 528.79 152.24 562.54 153.53 596.00 C 153.82 598.37 153.62 601.05 154.80 603.17 C 159.08 604.83 164.14 605.51 168.43 603.49 C 172.62 601.64 176.78 599.71 181.18 598.39 C 191.09 595.13 199.16 588.28 207.97 582.96 C 221.04 576.70 232.51 567.69 243.99 558.96 C 256.97 548.26 270.68 538.46 283.49 527.55 C 300.29 513.77 315.49 498.20 331.61 483.67 C 337.10 478.76 341.68 472.98 346.72 467.64 C 350.46 463.64 352.95 458.66 356.69 454.66 C 359.10 452.06 361.22 449.22 363.32 446.38 C 367.39 441.17 368.71 434.51 371.83 428.78 C 371.00 426.32 369.87 423.52 367.01 422.95 C 355.22 419.94 343.14 417.75 330.94 417.74 C 311.50 416.84 291.90 419.34 273.40 425.43 M 692.95 423.16 C 691.45 423.54 690.16 424.42 688.83 425.17 C 688.94 435.83 695.06 445.32 702.22 452.76 C 707.20 459.09 712.29 465.34 718.05 470.98 C 722.14 474.88 725.52 479.43 729.47 483.47 C 735.45 489.84 742.38 495.25 748.19 501.80 C 754.22 508.47 761.07 514.28 767.81 520.19 C 780.02 531.78 792.69 543.04 807.01 551.99 C 809.19 553.40 811.25 555.01 813.16 556.78 C 822.71 565.44 832.87 573.50 843.95 580.11 C 855.50 585.89 864.85 595.46 877.18 599.79 C 884.09 601.70 889.48 607.82 896.97 607.80 C 899.41 607.72 902.05 608.30 904.39 607.42 C 906.76 604.92 906.48 601.25 906.69 598.07 C 907.22 587.67 906.55 577.27 905.49 566.93 C 904.23 559.86 902.83 552.81 901.33 545.79 C 894.70 520.46 882.27 496.70 865.27 476.80 C 857.05 468.34 849.07 459.56 839.52 452.54 C 827.66 444.29 815.53 436.15 801.93 431.03 C 786.03 424.45 769.22 419.93 752.05 418.56 C 732.28 417.04 712.18 418.13 692.95 423.16 M 674.48 555.69 C 668.04 556.58 661.53 557.36 655.30 559.30 C 642.10 563.84 629.45 570.06 617.95 577.97 C 612.36 583.00 606.65 587.95 601.59 593.52 C 597.37 599.07 593.77 605.06 589.90 610.85 C 582.95 620.88 578.88 632.53 575.42 644.14 C 572.13 656.82 570.34 669.92 570.31 683.02 C 571.50 693.59 571.16 704.28 572.68 714.82 C 574.68 723.31 576.46 731.86 578.89 740.24 C 582.44 750.20 588.11 759.21 592.19 768.94 C 597.24 778.01 601.28 787.82 608.34 795.59 C 615.33 804.89 624.07 812.59 631.89 821.13 C 643.32 833.38 658.10 841.76 672.95 849.17 C 679.96 852.65 686.67 857.14 694.50 858.60 C 702.66 860.16 710.59 863.18 718.98 863.25 C 726.37 863.62 733.55 866.26 741.01 865.64 C 745.61 865.18 750.22 864.82 754.81 864.21 C 759.99 863.31 764.96 861.52 770.11 860.51 C 776.12 859.39 781.24 855.84 787.00 853.99 C 792.68 852.18 797.63 848.80 802.67 845.71 C 808.14 842.31 812.62 837.63 817.56 833.55 C 821.98 829.94 825.17 825.15 828.88 820.87 C 832.40 816.90 834.73 812.08 837.74 807.74 C 841.64 802.15 843.72 795.61 846.48 789.44 C 853.95 769.22 857.13 747.46 855.77 725.94 C 855.21 708.63 850.49 691.84 845.39 675.40 C 840.47 661.32 833.29 648.20 825.65 635.44 C 815.09 620.00 802.97 605.41 788.37 593.62 C 779.18 585.91 769.42 578.72 758.64 573.38 C 752.82 570.44 747.28 566.85 740.98 565.00 C 733.70 562.79 726.73 559.46 719.18 558.21 C 711.47 557.01 703.86 554.64 695.98 554.98 C 688.81 555.10 681.60 554.57 674.48 555.69 M 367.52 560.67 C 344.36 563.03 321.81 570.94 302.05 583.20 C 274.00 600.83 250.22 625.67 235.31 655.38 C 213.66 695.62 207.79 744.85 222.71 788.36 C 229.55 807.83 241.40 825.39 256.52 839.39 C 260.10 842.14 263.47 845.13 267.01 847.92 C 274.34 852.86 281.98 857.35 290.12 860.87 C 322.84 874.78 361.12 874.48 393.89 860.83 C 399.36 858.38 405.14 856.52 410.18 853.19 C 413.87 850.78 417.94 849.04 421.67 846.69 C 433.30 838.52 444.81 829.92 454.19 819.15 C 458.26 815.21 461.94 810.92 465.27 806.35 C 477.46 792.03 487.28 775.64 494.13 758.12 C 497.41 751.23 498.95 743.72 501.26 736.50 C 502.89 727.40 504.02 718.22 505.56 709.10 C 508.31 685.98 506.04 661.85 496.65 640.39 C 490.51 622.17 479.70 605.52 465.46 592.60 C 439.39 568.57 402.71 556.81 367.52 560.67 M 912.32 642.31 C 909.45 643.03 907.11 645.06 905.67 647.60 C 900.79 656.76 898.04 666.92 896.65 677.17 C 895.71 684.11 894.24 690.98 893.96 697.99 C 893.34 706.33 894.41 714.68 893.98 723.03 C 893.45 737.52 896.38 751.78 897.82 766.12 C 899.19 778.48 901.65 790.68 903.74 802.93 C 906.26 812.18 906.97 821.81 909.80 831.00 C 911.49 839.39 915.52 847.04 917.73 855.28 C 920.61 865.21 924.24 875.14 930.34 883.59 C 933.59 888.16 935.40 893.67 939.22 897.87 C 941.89 901.19 945.62 903.39 949.08 905.79 C 952.45 908.25 957.15 906.51 959.99 904.00 C 966.14 898.45 971.34 891.96 976.33 885.38 C 981.42 879.27 985.50 872.42 989.54 865.60 C 999.21 847.07 1006.46 826.98 1008.47 806.07 C 1010.46 792.84 1010.04 779.38 1008.36 766.14 C 1004.37 733.81 989.89 703.04 968.18 678.82 C 954.48 664.23 938.66 651.30 920.58 642.51 C 918.02 640.95 914.98 641.28 912.32 642.31 M 139.42 649.76 C 132.58 651.68 126.94 656.28 121.17 660.23 C 94.01 679.99 72.52 708.01 62.25 740.13 C 58.58 750.09 56.16 760.49 54.85 771.02 C 53.19 785.90 52.69 801.02 55.34 815.83 C 57.14 831.12 62.05 845.85 68.09 859.94 C 74.02 871.61 80.21 883.23 88.53 893.41 C 93.95 899.84 98.92 907.44 107.04 910.69 C 112.34 911.18 117.23 908.27 121.54 905.53 C 125.02 901.97 128.53 898.21 130.68 893.65 C 132.41 889.94 135.85 887.39 137.67 883.73 C 139.25 880.60 140.71 877.41 142.26 874.27 C 145.28 868.39 145.80 861.64 148.64 855.70 C 154.42 841.29 158.76 826.21 160.62 810.76 C 163.58 796.66 166.59 782.51 167.80 768.12 C 169.77 744.39 169.67 720.50 167.22 696.81 C 165.97 687.41 164.74 677.90 161.21 669.03 C 159.56 662.16 154.17 657.39 150.01 652.04 C 147.22 649.21 143.12 648.78 139.42 649.76 M 519.53 849.72 C 511.33 850.95 503.05 851.95 495.11 854.42 C 487.35 856.55 479.87 859.52 472.38 862.43 C 464.74 865.45 457.68 869.68 450.43 873.51 C 444.91 876.78 439.92 880.85 434.82 884.71 C 428.34 889.52 422.93 895.56 417.25 901.26 C 413.98 904.43 411.70 908.41 409.18 912.17 C 406.53 916.18 403.41 919.91 401.42 924.33 C 398.78 930.21 394.67 935.35 392.42 941.43 C 391.00 945.32 389.62 949.23 388.19 953.13 C 385.87 959.14 385.70 965.66 384.48 971.92 C 383.03 978.85 383.65 985.97 382.94 992.98 C 382.11 1000.39 383.82 1007.71 384.88 1014.99 C 385.55 1019.65 386.96 1024.16 388.54 1028.58 C 390.75 1034.36 392.11 1040.46 394.97 1046.00 C 399.28 1056.37 405.68 1065.68 412.58 1074.47 C 420.44 1083.50 428.44 1092.63 438.40 1099.45 C 444.52 1104.28 451.50 1107.76 458.09 1111.87 C 463.96 1115.46 470.63 1117.31 476.88 1120.08 C 488.65 1125.21 501.40 1127.64 514.08 1129.16 C 523.58 1130.72 533.27 1130.75 542.87 1130.56 C 550.65 1129.49 558.57 1129.14 566.23 1127.27 C 587.94 1123.04 608.59 1114.02 627.01 1101.83 C 640.42 1092.14 652.68 1080.69 662.23 1067.12 C 667.31 1061.19 670.39 1053.96 674.18 1047.22 C 676.26 1043.40 677.56 1039.24 679.25 1035.26 C 681.10 1030.64 683.55 1026.18 684.28 1021.19 C 685.60 1013.12 687.93 1005.18 688.13 996.96 C 688.25 988.31 688.58 979.61 687.03 971.05 C 685.77 962.20 684.65 953.21 681.21 944.89 C 678.48 938.42 676.36 931.57 672.16 925.85 C 669.07 921.75 666.87 917.10 664.41 912.63 C 662.13 908.42 658.62 905.09 655.59 901.44 C 652.10 897.62 649.13 893.26 644.94 890.14 C 640.96 887.06 636.79 884.20 633.06 880.80 C 628.48 876.68 623.19 873.45 618.06 870.08 C 611.83 865.80 604.69 863.16 597.77 860.26 C 591.24 857.42 584.03 856.88 577.36 854.50 C 570.34 851.97 562.91 850.99 555.61 849.64 C 548.47 848.25 541.18 849.30 533.98 848.81 C 529.14 848.47 524.30 848.99 519.53 849.72 M 872.10 899.13 C 866.27 900.08 860.51 901.34 854.75 902.63 C 848.91 903.79 843.67 906.77 838.36 909.33 C 830.11 914.01 821.21 917.70 813.96 923.98 C 805.83 929.76 799.17 937.23 791.29 943.31 C 783.82 949.45 776.83 956.25 770.93 963.94 C 767.81 968.10 764.03 971.69 760.84 975.79 C 754.77 983.24 749.80 991.47 744.61 999.53 C 739.10 1008.35 733.13 1016.90 728.14 1026.04 C 723.70 1035.00 720.07 1044.34 716.74 1053.76 C 711.43 1064.81 710.10 1077.12 707.31 1088.93 C 704.23 1101.06 704.87 1113.73 706.43 1126.04 C 707.27 1131.38 706.86 1136.98 708.93 1142.08 C 710.19 1145.36 711.15 1148.83 713.25 1151.72 C 717.01 1156.93 720.02 1162.80 724.93 1167.10 C 731.30 1172.08 739.19 1174.48 746.86 1176.65 C 759.67 1179.14 772.82 1177.03 785.62 1175.43 C 802.94 1172.56 819.91 1167.39 835.76 1159.81 C 871.18 1143.18 901.18 1114.89 919.12 1080.05 C 929.14 1060.37 936.32 1039.08 938.72 1017.07 C 941.35 992.20 940.00 966.63 932.18 942.75 C 929.86 933.42 926.48 924.16 920.31 916.64 C 915.66 910.23 909.40 904.61 901.65 902.37 C 892.32 898.60 882.01 897.42 872.10 899.13 M 178.50 918.74 C 170.00 920.59 161.64 924.19 155.50 930.51 C 151.00 934.03 147.38 938.54 144.61 943.52 C 136.85 960.19 135.13 978.89 135.09 997.06 C 135.34 1004.40 136.04 1011.73 136.51 1019.07 C 141.23 1055.61 156.97 1090.84 181.88 1118.09 C 190.07 1127.25 199.01 1135.85 209.20 1142.77 C 220.27 1151.22 232.34 1158.44 245.34 1163.50 C 257.29 1168.94 269.86 1173.14 282.86 1175.14 C 289.54 1176.22 296.16 1178.01 302.97 1177.97 C 311.59 1178.08 320.62 1178.16 328.66 1174.62 C 331.25 1173.56 333.95 1172.75 336.43 1171.43 C 344.25 1165.56 349.96 1157.52 355.75 1149.76 C 357.70 1146.32 358.15 1142.28 359.38 1138.57 C 361.02 1133.72 360.43 1128.53 361.35 1123.56 C 362.45 1117.75 361.85 1111.83 361.89 1105.97 C 362.03 1100.24 359.77 1094.88 358.55 1089.37 C 357.11 1083.05 355.85 1076.69 354.48 1070.35 C 353.29 1064.24 350.16 1058.78 347.95 1053.02 C 345.29 1046.01 340.12 1040.29 337.79 1033.13 C 332.76 1022.67 326.46 1012.86 319.70 1003.44 C 311.33 990.38 298.77 980.81 289.53 968.46 C 284.64 963.36 279.29 958.71 273.98 954.07 C 267.12 949.71 261.70 943.39 254.43 939.63 C 246.84 935.55 239.59 930.84 231.83 927.10 C 220.82 923.52 209.88 918.27 198.03 918.89 C 191.52 918.78 184.99 917.62 178.50 918.74 M 525.49 1172.73 C 518.19 1173.12 510.85 1172.81 503.58 1173.80 C 491.59 1174.75 479.98 1178.03 468.09 1179.59 C 457.68 1181.66 447.19 1184.04 437.59 1188.67 C 433.29 1190.56 428.66 1191.53 424.37 1193.45 C 413.85 1199.50 403.07 1205.64 394.91 1214.82 C 392.26 1218.76 390.50 1223.28 389.43 1227.90 C 389.01 1234.29 391.92 1240.38 395.68 1245.37 C 411.37 1265.80 432.00 1282.13 454.64 1294.26 C 476.00 1304.68 499.19 1311.87 523.02 1313.23 C 544.57 1314.41 566.48 1312.55 587.11 1305.96 C 605.88 1300.18 623.66 1291.17 639.45 1279.50 C 655.41 1268.32 668.77 1253.84 680.31 1238.23 C 684.99 1232.18 685.88 1223.95 684.31 1216.66 C 683.31 1211.46 678.59 1208.46 675.39 1204.68 C 671.32 1199.56 665.60 1195.99 659.69 1193.37 C 650.76 1190.50 642.41 1186.03 633.30 1183.68 C 628.62 1182.39 624.11 1180.53 619.36 1179.50 C 609.72 1177.43 599.87 1176.63 590.19 1174.81 C 582.83 1173.38 575.27 1174.00 567.89 1172.71 C 553.85 1170.57 539.57 1171.40 525.49 1172.73 Z" />
<path fill="#000000" opacity="1.00" d=" M 1037.20 354.21 C 1065.35 350.71 1094.73 362.43 1112.75 384.32 C 1120.89 394.03 1126.86 405.57 1130.01 417.86 C 1132.89 428.29 1132.69 439.26 1132.03 449.96 C 1129.88 469.17 1120.65 487.40 1106.82 500.84 C 1093.45 513.92 1075.68 522.43 1057.09 524.53 C 1040.93 526.42 1024.24 523.67 1009.63 516.51 C 992.96 508.43 979.07 494.77 970.71 478.24 C 962.39 462.01 959.59 443.09 962.61 425.12 C 966.69 399.77 982.98 376.81 1005.45 364.43 C 1015.22 358.97 1026.08 355.49 1037.20 354.21 M 1036.51 368.79 C 1010.04 372.46 986.81 392.41 979.04 417.95 C 973.88 434.29 974.85 452.48 981.80 468.15 C 988.08 482.48 999.23 494.62 1012.99 502.09 C 1027.22 509.92 1044.17 512.56 1060.12 509.57 C 1080.67 505.89 1099.15 492.55 1109.28 474.32 C 1119.84 455.77 1121.30 432.42 1113.23 412.68 C 1106.96 397.03 1094.93 383.79 1079.96 376.04 C 1066.72 369.10 1051.27 366.57 1036.51 368.79 Z" />
<path fill="#000000" opacity="1.00" d=" M 1011.00 392.44 C 1027.67 392.45 1044.34 392.39 1061.01 392.47 C 1068.91 392.49 1077.01 395.72 1081.94 402.05 C 1087.94 409.55 1088.66 420.34 1085.17 429.08 C 1082.98 434.59 1078.12 438.51 1072.79 440.81 C 1077.25 442.28 1081.25 445.29 1083.15 449.68 C 1088.31 460.53 1084.31 473.37 1089.76 484.15 C 1083.06 484.10 1076.37 484.12 1069.68 484.14 C 1066.45 475.07 1068.18 465.09 1065.01 456.03 C 1063.55 451.59 1059.16 448.77 1054.61 448.52 C 1046.81 448.04 1038.99 448.44 1031.19 448.31 C 1031.18 460.25 1031.19 472.18 1031.19 484.12 C 1024.45 484.13 1017.73 484.12 1011.00 484.12 C 1011.00 453.56 1011.00 423.00 1011.00 392.44 M 1031.19 408.13 C 1031.19 416.71 1031.19 425.29 1031.19 433.87 C 1038.81 433.84 1046.44 433.94 1054.06 433.85 C 1058.34 433.82 1063.21 432.44 1065.37 428.41 C 1067.54 424.06 1067.63 418.65 1065.73 414.20 C 1063.90 410.11 1059.24 408.38 1055.04 408.23 C 1047.09 407.97 1039.14 408.20 1031.19 408.13 Z" />
</g>
<g id="#60b22eff">
<path fill="#60b22e" opacity="1.00" d=" M 297.48 44.91 C 315.49 50.38 331.29 61.38 344.99 74.07 C 346.34 75.42 348.17 76.04 349.95 76.63 C 352.70 72.21 355.53 67.34 355.07 61.93 C 355.03 58.06 352.51 54.91 350.12 52.13 C 366.41 59.59 378.88 73.16 389.64 87.12 C 392.54 85.74 395.50 83.98 396.90 80.93 C 400.05 74.94 398.61 67.94 396.88 61.76 C 414.33 74.37 427.69 91.57 440.90 108.33 C 445.48 102.49 448.11 95.18 448.12 87.74 C 465.20 102.82 478.98 121.41 489.27 141.69 C 497.76 158.24 504.25 175.84 508.15 194.03 C 511.33 209.62 510.01 226.41 502.71 240.70 C 494.59 256.78 479.68 268.59 463.31 275.55 C 449.71 263.32 435.00 252.37 420.03 241.88 C 393.85 223.73 366.29 207.63 338.03 192.94 C 299.76 173.16 260.21 155.83 219.61 141.43 C 211.08 138.53 202.59 135.49 193.90 133.11 C 227.94 149.43 260.67 168.38 292.59 188.50 C 323.44 208.09 353.53 228.96 381.98 251.92 C 399.44 266.06 416.30 281.00 431.60 297.46 C 433.74 299.97 436.16 302.26 437.97 305.03 C 434.25 320.95 426.23 336.05 414.36 347.41 C 405.88 355.75 395.55 362.02 384.60 366.58 C 362.03 375.68 338.20 381.59 314.05 384.49 C 300.03 385.94 285.77 386.44 271.84 383.92 C 279.20 380.78 288.82 377.29 290.37 368.30 C 286.99 367.14 283.67 365.49 280.05 365.32 C 259.41 364.83 238.31 362.80 219.10 354.75 C 227.23 353.66 235.80 350.85 240.59 343.71 C 237.79 341.00 233.83 340.62 230.26 339.62 C 220.52 337.02 210.86 334.10 201.35 330.76 C 192.54 327.56 183.67 324.09 176.00 318.57 C 185.13 319.57 195.47 318.64 202.32 311.81 C 198.17 308.51 192.97 307.11 188.33 304.70 C 171.20 296.41 154.29 286.96 140.29 273.90 C 149.37 276.60 159.51 276.10 167.74 271.15 C 165.33 267.46 161.08 265.87 157.58 263.47 C 143.15 254.11 129.33 243.59 117.69 230.86 C 126.60 232.26 137.16 234.30 144.72 227.97 C 128.77 214.38 112.92 200.26 100.63 183.16 C 110.30 187.19 121.25 188.04 131.24 184.63 C 130.77 182.48 130.27 180.34 129.80 178.20 C 115.16 167.14 99.71 155.38 91.70 138.37 C 100.95 140.91 110.66 140.70 120.17 140.53 C 114.94 122.65 107.34 105.06 94.88 90.97 C 116.17 93.45 137.82 92.95 159.03 89.88 C 153.64 83.95 148.24 77.91 141.66 73.26 C 160.02 68.82 179.20 71.80 197.09 76.93 C 202.29 78.28 207.39 81.37 212.91 79.70 C 213.87 76.31 214.18 72.61 212.51 69.38 C 210.18 63.85 204.51 61.15 199.55 58.44 C 218.48 58.39 236.56 64.95 254.15 71.22 C 256.02 71.89 258.00 71.26 259.91 71.17 C 260.15 68.09 260.63 64.77 259.15 61.90 C 255.93 55.25 249.51 51.05 243.48 47.19 C 264.09 50.46 284.16 57.78 301.57 69.36 C 304.62 71.53 306.79 67.03 307.70 64.70 C 309.72 56.49 302.81 50.05 297.48 44.91 Z" />
<path fill="#60b22e" opacity="1.00" d=" M 733.04 74.00 C 746.73 61.35 762.51 50.38 780.50 44.89 C 776.48 48.82 772.10 52.85 770.36 58.37 C 769.08 62.30 770.28 66.86 773.43 69.56 C 774.60 70.62 775.96 69.64 777.04 69.00 C 794.24 57.54 814.14 50.45 834.49 47.20 C 828.47 51.05 822.06 55.23 818.84 61.87 C 817.34 64.74 817.81 68.06 818.05 71.15 C 820.09 71.32 822.23 71.92 824.23 71.11 C 841.67 64.81 859.65 58.41 878.44 58.44 C 873.47 61.14 867.79 63.84 865.46 69.37 C 863.78 72.60 864.13 76.28 865.04 79.67 C 867.30 79.92 869.65 80.67 871.90 79.81 C 892.43 72.85 914.81 68.15 936.33 73.27 C 929.73 77.90 924.35 83.98 918.93 89.88 C 940.14 92.98 961.81 93.44 983.11 90.98 C 970.61 105.05 963.04 122.65 957.80 140.53 C 967.31 140.71 977.02 140.89 986.29 138.38 C 978.23 155.36 962.82 167.16 948.16 178.20 C 947.70 180.36 947.22 182.52 946.80 184.69 C 956.79 188.00 967.71 187.22 977.37 183.14 C 965.05 200.24 949.21 214.37 933.26 227.98 C 940.81 234.30 951.38 232.26 960.30 230.87 C 948.64 243.57 934.84 254.11 920.41 263.47 C 916.90 265.86 912.67 267.47 910.22 271.13 C 918.44 276.10 928.60 276.61 937.67 273.89 C 923.53 287.13 906.38 296.62 889.04 304.98 C 884.58 307.26 879.63 308.65 875.63 311.78 C 882.46 318.65 892.84 319.57 901.99 318.57 C 887.03 328.75 869.18 333.27 852.08 338.44 C 847.18 340.17 841.47 340.15 837.39 343.69 C 842.14 350.86 850.73 353.65 858.86 354.75 C 839.66 362.81 818.55 364.82 797.93 365.32 C 794.29 365.48 790.98 367.13 787.61 368.31 C 789.13 377.30 798.78 380.79 806.15 383.91 C 784.21 387.68 761.75 384.95 740.10 380.62 C 720.85 376.41 701.61 371.05 683.96 362.14 C 661.79 350.80 645.33 329.31 640.02 305.01 C 642.91 300.96 646.45 297.42 649.84 293.78 C 678.35 264.24 711.06 239.12 744.60 215.58 C 789.07 184.84 835.44 156.65 884.12 133.06 C 846.62 144.42 810.27 159.33 774.75 175.80 C 734.83 194.50 696.01 215.73 659.65 240.70 C 644.06 251.54 628.77 262.89 614.62 275.56 C 598.53 268.65 583.79 257.15 575.62 241.40 C 568.03 226.98 566.57 209.91 569.80 194.09 C 573.65 176.12 580.03 158.72 588.37 142.35 C 598.72 121.84 612.55 102.95 629.87 87.77 C 629.85 95.20 632.50 102.48 637.05 108.33 C 650.30 91.58 663.65 74.36 681.11 61.75 C 679.33 67.94 677.91 74.96 681.08 80.95 C 682.49 83.98 685.43 85.77 688.36 87.10 C 699.09 73.14 711.56 59.59 727.85 52.15 C 725.45 54.93 722.93 58.07 722.91 61.94 C 722.44 67.35 725.27 72.21 728.01 76.63 C 729.81 76.04 731.66 75.38 733.04 74.00 Z" />
</g>
<g id="#d6264fff">
<path fill="#d6264f" opacity="1.00" d=" M 518.56 388.79 C 539.89 387.32 561.67 389.31 582.00 396.16 C 596.43 399.97 609.57 407.21 622.39 414.65 C 632.44 420.96 641.49 428.68 650.23 436.68 C 656.82 443.52 663.52 450.48 668.02 458.95 C 671.03 465.54 672.70 472.75 672.87 479.99 C 673.64 490.62 667.20 499.97 660.78 507.82 C 655.89 514.50 649.90 520.66 642.33 524.25 C 626.14 532.73 609.74 542.23 591.19 544.15 C 584.00 544.65 577.26 547.44 570.12 548.26 C 557.44 549.89 544.56 550.84 531.84 549.19 C 521.21 548.75 510.50 549.27 499.95 547.56 C 480.34 544.15 461.07 538.43 443.03 529.97 C 431.25 524.37 419.90 517.54 410.45 508.48 C 406.80 504.94 404.30 500.44 401.99 495.97 C 400.00 491.94 396.80 488.45 395.94 483.93 C 394.75 478.27 394.05 472.30 395.55 466.63 C 396.69 461.99 397.40 457.08 400.03 452.99 C 409.03 438.04 423.02 426.98 437.17 417.19 C 461.34 401.13 489.55 390.85 518.56 388.79 Z" />
<path fill="#d6264f" opacity="1.00" d=" M 273.40 425.43 C 291.90 419.34 311.50 416.84 330.94 417.74 C 343.14 417.75 355.22 419.94 367.01 422.95 C 369.87 423.52 371.00 426.32 371.83 428.78 C 368.71 434.51 367.39 441.17 363.32 446.38 C 361.22 449.22 359.10 452.06 356.69 454.66 C 352.95 458.66 350.46 463.64 346.72 467.64 C 341.68 472.98 337.10 478.76 331.61 483.67 C 315.49 498.20 300.29 513.77 283.49 527.55 C 270.68 538.46 256.97 548.26 243.99 558.96 C 232.51 567.69 221.04 576.70 207.97 582.96 C 199.16 588.28 191.09 595.13 181.18 598.39 C 176.78 599.71 172.62 601.64 168.43 603.49 C 164.14 605.51 159.08 604.83 154.80 603.17 C 153.62 601.05 153.82 598.37 153.53 596.00 C 152.24 562.54 160.91 528.79 178.09 500.05 C 187.32 485.40 198.29 471.74 211.27 460.23 C 229.15 444.34 250.48 432.30 273.40 425.43 Z" />
<path fill="#d6264f" opacity="1.00" d=" M 692.95 423.16 C 712.18 418.13 732.28 417.04 752.05 418.56 C 769.22 419.93 786.03 424.45 801.93 431.03 C 815.53 436.15 827.66 444.29 839.52 452.54 C 849.07 459.56 857.05 468.34 865.27 476.80 C 882.27 496.70 894.70 520.46 901.33 545.79 C 902.83 552.81 904.23 559.86 905.49 566.93 C 906.55 577.27 907.22 587.67 906.69 598.07 C 906.48 601.25 906.76 604.92 904.39 607.42 C 902.05 608.30 899.41 607.72 896.97 607.80 C 889.48 607.82 884.09 601.70 877.18 599.79 C 864.85 595.46 855.50 585.89 843.95 580.11 C 832.87 573.50 822.71 565.44 813.16 556.78 C 811.25 555.01 809.19 553.40 807.01 551.99 C 792.69 543.04 780.02 531.78 767.81 520.19 C 761.07 514.28 754.22 508.47 748.19 501.80 C 742.38 495.25 735.45 489.84 729.47 483.47 C 725.52 479.43 722.14 474.88 718.05 470.98 C 712.29 465.34 707.20 459.09 702.22 452.76 C 695.06 445.32 688.94 435.83 688.83 425.17 C 690.16 424.42 691.45 423.54 692.95 423.16 Z" />
<path fill="#d6264f" opacity="1.00" d=" M 674.48 555.69 C 681.60 554.57 688.81 555.10 695.98 554.98 C 703.86 554.64 711.47 557.01 719.18 558.21 C 726.73 559.46 733.70 562.79 740.98 565.00 C 747.28 566.85 752.82 570.44 758.64 573.38 C 769.42 578.72 779.18 585.91 788.37 593.62 C 802.97 605.41 815.09 620.00 825.65 635.44 C 833.29 648.20 840.47 661.32 845.39 675.40 C 850.49 691.84 855.21 708.63 855.77 725.94 C 857.13 747.46 853.95 769.22 846.48 789.44 C 843.72 795.61 841.64 802.15 837.74 807.74 C 834.73 812.08 832.40 816.90 828.88 820.87 C 825.17 825.15 821.98 829.94 817.56 833.55 C 812.62 837.63 808.14 842.31 802.67 845.71 C 797.63 848.80 792.68 852.18 787.00 853.99 C 781.24 855.84 776.12 859.39 770.11 860.51 C 764.96 861.52 759.99 863.31 754.81 864.21 C 750.22 864.82 745.61 865.18 741.01 865.64 C 733.55 866.26 726.37 863.62 718.98 863.25 C 710.59 863.18 702.66 860.16 694.50 858.60 C 686.67 857.14 679.96 852.65 672.95 849.17 C 658.10 841.76 643.32 833.38 631.89 821.13 C 624.07 812.59 615.33 804.89 608.34 795.59 C 601.28 787.82 597.24 778.01 592.19 768.94 C 588.11 759.21 582.44 750.20 578.89 740.24 C 576.46 731.86 574.68 723.31 572.68 714.82 C 571.16 704.28 571.50 693.59 570.31 683.02 C 570.34 669.92 572.13 656.82 575.42 644.14 C 578.88 632.53 582.95 620.88 589.90 610.85 C 593.77 605.06 597.37 599.07 601.59 593.52 C 606.65 587.95 612.36 583.00 617.95 577.97 C 629.45 570.06 642.10 563.84 655.30 559.30 C 661.53 557.36 668.04 556.58 674.48 555.69 Z" />
<path fill="#d6264f" opacity="1.00" d=" M 367.52 560.67 C 402.71 556.81 439.39 568.57 465.46 592.60 C 479.70 605.52 490.51 622.17 496.65 640.39 C 506.04 661.85 508.31 685.98 505.56 709.10 C 504.02 718.22 502.89 727.40 501.26 736.50 C 498.95 743.72 497.41 751.23 494.13 758.12 C 487.28 775.64 477.46 792.03 465.27 806.35 C 461.94 810.92 458.26 815.21 454.19 819.15 C 444.81 829.92 433.30 838.52 421.67 846.69 C 417.94 849.04 413.87 850.78 410.18 853.19 C 405.14 856.52 399.36 858.38 393.89 860.83 C 361.12 874.48 322.84 874.78 290.12 860.87 C 281.98 857.35 274.34 852.86 267.01 847.92 C 263.47 845.13 260.10 842.14 256.52 839.39 C 241.40 825.39 229.55 807.83 222.71 788.36 C 207.79 744.85 213.66 695.62 235.31 655.38 C 250.22 625.67 274.00 600.83 302.05 583.20 C 321.81 570.94 344.36 563.03 367.52 560.67 Z" />
<path fill="#d6264f" opacity="1.00" d=" M 912.32 642.31 C 914.98 641.28 918.02 640.95 920.58 642.51 C 938.66 651.30 954.48 664.23 968.18 678.82 C 989.89 703.04 1004.37 733.81 1008.36 766.14 C 1010.04 779.38 1010.46 792.84 1008.47 806.07 C 1006.46 826.98 999.21 847.07 989.54 865.60 C 985.50 872.42 981.42 879.27 976.33 885.38 C 971.34 891.96 966.14 898.45 959.99 904.00 C 957.15 906.51 952.45 908.25 949.08 905.79 C 945.62 903.39 941.89 901.19 939.22 897.87 C 935.40 893.67 933.59 888.16 930.34 883.59 C 924.24 875.14 920.61 865.21 917.73 855.28 C 915.52 847.04 911.49 839.39 909.80 831.00 C 906.97 821.81 906.26 812.18 903.74 802.93 C 901.65 790.68 899.19 778.48 897.82 766.12 C 896.38 751.78 893.45 737.52 893.98 723.03 C 894.41 714.68 893.34 706.33 893.96 697.99 C 894.24 690.98 895.71 684.11 896.65 677.17 C 898.04 666.92 900.79 656.76 905.67 647.60 C 907.11 645.06 909.45 643.03 912.32 642.31 Z" />
<path fill="#d6264f" opacity="1.00" d=" M 139.42 649.76 C 143.12 648.78 147.22 649.21 150.01 652.04 C 154.17 657.39 159.56 662.16 161.21 669.03 C 164.74 677.90 165.97 687.41 167.22 696.81 C 169.67 720.50 169.77 744.39 167.80 768.12 C 166.59 782.51 163.58 796.66 160.62 810.76 C 158.76 826.21 154.42 841.29 148.64 855.70 C 145.80 861.64 145.28 868.39 142.26 874.27 C 140.71 877.41 139.25 880.60 137.67 883.73 C 135.85 887.39 132.41 889.94 130.68 893.65 C 128.53 898.21 125.02 901.97 121.54 905.53 C 117.23 908.27 112.34 911.18 107.04 910.69 C 98.92 907.44 93.95 899.84 88.53 893.41 C 80.21 883.23 74.02 871.61 68.09 859.94 C 62.05 845.85 57.14 831.12 55.34 815.83 C 52.69 801.02 53.19 785.90 54.85 771.02 C 56.16 760.49 58.58 750.09 62.25 740.13 C 72.52 708.01 94.01 679.99 121.17 660.23 C 126.94 656.28 132.58 651.68 139.42 649.76 Z" />
<path fill="#d6264f" opacity="1.00" d=" M 519.53 849.72 C 524.30 848.99 529.14 848.47 533.98 848.81 C 541.18 849.30 548.47 848.25 555.61 849.64 C 562.91 850.99 570.34 851.97 577.36 854.50 C 584.03 856.88 591.24 857.42 597.77 860.26 C 604.69 863.16 611.83 865.80 618.06 870.08 C 623.19 873.45 628.48 876.68 633.06 880.80 C 636.79 884.20 640.96 887.06 644.94 890.14 C 649.13 893.26 652.10 897.62 655.59 901.44 C 658.62 905.09 662.13 908.42 664.41 912.63 C 666.87 917.10 669.07 921.75 672.16 925.85 C 676.36 931.57 678.48 938.42 681.21 944.89 C 684.65 953.21 685.77 962.20 687.03 971.05 C 688.58 979.61 688.25 988.31 688.13 996.96 C 687.93 1005.18 685.60 1013.12 684.28 1021.19 C 683.55 1026.18 681.10 1030.64 679.25 1035.26 C 677.56 1039.24 676.26 1043.40 674.18 1047.22 C 670.39 1053.96 667.31 1061.19 662.23 1067.12 C 652.68 1080.69 640.42 1092.14 627.01 1101.83 C 608.59 1114.02 587.94 1123.04 566.23 1127.27 C 558.57 1129.14 550.65 1129.49 542.87 1130.56 C 533.27 1130.75 523.58 1130.72 514.08 1129.16 C 501.40 1127.64 488.65 1125.21 476.88 1120.08 C 470.63 1117.31 463.96 1115.46 458.09 1111.87 C 451.50 1107.76 444.52 1104.28 438.40 1099.45 C 428.44 1092.63 420.44 1083.50 412.58 1074.47 C 405.68 1065.68 399.28 1056.37 394.97 1046.00 C 392.11 1040.46 390.75 1034.36 388.54 1028.58 C 386.96 1024.16 385.55 1019.65 384.88 1014.99 C 383.82 1007.71 382.11 1000.39 382.94 992.98 C 383.65 985.97 383.03 978.85 384.48 971.92 C 385.70 965.66 385.87 959.14 388.19 953.13 C 389.62 949.23 391.00 945.32 392.42 941.43 C 394.67 935.35 398.78 930.21 401.42 924.33 C 403.41 919.91 406.53 916.18 409.18 912.17 C 411.70 908.41 413.98 904.43 417.25 901.26 C 422.93 895.56 428.34 889.52 434.82 884.71 C 439.92 880.85 444.91 876.78 450.43 873.51 C 457.68 869.68 464.74 865.45 472.38 862.43 C 479.87 859.52 487.35 856.55 495.11 854.42 C 503.05 851.95 511.33 850.95 519.53 849.72 Z" />
<path fill="#d6264f" opacity="1.00" d=" M 872.10 899.13 C 882.01 897.42 892.32 898.60 901.65 902.37 C 909.40 904.61 915.66 910.23 920.31 916.64 C 926.48 924.16 929.86 933.42 932.18 942.75 C 940.00 966.63 941.35 992.20 938.72 1017.07 C 936.32 1039.08 929.14 1060.37 919.12 1080.05 C 901.18 1114.89 871.18 1143.18 835.76 1159.81 C 819.91 1167.39 802.94 1172.56 785.62 1175.43 C 772.82 1177.03 759.67 1179.14 746.86 1176.65 C 739.19 1174.48 731.30 1172.08 724.93 1167.10 C 720.02 1162.80 717.01 1156.93 713.25 1151.72 C 711.15 1148.83 710.19 1145.36 708.93 1142.08 C 706.86 1136.98 707.27 1131.38 706.43 1126.04 C 704.87 1113.73 704.23 1101.06 707.31 1088.93 C 710.10 1077.12 711.43 1064.81 716.74 1053.76 C 720.07 1044.34 723.70 1035.00 728.14 1026.04 C 733.13 1016.90 739.10 1008.35 744.61 999.53 C 749.80 991.47 754.77 983.24 760.84 975.79 C 764.03 971.69 767.81 968.10 770.93 963.94 C 776.83 956.25 783.82 949.45 791.29 943.31 C 799.17 937.23 805.83 929.76 813.96 923.98 C 821.21 917.70 830.11 914.01 838.36 909.33 C 843.67 906.77 848.91 903.79 854.75 902.63 C 860.51 901.34 866.27 900.08 872.10 899.13 Z" />
<path fill="#d6264f" opacity="1.00" d=" M 178.50 918.74 C 184.99 917.62 191.52 918.78 198.03 918.89 C 209.88 918.27 220.82 923.52 231.83 927.10 C 239.59 930.84 246.84 935.55 254.43 939.63 C 261.70 943.39 267.12 949.71 273.98 954.07 C 279.29 958.71 284.64 963.36 289.53 968.46 C 298.77 980.81 311.33 990.38 319.70 1003.44 C 326.46 1012.86 332.76 1022.67 337.79 1033.13 C 340.12 1040.29 345.29 1046.01 347.95 1053.02 C 350.16 1058.78 353.29 1064.24 354.48 1070.35 C 355.85 1076.69 357.11 1083.05 358.55 1089.37 C 359.77 1094.88 362.03 1100.24 361.89 1105.97 C 361.85 1111.83 362.45 1117.75 361.35 1123.56 C 360.43 1128.53 361.02 1133.72 359.38 1138.57 C 358.15 1142.28 357.70 1146.32 355.75 1149.76 C 349.96 1157.52 344.25 1165.56 336.43 1171.43 C 333.95 1172.75 331.25 1173.56 328.66 1174.62 C 320.62 1178.16 311.59 1178.08 302.97 1177.97 C 296.16 1178.01 289.54 1176.22 282.86 1175.14 C 269.86 1173.14 257.29 1168.94 245.34 1163.50 C 232.34 1158.44 220.27 1151.22 209.20 1142.77 C 199.01 1135.85 190.07 1127.25 181.88 1118.09 C 156.97 1090.84 141.23 1055.61 136.51 1019.07 C 136.04 1011.73 135.34 1004.40 135.09 997.06 C 135.13 978.89 136.85 960.19 144.61 943.52 C 147.38 938.54 151.00 934.03 155.50 930.51 C 161.64 924.19 170.00 920.59 178.50 918.74 Z" />
<path fill="#d6264f" opacity="1.00" d=" M 525.49 1172.73 C 539.57 1171.40 553.85 1170.57 567.89 1172.71 C 575.27 1174.00 582.83 1173.38 590.19 1174.81 C 599.87 1176.63 609.72 1177.43 619.36 1179.50 C 624.11 1180.53 628.62 1182.39 633.30 1183.68 C 642.41 1186.03 650.76 1190.50 659.69 1193.37 C 665.60 1195.99 671.32 1199.56 675.39 1204.68 C 678.59 1208.46 683.31 1211.46 684.31 1216.66 C 685.88 1223.95 684.99 1232.18 680.31 1238.23 C 668.77 1253.84 655.41 1268.32 639.45 1279.50 C 623.66 1291.17 605.88 1300.18 587.11 1305.96 C 566.48 1312.55 544.57 1314.41 523.02 1313.23 C 499.19 1311.87 476.00 1304.68 454.64 1294.26 C 432.00 1282.13 411.37 1265.80 395.68 1245.37 C 391.92 1240.38 389.01 1234.29 389.43 1227.90 C 390.50 1223.28 392.26 1218.76 394.91 1214.82 C 403.07 1205.64 413.85 1199.50 424.37 1193.45 C 428.66 1191.53 433.29 1190.56 437.59 1188.67 C 447.19 1184.04 457.68 1181.66 468.09 1179.59 C 479.98 1178.03 491.59 1174.75 503.58 1173.80 C 510.85 1172.81 518.19 1173.12 525.49 1172.73 Z" />
</g>
</svg>
