<?xml version="1.0" encoding="UTF-8" ?>
<!DOCTYPE svg PUBLIC "-//W3C//DTD SVG 1.1//EN" "http://www.w3.org/Graphics/SVG/1.1/DTD/svg11.dtd">
<svg width="144pt" height="139pt" viewBox="0 0 144 139" version="1.1" xmlns="http://www.w3.org/2000/svg">
<g id="#ffffffff">
<path fill="#ffffff" opacity="1.00" d=" M 55.00 4.99 C 66.33 5.01 77.66 5.00 88.99 5.00 C 89.05 21.34 88.68 37.69 89.43 54.02 C 105.96 54.00 122.48 54.00 139.01 54.00 C 138.99 64.67 139.00 75.33 139.00 85.99 C 122.34 86.00 105.67 86.00 89.01 86.01 C 89.00 102.01 89.00 118.01 88.99 134.01 C 77.66 133.99 66.33 134.00 55.00 134.00 C 55.00 118.00 55.00 102.00 55.00 86.00 C 38.33 86.00 21.66 86.00 5.00 85.99 C 5.00 75.33 5.00 64.66 5.00 54.00 C 21.67 53.91 38.36 54.40 55.02 53.57 C 55.00 37.38 55.01 21.18 55.00 4.99 Z" />
</g>
</svg>
