<?xml version="1.0" encoding="utf-8"?>
<!-- Generator: Adobe Illustrator 16.0.0, SVG Export Plug-In . SVG Version: 6.00 Build 0)  -->
<!DOCTYPE svg PUBLIC "-//W3C//DTD SVG 1.1//EN" "http://www.w3.org/Graphics/SVG/1.1/DTD/svg11.dtd">
<svg version="1.1" id="Capa_1" xmlns="http://www.w3.org/2000/svg" xmlns:xlink="http://www.w3.org/1999/xlink" x="0px" y="0px"
	 width="200px" height="200px" viewBox="0 0 200 200" enable-background="new 0 0 200 200" xml:space="preserve">
<g>
	<circle fill="#30A8DF" cx="101.456" cy="99.912" r="97.204"/>
	<g>
		<path fill="#30A8DF" d="M192.551,65.959l-75.584-48.917c-1.002,1.919-2.48,3.069-4.021,5.027
			c-3.854,4.916-4.436,11.313-9.271,15.305v79.272H36.657v38.5l64.938,41.965c53.617-0.076,97.063-43.564,97.063-97.199
			C198.659,87.967,196.494,76.53,192.551,65.959z"/>
	</g>
	<g>
		<circle fill="#30A8DF" cx="100.924" cy="62.144" r="21.491"/>
		<path fill="#30A8DF" d="M170.704,147.863c0,4.801-3.896,8.689-8.688,8.689H41.286c-4.802,0-8.697-3.891-8.697-8.689v-79.68
			c0-4.801,3.895-8.693,8.697-8.693h120.728c4.797,0,8.69,3.892,8.69,8.693V147.863L170.704,147.863z"/>
		<path fill="#30A8DF" d="M162.014,142.066H41.286c-0.796,0-1.447-0.652-1.447-1.45V68.183c0-0.797,0.651-1.449,1.447-1.449h120.728
			c0.797,0,1.443,0.653,1.443,1.449v72.434C163.457,141.414,162.811,142.066,162.014,142.066L162.014,142.066z"/>
		<path fill="#30A8DF" d="M161.998,66.733h-60.576v75.333h60.576c0.807,0,1.459-0.652,1.459-1.45V68.183
			C163.457,67.385,162.805,66.733,161.998,66.733z"/>
		<path fill="#30A8DF" d="M126.094,148.706c0,1.397-1.135,2.536-2.533,2.536H78.408c-1.399,0-2.538-1.137-2.538-2.536l0,0
			c0-1.399,1.138-2.535,2.538-2.535h45.152C124.959,146.171,126.094,147.307,126.094,148.706L126.094,148.706z"/>
		<g>
			<circle fill="#30A8DF" cx="134.85" cy="148.946" r="2.535"/>
			<circle fill="#30A8DF" cx="144.143" cy="148.946" r="2.537"/>
			<circle fill="#30A8DF" cx="153.861" cy="148.946" r="2.536"/>
		</g>
		<g>
			<g>
				<path fill="#30A8DF" d="M83.128,19.95l15.426,26.225c0.608,1.035,1.937,1.38,2.969,0.773l0,0
					c1.039-0.611,1.386-1.942,0.777-2.976l0,0L86.874,17.748c-0.605-1.031-1.94-1.377-2.976-0.768l0,0
					C82.867,17.589,82.522,18.92,83.128,19.95L83.128,19.95z"/>
			</g>
			<g>
				<path fill="#30A8DF" d="M98.583,43.975l15.425-26.224c0.605-1.035,1.936-1.38,2.973-0.77l0,0
					c1.037,0.609,1.383,1.939,0.773,2.973l0,0l-15.425,26.224c-0.606,1.032-1.94,1.377-2.979,0.768l0,0
					C98.317,46.338,97.978,45.005,98.583,43.975L98.583,43.975z"/>
			</g>
		</g>
	</g>
</g>
<path fill="#8ED7B0" d="M33.221,37.414c-0.195,2.375-0.033,4.766-0.083,7.145c0.004,33.94,0.011,67.887,0,101.828
	c-0.134,1.401,0.765,2.966,2.211,3.228c2.246,0.235,4.502,0.046,6.754,0.085c41.895,0.022,83.796-0.012,125.691,0.017
	c1.85,0.218,3.501-1.503,3.323-3.329c-0.016-33.947-0.012-67.888,0-101.828c-0.062-2.379,0.107-4.765-0.09-7.14
	c-0.278-1.468-1.781-2.396-3.233-2.223c-43.772,0.017-87.551,0.006-131.328,0.006C35.015,35.018,33.507,35.94,33.221,37.414z"/>
<path fill="#8ED7B0" d="M71.43,103.212c2.217-0.006,4.435-0.006,6.652,0c0.007,1.313-0.004,2.626-0.027,3.938
	c-2.196-0.04-4.391-0.045-6.587,0.006C71.43,105.843,71.407,104.525,71.43,103.212z"/>
<path fill="#8ED7B0" d="M71.43,118.853c10.686,0.005,21.378-0.018,32.065,0.011c-0.008,1.297-0.008,2.598-0.012,3.898
	c-10.681,0.018-21.356-0.032-32.036,0.023C71.43,121.478,71.419,120.166,71.43,118.853z"/>
<path fill="#8ED7B0" d="M71.43,126.674c6.128,0,12.25-0.006,18.379,0c0.004,1.312,0,2.619-0.012,3.933
	c-6.117-0.034-12.239-0.04-18.356,0C71.43,129.293,71.424,127.98,71.43,126.674z"/>
<path fill="#8ED7B0" d="M99.578,134.499c6.52-0.012,13.038-0.018,19.557,0.006c-0.006,1.295-0.006,2.598-0.012,3.894
	c-6.514,0.005-13.031,0.016-19.545-0.006C99.566,137.097,99.566,135.794,99.578,134.499z"/>
<path fill="#8ED7B0" d="M123.039,134.499c3.909-0.012,7.821-0.018,11.736,0.006c-0.005,1.295-0.005,2.598-0.011,3.894
	c-3.91,0.005-7.816,0.016-11.726-0.006C123.027,137.097,123.027,135.794,123.039,134.499z"/>
<path fill="#8ED7B0" d="M71.43,142.313c8.078,0.006,16.16-0.017,24.243,0.011c-0.005,1.298-0.005,2.599-0.011,3.899
	c-8.072,0.017-16.143-0.033-24.215,0.022C71.43,144.934,71.419,143.627,71.43,142.313z"/>
<g>
	<g>
		<path fill="#DDDDDD" d="M33.221,37.414c0.286-1.474,1.793-2.396,3.246-2.211c43.777,0,87.555,0.011,131.328-0.006
			c1.452-0.173,2.955,0.755,3.233,2.223c0.197,2.375,0.028,4.76,0.09,7.14c-43.023,0-86.041,0-129.064,0
			c-2.972-0.006-5.944-0.006-8.915,0C33.188,42.179,33.026,39.788,33.221,37.414z M41.751,38.828
			c-0.033,0.899-0.234,2.139,0.866,2.503c1.704,0.882,3.133-1.738,1.625-2.771C43.489,37.822,42.527,38.559,41.751,38.828z
			 M36.155,38.705c-0.437,0.793-0.536,2.104,0.441,2.53c1.062,0.637,2.675-0.196,2.396-1.531
			C39.015,38.241,37.098,37.877,36.155,38.705z M47.896,38.766c-0.864,1.095-0.044,2.921,1.436,2.67
			c1.38,0.056,1.878-1.916,0.928-2.736C49.722,38.028,48.433,38.14,47.896,38.766z"/>
	</g>
</g>
<g>
	<path fill="#BBBBBB" d="M41.751,38.828c0.776-0.269,1.738-1.006,2.492-0.269c1.508,1.033,0.078,3.653-1.625,2.771
		C41.518,40.967,41.719,39.727,41.751,38.828z"/>
	<path fill="#BBBBBB" d="M36.155,38.705c0.943-0.828,2.86-0.464,2.837,0.999c0.279,1.335-1.334,2.167-2.396,1.531
		C35.619,40.81,35.718,39.498,36.155,38.705z"/>
	<path fill="#BBBBBB" d="M47.896,38.766c0.537-0.626,1.827-0.738,2.363-0.066c0.95,0.82,0.453,2.792-0.928,2.736
		C47.852,41.688,47.031,39.861,47.896,38.766z"/>
</g>
<g>
	<path fill="#888888" d="M33.139,44.559c2.971-0.006,5.943-0.006,8.915,0c0.15,35.041,0.056,70.093,0.05,105.141
		c-2.252-0.039-4.508,0.15-6.754-0.085c-1.447-0.262-2.345-1.826-2.211-3.228C33.15,112.445,33.143,78.499,33.139,44.559z"/>
</g>
<g>
	<g>
		<path fill="#666666" d="M42.054,44.559c43.023,0,86.041,0,129.064,0c-0.012,33.94-0.016,67.881,0,101.828
			c0.178,1.826-1.474,3.547-3.323,3.329c-41.895-0.028-83.796,0.006-125.691-0.017C42.11,114.651,42.204,79.6,42.054,44.559z
			 M46.014,48.479c0.006,1.297,0.006,2.593,0.011,3.894c5.989,0.012,11.976,0.006,17.965,0c0.006-1.295,0.01-2.597,0.006-3.899
			C58.001,48.463,52.008,48.458,46.014,48.479z M46.014,56.301c0.006,1.295,0.011,2.591,0.011,3.894
			c8.58,0.027,17.161-0.028,25.741,0.027c0.044-1.307,0.084-2.62,0.044-3.927C63.212,56.284,54.616,56.278,46.014,56.301z
			 M54.616,68.031c4.295-0.017,8.596-0.017,12.898,0c0.05-1.329,0.027-2.654-0.084-3.976c-4.262,0.111-8.525,0.044-12.787,0.038
			C54.616,65.406,54.594,66.719,54.616,68.031z M71.424,64.11c0,1.307,0.006,2.614,0.012,3.921c8.078-0.028,16.154,0,24.232-0.017
			c-0.006-1.301,0-2.597,0.011-3.898C87.596,64.104,79.508,64.11,71.424,64.11z M99.572,64.116
			c-0.005,1.301-0.005,2.597,0.006,3.898c4.307,0.012,8.608,0.012,12.916,0c0.006-1.301,0.012-2.597,0.006-3.898
			C108.191,64.104,103.88,64.104,99.572,64.116z M54.622,75.851c4.295-0.016,8.59-0.016,12.893,0
			c0.044-1.323,0.023-2.647-0.067-3.966c-4.262,0.079-8.525,0.056-12.781,0.012C54.611,73.215,54.577,74.534,54.622,75.851z
			 M71.436,71.93c0,1.307,0.005,2.614,0.017,3.921c6.11-0.022,12.222-0.016,18.333,0c0.011-1.307,0.016-2.615,0.016-3.921
			C83.681,71.93,77.559,71.924,71.436,71.93z M93.725,75.851c4.295-0.016,8.596-0.016,12.892,0c0.051-1.323,0.027-2.653-0.078-3.971
			c-4.245,0.079-8.49,0.09-12.731-0.006C93.69,73.192,93.674,74.522,93.725,75.851z M54.622,83.671
			c4.301-0.017,8.596-0.017,12.898,0c0.021-1.318,0-2.631-0.028-3.938c-4.263,0.006-8.525,0.073-12.782-0.038
			C54.588,81.013,54.571,82.342,54.622,83.671z M71.436,79.75c0,1.307,0.011,2.62,0.027,3.927
			c6.123-0.078,12.252,0.073,18.373-0.072c-0.027-1.285-0.044-2.57-0.044-3.854C83.675,79.75,77.553,79.75,71.436,79.75z
			 M93.719,83.66c8.467-0.006,16.942,0.011,25.41-0.006c0-1.301,0-2.603,0.006-3.898c-8.451-0.039-16.909,0.044-25.366-0.044
			C93.713,81.029,93.679,82.348,93.719,83.66z M123.033,79.756c-0.006,1.301-0.006,2.597,0.006,3.898
			c4.309,0.012,8.609,0.012,12.915,0c0.005-1.301,0.011-2.597,0.005-3.898C131.651,79.745,127.342,79.745,123.033,79.756z
			 M54.622,91.493c4.301-0.017,8.596-0.017,12.893,0c0.039-1.319,0.006-2.637-0.044-3.955c-4.252,0.032-8.508,0.09-12.76-0.029
			C54.588,88.833,54.571,90.163,54.622,91.493z M71.436,87.57c0,1.309,0.005,2.616,0.017,3.923
			c10.674-0.028,21.344,0.006,32.019-0.017c0-1.302,0-2.603,0.012-3.9C92.803,87.566,82.116,87.57,71.436,87.57z M107.393,87.576
			c-0.005,1.303-0.005,2.598,0.006,3.9c4.301,0.011,8.607,0.011,12.909,0c0.012-1.302,0.018-2.597,0.012-3.9
			C116.012,87.566,111.699,87.566,107.393,87.576z M46.014,95.402c0.006,1.296,0.011,2.592,0.011,3.895
			c8.597,0.004,17.193,0.004,25.785,0c0.006-1.303,0.012-2.599,0.006-3.9C63.212,95.385,54.616,95.379,46.014,95.402z
			 M54.622,107.133c4.295-0.017,8.59-0.017,12.893,0c0.05-1.324,0.023-2.647-0.073-3.971c-4.256,0.083-8.513,0.067-12.764,0.01
			C54.605,104.491,54.571,105.809,54.622,107.133z M71.43,103.212c-0.023,1.313,0,2.631,0.038,3.944
			c2.196-0.051,4.391-0.046,6.587-0.006c0.023-1.313,0.034-2.625,0.027-3.938C75.865,103.206,73.647,103.206,71.43,103.212z
			 M81.988,107.128c5.865-0.012,11.725,0.005,17.59-0.012c0-1.302,0-2.603,0.011-3.898c-5.853-0.04-11.702,0.044-17.551-0.046
			C81.982,104.491,81.948,105.804,81.988,107.128z M103.483,103.218c-0.006,1.302-0.006,2.597,0.004,3.898
			c4.309,0.012,8.609,0.012,12.917,0c0.004-1.302,0.01-2.597,0.004-3.898C112.102,103.206,107.79,103.206,103.483,103.218z
			 M54.565,111.122c0.04,1.273,0.057,2.553,0.051,3.831c4.301-0.017,8.602-0.017,12.904,0c0.017-1.313,0-2.624-0.023-3.937
			C63.186,111.105,58.874,110.909,54.565,111.122z M71.436,111.031c0,1.307,0.005,2.615,0.017,3.922
			c6.105-0.011,12.21-0.033,18.31,0.011c0.029-1.313,0.05-2.62,0.039-3.933C83.681,111.031,77.559,111.026,71.436,111.031z
			 M93.725,114.953c4.295-0.017,8.596-0.017,12.892,0c0.045-1.323,0.018-2.646-0.062-3.966c-4.262,0.073-8.518,0.062-12.78,0.012
			C93.713,112.313,93.679,113.63,93.725,114.953z M54.565,118.937c0.04,1.273,0.057,2.553,0.051,3.837
			c4.301-0.018,8.596-0.018,12.898,0c0.044-1.324,0.023-2.646-0.073-3.965C63.151,118.958,58.856,118.719,54.565,118.937z
			 M71.43,118.853c-0.011,1.313,0,2.625,0.017,3.933c10.68-0.056,21.355-0.006,32.036-0.023c0.004-1.301,0.004-2.602,0.012-3.898
			C92.808,118.835,82.116,118.857,71.43,118.853z M107.393,118.857c-0.005,1.303-0.005,2.598,0.006,3.898
			c4.301,0.012,8.607,0.012,12.909,0c0.012-1.301,0.018-2.596,0.012-3.898C116.012,118.847,111.699,118.847,107.393,118.857z
			 M54.622,130.594c4.295-0.016,8.59-0.016,12.893,0c0.044-1.323,0.023-2.647-0.067-3.966c-4.262,0.079-8.519,0.062-12.775,0.012
			C54.611,127.952,54.577,129.271,54.622,130.594z M71.43,126.674c-0.006,1.307,0,2.619,0.011,3.933
			c6.117-0.04,12.239-0.034,18.356,0c0.012-1.313,0.016-2.621,0.012-3.933C83.681,126.668,77.559,126.674,71.43,126.674z
			 M93.725,130.584c3.25-0.006,6.506,0.005,9.763-0.006c-0.004-1.303,0-2.604,0.012-3.899c-3.234-0.039-6.469,0.057-9.698-0.066
			C93.696,127.935,93.674,129.259,93.725,130.584z M107.393,126.679c-0.005,1.302-0.005,2.597,0.006,3.899
			c4.307,0.011,8.607,0.011,12.915,0c0.006-1.303,0.012-2.598,0.006-3.899C116.012,126.668,111.699,126.668,107.393,126.679z
			 M54.622,138.414c4.295-0.016,8.596-0.016,12.898,0c-0.011-1.277,0.01-2.559,0.05-3.831c-4.291-0.225-8.597,0.006-12.898-0.123
			C54.605,135.772,54.577,137.097,54.622,138.414z M71.43,134.493c-0.039,1.318,0,2.644,0.067,3.961
			c8.055-0.123,16.116-0.011,24.171-0.056c0-1.302,0-2.604,0.005-3.899C87.596,134.487,79.514,134.493,71.43,134.493z
			 M99.578,134.499c-0.011,1.295-0.011,2.598,0,3.894c6.514,0.021,13.032,0.011,19.545,0.006c0.006-1.296,0.006-2.599,0.012-3.894
			C112.615,134.481,106.098,134.487,99.578,134.499z M123.039,134.499c-0.012,1.295-0.012,2.598,0,3.894
			c3.909,0.021,7.815,0.011,11.726,0.006c0.006-1.296,0.006-2.599,0.011-3.894C130.86,134.481,126.948,134.487,123.039,134.499z
			 M138.674,134.499c-0.005,1.301-0.005,2.598,0.006,3.899c4.308,0.011,8.608,0.011,12.915,0c0.012-1.302,0.012-2.599,0.006-3.899
			C147.294,134.487,142.981,134.487,138.674,134.499z M54.622,146.235c4.295-0.018,8.596-0.018,12.893,0
			c0.05-1.33,0.039-2.659-0.096-3.983c-4.233,0.101-8.473,0.095-12.708,0.006C54.588,143.576,54.571,144.905,54.622,146.235z
			 M71.43,142.313c-0.011,1.313,0,2.62,0.017,3.933c8.072-0.056,16.143-0.006,24.215-0.022c0.006-1.301,0.006-2.602,0.011-3.899
			C87.59,142.297,79.508,142.319,71.43,142.313z M99.572,142.319c-0.005,1.303-0.005,2.598,0.006,3.898
			c4.307,0.012,8.608,0.012,12.916,0c0.012-1.301,0.012-2.596,0.006-3.898C108.191,142.309,103.88,142.309,99.572,142.319z"/>
	</g>
</g>
<g>
	<path fill="#FF828C" d="M46.014,48.479c5.995-0.021,11.987-0.016,17.982-0.006c0.004,1.303,0,2.604-0.006,3.899
		c-5.989,0.006-11.976,0.012-17.965,0C46.02,51.072,46.02,49.776,46.014,48.479z"/>
	<path fill="#FF828C" d="M46.014,56.301c8.603-0.023,17.199-0.017,25.796-0.006c0.04,1.307,0,2.62-0.044,3.927
		c-8.58-0.056-17.161,0-25.741-0.027C46.025,58.892,46.02,57.596,46.014,56.301z"/>
	<path fill="#FF828C" d="M46.014,95.402c8.603-0.023,17.199-0.017,25.802-0.006c0.006,1.302,0,2.598-0.006,3.9
		c-8.592,0.004-17.188,0.004-25.785,0C46.025,97.994,46.02,96.698,46.014,95.402z"/>
</g>
<g>
	<path fill="#6DC6E7" d="M54.616,68.031c-0.022-1.312,0-2.625,0.027-3.938c4.262,0.006,8.525,0.073,12.787-0.038
		c0.111,1.322,0.134,2.647,0.084,3.976C63.212,68.014,58.912,68.014,54.616,68.031z"/>
	<path fill="#6DC6E7" d="M99.572,64.116c4.308-0.012,8.62-0.012,12.927,0c0.006,1.301,0,2.597-0.006,3.898
		c-4.308,0.012-8.608,0.012-12.916,0C99.566,66.713,99.566,65.417,99.572,64.116z"/>
	<path fill="#6DC6E7" d="M54.622,75.851c-0.045-1.317-0.011-2.636,0.044-3.954c4.256,0.044,8.519,0.067,12.781-0.012
		c0.09,1.319,0.111,2.643,0.067,3.966C63.212,75.835,58.917,75.835,54.622,75.851z"/>
	<path fill="#6DC6E7" d="M93.725,75.851c-0.05-1.329-0.034-2.659,0.083-3.977c4.241,0.096,8.486,0.084,12.731,0.006
		c0.105,1.318,0.129,2.648,0.078,3.971C102.32,75.835,98.02,75.835,93.725,75.851z"/>
	<path fill="#6DC6E7" d="M54.622,83.671c-0.051-1.329-0.034-2.658,0.088-3.976c4.257,0.111,8.519,0.044,12.782,0.038
		c0.028,1.307,0.049,2.62,0.028,3.938C63.218,83.654,58.923,83.654,54.622,83.671z"/>
	<path fill="#6DC6E7" d="M123.033,79.756c4.309-0.012,8.618-0.012,12.926,0c0.006,1.301,0,2.597-0.005,3.898
		c-4.306,0.012-8.606,0.012-12.915,0C123.027,82.354,123.027,81.058,123.033,79.756z"/>
	<path fill="#6DC6E7" d="M54.622,91.493c-0.051-1.33-0.034-2.66,0.088-3.984c4.251,0.119,8.507,0.061,12.76,0.029
		c0.05,1.318,0.083,2.636,0.044,3.955C63.218,91.476,58.923,91.476,54.622,91.493z"/>
	<path fill="#6DC6E7" d="M107.393,87.576c4.307-0.01,8.619-0.01,12.927,0c0.006,1.303,0,2.598-0.012,3.9
		c-4.302,0.011-8.608,0.011-12.909,0C107.388,90.174,107.388,88.879,107.393,87.576z"/>
	<path fill="#6DC6E7" d="M54.622,107.133c-0.051-1.324-0.017-2.642,0.056-3.961c4.251,0.058,8.508,0.073,12.764-0.01
		c0.096,1.323,0.123,2.646,0.073,3.971C63.212,107.116,58.917,107.116,54.622,107.133z"/>
	<path fill="#6DC6E7" d="M103.483,103.218c4.307-0.012,8.618-0.012,12.925,0c0.006,1.302,0,2.597-0.004,3.898
		c-4.308,0.012-8.608,0.012-12.917,0C103.478,105.814,103.478,104.52,103.483,103.218z"/>
	<path fill="#6DC6E7" d="M54.565,111.122c4.309-0.213,8.621-0.017,12.933-0.105c0.023,1.313,0.04,2.624,0.023,3.937
		c-4.303-0.017-8.604-0.017-12.904,0C54.622,113.675,54.605,112.396,54.565,111.122z"/>
	<path fill="#6DC6E7" d="M93.725,114.953c-0.046-1.323-0.012-2.641,0.05-3.954c4.262,0.05,8.519,0.062,12.78-0.012
		c0.079,1.319,0.106,2.643,0.062,3.966C102.32,114.937,98.02,114.937,93.725,114.953z"/>
	<path fill="#6DC6E7" d="M54.565,118.937c4.292-0.218,8.586,0.021,12.877-0.128c0.096,1.318,0.117,2.641,0.073,3.965
		c-4.302-0.018-8.598-0.018-12.898,0C54.622,121.489,54.605,120.21,54.565,118.937z"/>
	<path fill="#6DC6E7" d="M107.393,118.857c4.307-0.011,8.619-0.011,12.927,0c0.006,1.303,0,2.598-0.012,3.898
		c-4.302,0.012-8.608,0.012-12.909,0C107.388,121.455,107.388,120.16,107.393,118.857z"/>
	<path fill="#6DC6E7" d="M54.622,130.594c-0.045-1.323-0.011-2.642,0.05-3.954c4.256,0.05,8.513,0.067,12.775-0.012
		c0.09,1.318,0.111,2.643,0.067,3.966C63.212,130.578,58.917,130.578,54.622,130.594z"/>
	<path fill="#6DC6E7" d="M107.393,126.679c4.307-0.011,8.619-0.011,12.927,0c0.006,1.302,0,2.597-0.006,3.899
		c-4.308,0.011-8.608,0.011-12.915,0C107.388,129.275,107.388,127.98,107.393,126.679z"/>
	<path fill="#6DC6E7" d="M54.622,138.414c-0.045-1.317-0.017-2.642,0.05-3.954c4.301,0.129,8.607-0.102,12.898,0.123
		c-0.04,1.272-0.061,2.554-0.05,3.831C63.218,138.398,58.917,138.398,54.622,138.414z"/>
	<path fill="#6DC6E7" d="M138.674,134.499c4.308-0.012,8.62-0.012,12.927,0c0.006,1.301,0.006,2.598-0.006,3.899
		c-4.307,0.011-8.607,0.011-12.915,0C138.669,137.097,138.669,135.8,138.674,134.499z"/>
	<path fill="#6DC6E7" d="M54.622,146.235c-0.051-1.33-0.034-2.659,0.088-3.978c4.235,0.089,8.475,0.095,12.708-0.006
		c0.134,1.324,0.146,2.653,0.096,3.983C63.218,146.218,58.917,146.218,54.622,146.235z"/>
	<path fill="#6DC6E7" d="M99.572,142.319c4.308-0.011,8.62-0.011,12.927,0c0.006,1.303,0.006,2.598-0.006,3.898
		c-4.308,0.012-8.608,0.012-12.916,0C99.566,144.917,99.566,143.622,99.572,142.319z"/>
</g>
<g>
	<path fill="#FCDE81" d="M71.424,64.11c8.083,0,16.171-0.006,24.255,0.006c-0.011,1.301-0.017,2.597-0.011,3.898
		c-8.078,0.017-16.154-0.011-24.232,0.017C71.43,66.724,71.424,65.417,71.424,64.11z"/>
	<path fill="#FCDE81" d="M71.436,71.93c6.123-0.005,12.245,0,18.366,0c0,1.307-0.004,2.614-0.016,3.921
		c-6.111-0.016-12.223-0.022-18.333,0C71.441,74.544,71.436,73.236,71.436,71.93z"/>
	<path fill="#FCDE81" d="M71.436,79.75c6.117,0,12.239,0,18.356,0c0,1.284,0.017,2.57,0.044,3.854
		c-6.121,0.145-12.25-0.006-18.373,0.072C71.447,82.371,71.436,81.058,71.436,79.75z"/>
	<path fill="#FCDE81" d="M93.719,83.66c-0.04-1.313-0.006-2.631,0.05-3.948c8.457,0.088,16.915,0.005,25.366,0.044
		c-0.006,1.295-0.006,2.597-0.006,3.898C110.661,83.671,102.186,83.654,93.719,83.66z"/>
	<path fill="#FCDE81" d="M71.436,87.57c10.68,0,21.367-0.004,32.047,0.006c-0.012,1.297-0.012,2.598-0.012,3.9
		c-10.675,0.023-21.344-0.011-32.019,0.017C71.441,90.186,71.436,88.879,71.436,87.57z"/>
	<path fill="#FCDE81" d="M81.988,107.128c-0.04-1.324-0.006-2.637,0.05-3.956c5.849,0.09,11.698,0.006,17.551,0.046
		c-0.011,1.296-0.011,2.597-0.011,3.898C93.713,107.133,87.853,107.116,81.988,107.128z"/>
	<path fill="#FCDE81" d="M71.436,111.031c6.123-0.005,12.245,0,18.366,0c0.011,1.313-0.01,2.62-0.039,3.933
		c-6.1-0.044-12.205-0.021-18.31-0.011C71.441,113.646,71.436,112.338,71.436,111.031z"/>
	<path fill="#FCDE81" d="M93.725,130.584c-0.05-1.325-0.029-2.649,0.077-3.972c3.229,0.123,6.464,0.027,9.698,0.066
		c-0.012,1.296-0.016,2.597-0.012,3.899C100.231,130.589,96.975,130.578,93.725,130.584z"/>
	<path fill="#FCDE81" d="M71.43,134.493c8.083,0,16.166-0.006,24.243,0.006c-0.005,1.295-0.005,2.598-0.005,3.899
		c-8.055,0.045-16.116-0.067-24.171,0.056C71.43,137.137,71.392,135.812,71.43,134.493z"/>
</g>
</svg>
