<?xml version="1.0" encoding="utf-8"?>
<!-- Generator: Adobe Illustrator 16.0.0, SVG Export Plug-In . SVG Version: 6.00 Build 0)  -->
<!DOCTYPE svg PUBLIC "-//W3C//DTD SVG 1.1//EN" "http://www.w3.org/Graphics/SVG/1.1/DTD/svg11.dtd">
<svg version="1.1" id="Capa_1" xmlns="http://www.w3.org/2000/svg" xmlns:xlink="http://www.w3.org/1999/xlink" x="0px" y="0px"
	 width="200px" height="200px" viewBox="0 0 200 200" enable-background="new 0 0 200 200" xml:space="preserve">
<g>
	<circle fill="#F0C414" cx="102.676" cy="102.543" r="95.609"/>
	<path fill="#F69F27" d="M197.355,89.344L158.71,63.607l-39.215,14.938l-9.957,29.877H98.332v40.086H66.423
		c-0.213,0.459-0.545,0.862-1.004,1.119c-2.04,1.151-4.733,1.066-7.048,1.495c-0.726,0.135-0.944,0.208-1.743,0.251l-0.872,0.433
		l67.416,44.12c42.947-9.385,75.113-47.623,75.113-93.384C198.285,98.063,197.952,93.662,197.355,89.344z"/>
	<g>
		<polygon fill="#223B56" points="155.355,68.066 155.355,68.05 113.272,68.062 113.272,68.066 		"/>
		<polygon fill="#223B56" points="155.364,137.685 155.375,137.685 155.364,102.867 		"/>
		<path fill="#223B56" d="M46.822,63.608c-0.96,0.47-1.63,1.433-1.63,2.55v73.452c0,1.573,1.314,2.863,2.919,2.863l17.29,0.031
			h29.84v3.531c-22.455,0.497-38.459,2.898-39.605,5.839h47.8v-18.159H56.005V72.056h47.339v-8.448H46.822z"/>
		<polygon fill="#223B56" points="113.272,68.062 102.813,68.066 113.272,68.066 		"/>
		<polygon fill="#223B56" points="56.005,133.715 102.813,133.715 102.813,126.574 102.813,72.056 56.005,72.056 		"/>
		<polygon fill="#223B56" points="102.813,133.715 149.337,133.715 149.337,72.056 102.813,72.056 102.813,126.574 		"/>
		<path fill="#132539" d="M102.813,68.066v3.989h46.521v61.659h-46.521v18.159h51.713c-1.168-2.993-20.289-5.433-43.355-5.866
			v-3.507l5.099-0.001v-0.031l41.019-0.012c1.569,0,2.859-1.293,2.857-2.864l-0.019-73.451c-0.002-1.106-0.646-2.059-1.57-2.534
			h-55.743V68.066 M138.139,141.358c-0.633,0-1.145-0.512-1.145-1.145c0-0.63,0.511-1.146,1.145-1.146
			c0.632,0,1.146,0.515,1.146,1.146C139.284,140.847,138.771,141.358,138.139,141.358z M145.74,141.358
			c-0.634,0-1.146-0.512-1.146-1.145c0-0.63,0.512-1.146,1.146-1.146c0.632,0,1.145,0.515,1.145,1.146
			C146.885,140.847,146.372,141.358,145.74,141.358z M153.34,141.358c-0.633,0-1.147-0.512-1.147-1.145
			c0-0.63,0.514-1.146,1.147-1.146c0.63,0,1.145,0.515,1.145,1.146C154.484,140.847,153.97,141.358,153.34,141.358z"/>
		<path fill="#223B56" d="M153.34,139.069c-0.633,0-1.147,0.515-1.147,1.145c0,0.633,0.514,1.146,1.147,1.146
			c0.63,0,1.145-0.512,1.145-1.146C154.484,139.584,153.97,139.069,153.34,139.069z"/>
		<circle fill="#223B56" cx="145.74" cy="140.214" r="1.145"/>
		<circle fill="#223B56" cx="138.139" cy="140.214" r="1.145"/>
	</g>
	<g>
		<polygon fill="none" points="155.355,68.066 155.355,68.05 113.272,68.062 113.272,68.066 		"/>
		<polygon fill="none" points="155.364,137.685 155.375,137.685 155.364,102.867 		"/>
		<polygon fill="#223B56" points="113.272,68.062 102.813,68.066 113.272,68.066 		"/>
		<polygon fill="#FFFEF4" points="102.813,72.056 56.005,72.056 56.005,133.715 102.813,133.715 149.337,133.715 149.337,72.056 		
			"/>
		<polygon fill="#FFFEF4" points="56.005,133.715 102.813,133.715 102.813,126.574 102.813,72.056 56.005,72.056 		"/>
		<polygon fill="#E9E9E1" points="102.813,133.715 149.337,133.715 149.337,72.056 102.813,72.056 102.813,126.574 		"/>
		<path fill="#E9E9E1" d="M153.34,139.069c-0.633,0-1.147,0.515-1.147,1.145c0,0.633,0.514,1.146,1.147,1.146
			c0.63,0,1.145-0.512,1.145-1.146C154.484,139.584,153.97,139.069,153.34,139.069z"/>
		<circle fill="#E9E9E1" cx="145.74" cy="140.214" r="1.145"/>
		<circle fill="#E9E9E1" cx="138.139" cy="140.214" r="1.145"/>
	</g>
</g>
</svg>
