<?xml version="1.0" encoding="utf-8"?>
<!-- Generator: Adobe Illustrator 16.0.0, SVG Export Plug-In . SVG Version: 6.00 Build 0)  -->
<!DOCTYPE svg PUBLIC "-//W3C//DTD SVG 1.1//EN" "http://www.w3.org/Graphics/SVG/1.1/DTD/svg11.dtd">
<svg version="1.1" id="Capa_1" xmlns="http://www.w3.org/2000/svg" xmlns:xlink="http://www.w3.org/1999/xlink" x="0px" y="0px"
	 width="200px" height="200px" viewBox="0 0 200 200" enable-background="new 0 0 200 200" xml:space="preserve">
<g>
	<g>
		<circle fill="#629D7C" cx="100.412" cy="99.306" r="98.014"/>
	</g>
	<g>
		<circle fill="#629D7C" cx="100.412" cy="99.306" r="98.014"/>
	</g>
	<path fill="#2F6847" d="M192.159,64.79l-32.067-20.458v9.311h-17.357v18.634h-21.95v12.506H92.323v12.079
		c3.168,0.592,5.956,3.592,4.626,7.054c-2.442,6.367-8.275,11.453-13.044,16.225c-5.499,5.497-10.865,10.854-15.747,16.924
		c-1.381,1.719-3.166,2.088-4.805,1.641v2.233l-9.381,4.099l-10.146,17.708l58.891,34.518c53.063-1.229,95.71-44.597,95.71-97.957
		C198.427,87.154,196.201,75.526,192.159,64.79z"/>
	<g>
		<path fill="#574538" d="M155.228,148.088c-0.496,0.548-1.05,1-1.641,1.38c-1.258,0.815-2.692,1.257-4.146,1.305
			c-2.021,0.157-4.096-0.481-5.717-1.945c-0.64-0.576-1.144-1.234-1.538-1.944c-1.496-2.422-1.614-5.471-0.313-8.011
			c0.319-0.625,0.719-1.22,1.212-1.769c-0.137,0.154-0.252,0.32-0.378,0.479L64.162,66.761l-7.275,8.305
			c-1.672,1.908-4.573,2.101-6.481,0.429L30.663,58.207c-2.728,11.553,0.73,24.197,10.156,32.724
			c10.617,9.602,25.672,11.169,37.731,5.093l68.542,59.809c2.447,2.21,6.021,2.239,7.984,0.068l3.559-3.934l1.249-1.377
			l-4.907-2.262C155.058,148.245,155.148,148.176,155.228,148.088z"/>
		<polygon fill="#2B190F" points="159.884,150.591 164.225,145.789 159.884,150.591 		"/>
		<path fill="#2B190F" d="M84.972,42.162c-10.458-9.459-25.221-11.106-37.183-5.347l20.65,18.085
			c1.911,1.672,2.103,4.574,0.429,6.483l-5.717,6.528l79.555,69.67c0.126-0.159,0.241-0.325,0.378-0.479
			c3.03-3.354,8.208-3.612,11.563-0.579c3.351,3.034,3.609,8.211,0.579,11.563c-0.079,0.088-0.17,0.157-0.251,0.241l3.898,3.412
			l4.341-4.801c1.965-2.173,1.579-5.727-0.866-7.937L93.808,79.195C98.649,66.589,95.584,51.764,84.972,42.162z"/>
	</g>
	<g>
		<g>
			<path fill="#FFFEF4" d="M60.143,134.735l-19.622,18.64c0,0-3.395,3.723,0.529,7.741c4.178,4.281,8.256,1.532,8.256,1.532
				l19.673-18.584l27.396-25.896l-8.886-9.383L60.143,134.735z"/>
			<path fill="#FFD903" d="M162.24,66.353c5.649-5.352,5.893-14.271,0.538-19.921c-5.352-5.649-14.27-5.894-19.921-0.542
				l-42.396,40.159l-4.604,7.439l-6.533,3.135l19.354,20.432l-0.048,0.043l0.018,0.017l3.541-6.383l7.652-4.22L162.24,66.353z"/>
			<polygon fill="#FFD903" points="97.866,103.921 89.325,96.623 89.311,96.609 82.269,103.276 87.488,108.785 96.374,118.168 
				101.636,123.725 108.631,117.098 108.679,117.055 			"/>
		</g>
		<g>
			<g>
				<path fill="#FFFEF4" d="M96.374,118.168l-8.886-9.383l-27.345,25.95l-19.622,18.64c0,0-3.395,3.723,0.529,7.741
					c0.038,0.039,0.077,0.068,0.114,0.107l50.682-47.837L96.374,118.168z"/>
				<path fill="#FFFEF4" d="M49.306,162.648l-1.903,0.733C48.567,163.141,49.306,162.648,49.306,162.648z"/>
				<path fill="#E8F1EC" d="M91.846,113.387l-50.682,47.837c2.367,2.353,4.686,2.483,6.239,2.158l1.903-0.733l19.673-18.584
					l27.396-25.896L91.846,113.387z"/>
			</g>
			<path fill="#F59E17" d="M162.24,66.353c5.649-5.352,5.893-14.271,0.538-19.921c-0.037-0.039-0.08-0.076-0.119-0.115
				l-63.772,60.402l9.792,10.336l-0.048,0.043l0.018,0.017l3.541-6.383l7.652-4.22L162.24,66.353z"/>
			<polygon fill="#F59E17" points="99.608,106.037 91.846,113.387 101.636,123.725 108.679,117.055 			"/>
		</g>
	</g>
</g>
</svg>
