<?xml version="1.0" encoding="utf-8"?>
<!-- Generator: Adobe Illustrator 16.0.0, SVG Export Plug-In . SVG Version: 6.00 Build 0)  -->
<!DOCTYPE svg PUBLIC "-//W3C//DTD SVG 1.1//EN" "http://www.w3.org/Graphics/SVG/1.1/DTD/svg11.dtd">
<svg version="1.1" id="Capa_1" xmlns="http://www.w3.org/2000/svg" xmlns:xlink="http://www.w3.org/1999/xlink" x="0px" y="0px"
	 width="200px" height="200px" viewBox="0 0 200 200" enable-background="new 0 0 200 200" xml:space="preserve">
<g>
	<circle fill="#BF1818" cx="100.905" cy="100.868" r="97.708"/>
	<path fill="#BF1818" d="M198.526,97.476l-35.568-22.91v30.749h-5.345v13.358H57.616v24.045H42.57l77.988,50.231l-2.655,4.123
		c45.853-8.049,80.71-48.044,80.71-96.204C198.612,99.731,198.564,98.603,198.526,97.476z"/>
</g>
<g>
	<g>
		<path fill="#ED6B6A" d="M93.426,147.957c0,3.965-3.215,7.18-7.18,7.18h-33.64c-3.965,0-7.18-3.215-7.18-7.18V51.318
			c0-3.966,3.215-7.181,7.18-7.181h33.64c3.965,0,7.18,3.215,7.18,7.181V147.957z M69.538,54.169c-4.008,0-7.258,3.25-7.258,7.259
			c0,4.01,3.25,7.26,7.258,7.26c4.01,0,7.26-3.25,7.26-7.26C76.798,57.419,73.548,54.169,69.538,54.169z"/>
		<g>
			<path fill="#E03E2E" d="M86.319,44.137H68.426v10.056c0-0.011,0.633-0.024,0.792-0.024c4.01,0,7.419,3.25,7.419,7.259
				c0,4.01-3.49,7.26-7.5,7.26c-0.159,0-0.711-0.014-0.711-0.024v87.473h17.894c3.965,0,7.106-4.729,7.106-8.693V50.927
				C93.426,46.961,90.284,44.137,86.319,44.137z"/>
		</g>
		<rect x="76.426" y="79.137" fill="#676767" width="17" height="6"/>
		<rect x="76.426" y="92.137" fill="#676767" width="17" height="5"/>
		<rect x="76.426" y="106.137" fill="#676767" width="17" height="5"/>
		<rect x="76.426" y="119.137" fill="#676767" width="17" height="5"/>
		<rect x="76.426" y="133.137" fill="#676767" width="17" height="5"/>
	</g>
	<g>
		<g>
			<rect x="105.426" y="87.137" fill="#B5DCCE" width="48" height="69"/>
			<polygon fill="#F0D284" points="129.352,44.137 141.427,65.774 153.386,87.412 129.352,87.412 105.465,87.412 117.275,65.774 			
				"/>
			<polygon fill="#B5DCCE" points="129.426,44.153 136.308,56.137 129.478,56.137 122.542,56.137 			"/>
		</g>
		<g>
			<polygon fill="#73C3B6" points="153.426,87.137 130.539,87.137 129.426,87.137 129.426,156.137 153.426,156.137 			"/>
			<polygon fill="#F0D284" points="130.539,43.863 130.144,44.55 130.144,44.55 			"/>
			<polygon fill="#D0B775" points="128.852,56.137 128.852,87.137 129.965,87.137 154,87.137 142.041,65.646 136.848,56.137 
				130.018,56.137 			"/>
			<polygon fill="#73C3B6" points="128.852,56.137 130.018,56.137 136.852,56.137 136.852,55.904 129.607,43.892 128.852,44.55 			
				"/>
		</g>
	</g>
</g>
</svg>
