<?xml version="1.0" encoding="utf-8"?>
<!-- Generator: Adobe Illustrator 16.0.0, SVG Export Plug-In . SVG Version: 6.00 Build 0)  -->
<!DOCTYPE svg PUBLIC "-//W3C//DTD SVG 1.1//EN" "http://www.w3.org/Graphics/SVG/1.1/DTD/svg11.dtd">
<svg version="1.1" id="Capa_1" xmlns="http://www.w3.org/2000/svg" xmlns:xlink="http://www.w3.org/1999/xlink" x="0px" y="0px"
	 width="200px" height="200px" viewBox="0 0 200 200" enable-background="new 0 0 200 200" xml:space="preserve">
<g>
	<g>
		<ellipse fill="#533952" cx="100.545" cy="100" rx="98.949" ry="94.115"/>
	</g>
	<g>
		<path fill="#201122" d="M193.475,67.608l-49.584-28.515l2.447,16.604h-2.768v2.268h-3.801v75.12H53.704l-2.474,23.723
			l62.194,36.486c48.559-6.008,86.07-45.471,86.07-93.294C199.494,88.618,197.369,77.707,193.475,67.608z"/>
	</g>
	<g>
		<g>
			<path fill="#F18919" d="M131.793,131.068V57.541H58.384l-11.113,91.665c-0.516,4.275,2.735,8.176,7.233,8.67l75.738,8.305
				c4.494,0.492,8.6-2.604,9.115-6.877l3.424-28.234H131.793z"/>
		</g>
		<g>
			<path fill="#FFFEF4" d="M146.959,153.145c0,4.305-3.701,7.824-8.227,7.824H62.49c-4.523,0-8.225-3.52-8.225-7.824V45.156
				c0-4.303,3.702-7.825,8.225-7.825h76.242c4.525,0,8.227,3.521,8.227,7.825V153.145z"/>
		</g>
		<g>
			<path fill="#F3F3E0" d="M138.732,37.332h-38.378v123.637h38.378c4.525,0,8.227-3.52,8.227-7.824V45.156
				C146.959,40.853,143.258,37.332,138.732,37.332z"/>
		</g>
		<g>
			<rect x="64.719" y="55.589" fill="#DCD7D5" width="72.125" height="10.957"/>
		</g>
		<g>
			<rect x="64.719" y="77.761" fill="#DCD7D5" width="72.125" height="10.954"/>
		</g>
		<g>
			<rect x="64.719" y="99.15" fill="#DCD7D5" width="72.125" height="10.958"/>
		</g>
		<g>
			<rect x="64.719" y="121.322" fill="#DCD7D5" width="72.125" height="10.953"/>
		</g>
		<g>
			<g>
				<path fill="#DCD7D5" d="M75.035,41.75c0,1.441-1.226,2.608-2.743,2.608l0,0c-1.512,0-2.741-1.167-2.741-2.608v-8.347
					c0-1.441,1.229-2.608,2.741-2.608l0,0c1.517,0,2.743,1.167,2.743,2.608V41.75z"/>
			</g>
			<g>
				<path fill="#DCD7D5" d="M86.612,41.562c0,1.442-1.229,2.609-2.741,2.609l0,0c-1.513,0-2.743-1.167-2.743-2.609v-8.346
					c0-1.441,1.23-2.608,2.743-2.608l0,0c1.512,0,2.741,1.167,2.741,2.608V41.562z"/>
			</g>
			<g>
				<path fill="#DCD7D5" d="M97.935,41.75c0,1.441-1.228,2.608-2.744,2.608l0,0c-1.513,0-2.743-1.167-2.743-2.608v-8.347
					c0-1.441,1.23-2.608,2.743-2.608l0,0c1.516,0,2.744,1.167,2.744,2.608V41.75z"/>
			</g>
			<g>
				<path fill="#DCD7D5" d="M109.861,41.75c0,1.441-1.227,2.608-2.742,2.608l0,0c-1.512,0-2.742-1.167-2.742-2.608v-8.347
					c0-1.441,1.23-2.608,2.742-2.608l0,0c1.516,0,2.742,1.167,2.742,2.608V41.75z"/>
			</g>
			<g>
				<path fill="#DCD7D5" d="M121.246,41.75c0,1.441-1.23,2.608-2.746,2.608l0,0c-1.514,0-2.74-1.167-2.74-2.608v-8.347
					c0-1.441,1.227-2.608,2.74-2.608l0,0c1.516,0,2.746,1.167,2.746,2.608V41.75z"/>
			</g>
			<g>
				<path fill="#DCD7D5" d="M132.762,41.75c0,1.441-1.229,2.608-2.742,2.608l0,0c-1.516,0-2.744-1.167-2.744-2.608v-8.347
					c0-1.441,1.229-2.608,2.744-2.608l0,0c1.514,0,2.742,1.167,2.742,2.608V41.75z"/>
			</g>
		</g>
		<g>
			<rect x="100.354" y="55.589" fill="#CBC6C4" width="36.489" height="10.957"/>
		</g>
		<g>
			<rect x="100.354" y="77.761" fill="#CBC6C4" width="36.489" height="10.954"/>
		</g>
		<g>
			<rect x="100.354" y="99.15" fill="#CBC6C4" width="36.489" height="10.958"/>
		</g>
		<g>
			<rect x="100.354" y="121.322" fill="#CBC6C4" width="36.489" height="10.953"/>
		</g>
	</g>
</g>
</svg>
