<?xml version="1.0" encoding="utf-8"?>
<!-- Generator: Adobe Illustrator 16.0.0, SVG Export Plug-In . SVG Version: 6.00 Build 0)  -->
<!DOCTYPE svg PUBLIC "-//W3C//DTD SVG 1.1//EN" "http://www.w3.org/Graphics/SVG/1.1/DTD/svg11.dtd">
<svg version="1.1" id="Capa_1" xmlns="http://www.w3.org/2000/svg" xmlns:xlink="http://www.w3.org/1999/xlink" x="0px" y="0px"
	 width="200px" height="200px" viewBox="0 0 200 200" enable-background="new 0 0 200 200" xml:space="preserve">
<g>
	<circle fill="#E9E9E1" cx="100" cy="100" r="98.229"/>
	<path fill="#C4C4BB" d="M189.546,59.635l-37.338-24.048v84.494H48.351v54.292l36.063,22.612c5.078,0.809,10.279,1.243,15.586,1.243
		c54.249,0,98.229-43.979,98.229-98.228C198.229,85.608,195.107,71.952,189.546,59.635z"/>
	<g>
		<g>
			<path fill="#58301E" d="M157.172,164.848c0,5.935-4.809,10.744-10.743,10.744H53.572c-5.935,0-10.745-4.81-10.745-10.744V44.364
				c0-5.937,4.81-10.745,10.745-10.745h92.856c5.935,0,10.743,4.808,10.743,10.745V164.848z"/>
			<g>
				<path fill="#FFFEF4" d="M140.035,155.643h10.997V44.363c0-2.538-2.066-4.602-4.603-4.602H53.572
					c-2.538,0-4.602,2.063-4.602,4.602v120.485c0,2.535,2.063,4.603,4.602,4.603h81.861v-9.207
					C135.434,157.708,137.498,155.643,140.035,155.643z"/>
				<path fill="#F4F0ED" d="M146.359,39.761H100V169.45h35.193v-9.207c0-2.535,2.098-4.601,4.672-4.601h11.167V44.363
					C151.032,41.825,148.936,39.761,146.359,39.761z"/>
				<path fill="#D0D7D8" d="M151.032,155.643h-10.997c-2.537,0-4.602,2.065-4.602,4.601v9.207L151.032,155.643z"/>
			</g>
			<g>
				<path fill="#F69F27" d="M112.662,30.55h-2.203c0.426-1.202,0.669-2.491,0.669-3.837c0-6.201-4.902-11.238-11.037-11.487
					c-6.137,0.249-11.039,5.286-11.039,11.487c0,1.346,0.243,2.635,0.669,3.837h-2.203c-3.816,0-6.908,3.091-6.908,6.906
					c0,3.814,3.092,6.908,6.908,6.908h12.572h12.571c3.815,0,6.907-3.094,6.907-6.908C119.569,33.642,116.478,30.55,112.662,30.55z
					 M100.091,31.012c-2.175-0.239-3.875-2.061-3.875-4.299c0-2.239,1.7-4.063,3.875-4.303c2.174,0.24,3.875,2.063,3.875,4.303
					C103.966,28.951,102.265,30.773,100.091,31.012z"/>
				<path fill="#EF782C" d="M112.662,30.55h-2.203c0.426-1.202,0.669-2.491,0.669-3.837c0-6.201-4.902-11.238-11.037-11.487v7.185
					c2.174,0.24,3.875,2.063,3.875,4.303c0,2.238-1.701,4.06-3.875,4.299v13.352h12.571c3.815,0,6.907-3.094,6.907-6.908
					C119.569,33.642,116.478,30.55,112.662,30.55z"/>
				<circle fill="#FFFEF4" cx="100.025" cy="26.713" r="4.348"/>
			</g>
			<g>
				<path fill="#58301E" d="M147.285,53.828c0,1.557-1.259,2.814-2.815,2.814H55.71c-1.555,0-2.815-1.258-2.815-2.814l0,0
					c0-1.553,1.26-2.813,2.815-2.813h88.76C146.026,51.015,147.285,52.275,147.285,53.828L147.285,53.828z"/>
				<path fill="#58301E" d="M147.285,73.013c0,1.555-1.259,2.815-2.815,2.815H55.71c-1.555,0-2.815-1.26-2.815-2.815l0,0
					c0-1.553,1.26-2.814,2.815-2.814h88.76C146.026,70.199,147.285,71.46,147.285,73.013L147.285,73.013z"/>
				<path fill="#58301E" d="M147.285,92.967c0,1.555-1.259,2.813-2.815,2.813H55.71c-1.555,0-2.815-1.258-2.815-2.813l0,0
					c0-1.554,1.26-2.814,2.815-2.814h88.76C146.026,90.152,147.285,91.413,147.285,92.967L147.285,92.967z"/>
				<path fill="#58301E" d="M147.285,111.129c0,1.553-1.259,2.815-2.815,2.815H55.71c-1.555,0-2.815-1.263-2.815-2.815l0,0
					c0-1.555,1.26-2.815,2.815-2.815h88.76C146.026,108.313,147.285,109.574,147.285,111.129L147.285,111.129z"/>
				<path fill="#58301E" d="M147.285,130.314c0,1.555-1.259,2.814-2.815,2.814H55.71c-1.555,0-2.815-1.26-2.815-2.814l0,0
					c0-1.554,1.26-2.815,2.815-2.815h88.76C146.026,127.499,147.285,128.761,147.285,130.314L147.285,130.314z"/>
			</g>
		</g>
	</g>
</g>
</svg>
