<?xml version="1.0" encoding="utf-8"?>
<!-- Generator: Adobe Illustrator 16.0.0, SVG Export Plug-In . SVG Version: 6.00 Build 0)  -->
<!DOCTYPE svg PUBLIC "-//W3C//DTD SVG 1.1//EN" "http://www.w3.org/Graphics/SVG/1.1/DTD/svg11.dtd">
<svg version="1.1" id="Capa_1" xmlns="http://www.w3.org/2000/svg" xmlns:xlink="http://www.w3.org/1999/xlink" x="0px" y="0px"
	 width="200px" height="200px" viewBox="0 0 200 200" enable-background="new 0 0 200 200" xml:space="preserve">
<g>
	<circle fill="#F0C09E" cx="100.329" cy="100.138" r="98.241"/>
	<g>
		<path fill="#CB9472" d="M194.765,73.064l-51.311-33.524v2.147c1.916,1.162,3.302,3.531,2.792,5.825
			c-0.541,2.434-1.526,4.619-2.792,6.64v24.773h-27.519c-6.319,5.566-12.545,11.236-18.682,17.003
			c-0.645,0.958-1.283,1.903-1.896,2.82v13.434h-9.537c-1.406,1.846-2.834,3.681-4.308,5.474
			c-10.54,12.831-21.99,24.729-35.271,34.73c-1.2,0.9-2.451,1.07-3.586,0.765v6.63l59.018,38.561
			c53.636-0.721,96.898-44.4,96.898-98.203C198.572,90.743,197.227,81.669,194.765,73.064z"/>
	</g>
	<g>
		<g>
			<path fill="#58301E" d="M43.52,143.417l-2.303,2.106c-3.651,3.654-3.651,9.57,0,13.226c3.652,3.653,9.573,3.653,13.225,0
				l4.528-4.783l-2.384,2.518L43.52,143.417z"/>
			<polygon fill="#3B2415" points="96.199,114.61 86.1,104.512 81.173,109.016 81.173,109.016 91.619,119.453 			"/>
			<polygon fill="#3A9749" points="51.926,135.735 43.52,143.417 43.52,143.417 56.585,156.482 58.97,153.964 67.525,144.922 
				67.525,144.922 55.278,132.676 			"/>
			<path fill="#58301E" d="M154.096,105.618c16.035-16.037,16.033-42.038,0-58.072c-16.039-16.037-42.04-16.037-58.075,0
				C82.348,61.219,80.343,82.137,89.99,97.945c-1.443-0.858-3.331-0.678-4.572,0.563c-1.469,1.47-1.469,3.855,0,5.322l0.682,0.68
				l10.099,10.101l-4.58,4.843l-10.446-10.438l-29.247,26.722l3.352-3.061l12.247,12.246l28.674-30.312l0.924,0.925
				c1.472,1.474,3.851,1.474,5.321,0c1.136-1.133,1.386-2.807,0.769-4.188C119.072,121.335,140.28,119.433,154.096,105.618z
				 M103.015,98.625c-12.176-12.174-12.176-31.913,0-44.088c12.174-12.172,31.911-12.172,44.085,0
				c12.178,12.175,12.178,31.914,0,44.089C134.926,110.798,115.188,110.798,103.015,98.625z"/>
			<path fill="#CDCECE" d="M147.1,54.536c-12.174-12.172-31.911-12.172-44.085,0c-12.176,12.175-12.176,31.914,0,44.088
				c12.174,12.174,31.911,12.174,44.085,0.001C159.275,86.451,159.275,66.711,147.1,54.536z M105.296,96.342
				c-10.915-10.915-10.915-28.608,0-39.523c10.915-10.916,28.611-10.916,39.525,0c10.916,10.913,10.916,28.609,0,39.523
				C133.907,107.257,116.211,107.257,105.296,96.342z"/>
			<path fill="#FFFEF4" d="M125.062,48.632c15.433,0,27.946,12.513,27.946,27.949c0,15.435-12.514,27.949-27.946,27.949
				c-15.438,0-27.951-12.514-27.951-27.949C97.11,61.146,109.624,48.632,125.062,48.632z"/>
			<path fill="#E9E9E1" d="M144.821,56.819c-0.078-0.076-0.157-0.142-0.232-0.211L105.086,96.11
				c0.069,0.079,0.134,0.158,0.209,0.232c10.915,10.915,28.61,10.915,39.526,0S155.737,67.732,144.821,56.819z"/>
		</g>
		<g>
			<polygon fill="#D77F45" points="58.97,153.964 56.585,156.482 56.585,156.482 			"/>
			<path fill="#3B2415" d="M56.585,156.482l-5.969-5.967l-8.789,8.786c3.676,3.083,9.161,2.903,12.613-0.553L56.585,156.482z"/>
			<polygon fill="#230E14" points="86.648,114.485 91.619,119.453 96.199,114.61 91.361,109.773 			"/>
			<polygon fill="#257632" points="50.617,150.516 56.585,156.482 58.97,153.964 67.525,144.922 61.868,139.266 			"/>
			<polygon fill="#3B2415" points="86.648,114.485 61.868,139.266 67.525,144.922 96.199,114.61 91.619,119.453 			"/>
			<path fill="#3B2415" d="M154.096,105.618c16.035-16.037,16.033-42.038,0-58.072c-0.084-0.086-0.177-0.165-0.261-0.249
				l-6.992,6.992c0.082,0.083,0.175,0.162,0.255,0.246c12.178,12.175,12.178,31.914,0,44.089
				c-12.173,12.173-31.911,12.173-44.084-0.001c-0.085-0.085-0.163-0.176-0.244-0.26l-11.41,11.408l5.762,5.762
				c1.472,1.474,3.851,1.474,5.321,0c1.136-1.132,1.386-2.807,0.768-4.188C119.072,121.335,140.28,119.433,154.096,105.618z"/>
			<path fill="#B7BCBC" d="M147.1,54.536c-0.082-0.084-0.173-0.163-0.255-0.246l-2.283,2.282c0.086,0.081,0.171,0.161,0.262,0.246
				c10.915,10.913,10.915,28.609,0,39.523c-10.916,10.915-28.611,10.915-39.526,0c-0.085-0.085-0.165-0.17-0.247-0.259l-2.278,2.281
				c0.081,0.084,0.16,0.174,0.244,0.26c12.173,12.172,31.911,12.172,44.084,0.001C159.275,86.451,159.275,66.711,147.1,54.536z"/>
		</g>
	</g>
</g>
<path fill="none" d="M-98.465,31.674c0.078,0,0.155,0,0.233,0"/>
<g id="_x23_282628ff">
	<path fill="#292628" d="M119.618,62.547c6.815-1.625,14.385,1.961,17.472,8.242c2.199,4.226,2.289,9.461,0.309,13.781
		c-1.616,3.493-4.528,6.367-8.053,7.913c-4.07,1.773-8.893,1.751-12.918-0.128c-4.281-1.935-7.58-5.888-8.728-10.446
		c-1.583-5.896,0.663-12.577,5.487-16.315C115.061,64.097,117.287,63.071,119.618,62.547 M115.855,68.296
		c-2.924,0.813-3.664,5.069-1.231,6.855c2.146,1.895,5.933,0.477,6.349-2.344C121.661,69.979,118.561,67.271,115.855,68.296z"/>
</g>
</svg>
