<?xml version="1.0" encoding="utf-8"?>
<!-- Generator: Adobe Illustrator 16.0.0, SVG Export Plug-In . SVG Version: 6.00 Build 0)  -->
<!DOCTYPE svg PUBLIC "-//W3C//DTD SVG 1.1//EN" "http://www.w3.org/Graphics/SVG/1.1/DTD/svg11.dtd">
<svg version="1.1" id="Capa_1" xmlns="http://www.w3.org/2000/svg" xmlns:xlink="http://www.w3.org/1999/xlink" x="0px" y="0px"
	 width="200px" height="200px" viewBox="0 0 200 200" enable-background="new 0 0 200 200" xml:space="preserve">
<g>
	<circle fill="#E9E9E1" cx="671.852" cy="133.004" r="62.782"/>
	<g>
		<path fill="#C4C4BB" d="M732.336,116.184l-24.48-15.994v11.574h-6.865v38.504h-57.879v21.236l36.426,23.798
			c31.045-3.793,55.098-30.228,55.098-62.298C734.633,127.176,733.822,121.539,732.336,116.184z"/>
	</g>
	<g>
		<rect x="643.199" y="165.609" fill="#22333B" width="3.113" height="5.709"/>
		<rect x="699.943" y="165.609" fill="#22333B" width="3.113" height="5.709"/>
		<path fill="#374C5A" d="M713.781,159.383c0,4.969-4.025,8.996-8.996,8.996h-63.66c-4.969,0-8.994-4.027-8.994-8.996v-50.515
			c0-4.97,4.025-8.996,8.994-8.996h63.66c4.971,0,8.996,4.026,8.996,8.996V159.383z"/>
		<path fill="#E7E7EC" d="M704.785,161.46h-63.658c-1.146,0-2.078-0.933-2.078-2.077v-50.514c0-1.145,0.932-2.076,2.078-2.076
			h63.658c1.146,0,2.08,0.934,2.08,2.076v50.514C706.865,160.527,705.934,161.46,704.785,161.46L704.785,161.46z"/>
		<path fill="#D2D2D4" d="M704.785,106.793h-32.98v54.667h32.98c1.146,0,2.08-0.933,2.08-2.077v-50.514
			C706.865,107.727,705.934,106.793,704.785,106.793z"/>
		<g>
			<g>
				<path fill="#22333B" d="M708.172,120.708c0,0.786-0.639,1.423-1.424,1.423l0,0c-0.785,0-1.422-0.637-1.422-1.423v-7.534
					c0-0.785,0.637-1.423,1.422-1.423l0,0c0.785,0,1.424,0.638,1.424,1.423V120.708z"/>
				<rect x="701.818" y="115.5" fill="#22333B" width="5.42" height="2.883"/>
			</g>
			<circle fill="#D2D2D4" cx="706.777" cy="113.192" r="0.822"/>
			<circle fill="#D2D2D4" cx="706.777" cy="120.589" r="0.822"/>
		</g>
		<g>
			<g>
				<path fill="#22333B" d="M708.172,153.059c0,0.785-0.639,1.422-1.424,1.422l0,0c-0.785,0-1.422-0.637-1.422-1.422v-7.533
					c0-0.786,0.637-1.424,1.422-1.424l0,0c0.785,0,1.424,0.638,1.424,1.424V153.059z"/>
				<rect x="701.818" y="147.85" fill="#22333B" width="5.42" height="2.883"/>
			</g>
			<circle fill="#D2D2D4" cx="706.777" cy="145.543" r="0.822"/>
			<circle fill="#D2D2D4" cx="706.777" cy="152.938" r="0.822"/>
		</g>
		<g>
			<path fill="#374C5A" d="M672.033,112.674c-10.955,0-19.838,8.881-19.838,19.838c0,10.954,8.883,19.836,19.838,19.836
				s19.838-8.882,19.838-19.836C691.871,121.555,682.988,112.674,672.033,112.674z M684.727,130.146H674.34v-10.336
				C679.604,120.762,683.75,124.893,684.727,130.146z M669.496,119.846v10.301h-10.154
				C660.303,124.969,664.342,120.873,669.496,119.846z M659.361,134.99h10.135v10.186
				C664.379,144.154,660.357,140.114,659.361,134.99z M674.34,145.21v-10.22h10.367C683.695,140.191,679.564,144.268,674.34,145.21z
				"/>
		</g>
	</g>
</g>
<g>
	<circle fill="#E9E9E1" cx="99.539" cy="100" r="97.352"/>
	<g>
		<path fill="#C4C4BB" d="M193.328,73.919l-37.96-24.802v17.948h-10.647v59.704H54.974v32.932l56.482,36.9
			c48.14-5.883,85.433-46.873,85.433-96.603C196.889,90.963,195.633,82.222,193.328,73.919z"/>
	</g>
	<g>
		<rect x="55.111" y="150.561" fill="#22333B" width="4.828" height="8.855"/>
		<rect x="143.098" y="150.561" fill="#22333B" width="4.83" height="8.855"/>
		<path fill="#374C5A" d="M164.558,140.904c0,7.707-6.243,13.949-13.947,13.949H51.894c-7.704,0-13.948-6.244-13.948-13.949v-78.33
			c0-7.705,6.244-13.95,13.948-13.95h98.717c7.705,0,13.947,6.245,13.947,13.95V140.904L164.558,140.904z"/>
		<path fill="#E7E7EC" d="M150.608,144.125H51.897c-1.78,0-3.223-1.445-3.223-3.221V62.577c0-1.773,1.443-3.22,3.223-3.22h98.713
			c1.776,0,3.223,1.447,3.223,3.22v78.328C153.831,142.68,152.386,144.125,150.608,144.125L150.608,144.125z"/>
		<path fill="#D2D2D4" d="M150.608,59.357H99.467v84.768h51.141c1.777,0,3.223-1.445,3.223-3.221V62.577
			C153.831,60.804,152.386,59.357,150.608,59.357z"/>
		<g>
			<g>
				<path fill="#22333B" d="M155.857,80.934c0,1.218-0.986,2.208-2.206,2.208l0,0c-1.217,0-2.204-0.99-2.204-2.208V69.251
					c0-1.219,0.987-2.206,2.204-2.206l0,0c1.22,0,2.206,0.987,2.206,2.206V80.934z"/>
				<rect x="146.008" y="72.86" fill="#22333B" width="8.407" height="4.468"/>
			</g>
			<circle fill="#D2D2D4" cx="153.696" cy="69.28" r="1.274"/>
			<circle fill="#D2D2D4" cx="153.696" cy="80.75" r="1.274"/>
		</g>
		<g>
			<g>
				<path fill="#22333B" d="M155.857,131.098c0,1.217-0.986,2.205-2.206,2.205l0,0c-1.217,0-2.204-0.988-2.204-2.205v-11.682
					c0-1.219,0.987-2.207,2.204-2.207l0,0c1.22,0,2.206,0.988,2.206,2.207V131.098z"/>
				<rect x="146.008" y="123.02" fill="#22333B" width="8.407" height="4.473"/>
			</g>
			<circle fill="#D2D2D4" cx="153.696" cy="119.445" r="1.273"/>
			<circle fill="#D2D2D4" cx="153.696" cy="130.911" r="1.274"/>
		</g>
		<g>
			<path fill="#374C5A" d="M99.82,68.475c-16.988,0-30.761,13.772-30.761,30.762c0,16.985,13.774,30.757,30.761,30.757
				c16.987,0,30.763-13.771,30.763-30.757C130.583,82.247,116.809,68.475,99.82,68.475z M119.506,95.569h-16.107V79.543
				C111.561,81.018,117.988,87.422,119.506,95.569z M95.886,79.598v15.971H80.142C81.629,87.54,87.894,81.19,95.886,79.598z
				 M80.171,103.081h15.714v15.794C87.951,117.293,81.716,111.025,80.171,103.081z M103.397,118.93v-15.849h16.074
				C117.907,111.148,111.498,117.469,103.397,118.93z"/>
		</g>
	</g>
</g>
</svg>
