<?xml version="1.0" encoding="utf-8"?>
<!-- Generator: Adobe Illustrator 16.0.0, SVG Export Plug-In . SVG Version: 6.00 Build 0)  -->
<!DOCTYPE svg PUBLIC "-//W3C//DTD SVG 1.1//EN" "http://www.w3.org/Graphics/SVG/1.1/DTD/svg11.dtd">
<svg version="1.1" id="Capa_1" xmlns="http://www.w3.org/2000/svg" xmlns:xlink="http://www.w3.org/1999/xlink" x="0px" y="0px"
	 width="200px" height="200px" viewBox="0 0 200 200" enable-background="new 0 0 200 200" xml:space="preserve">
<g>
	<circle fill="#30A8DF" cx="101.456" cy="99.912" r="97.204"/>
	<g>
		<path fill="#0579B3" d="M192.551,65.959l-75.584-48.917c-1.002,1.919-2.481,3.069-4.021,5.027
			c-3.855,4.916-4.436,11.313-9.272,15.305v79.272H36.657v38.501l64.938,41.964c53.618-0.076,97.063-43.564,97.063-97.199
			C198.659,87.967,196.494,76.53,192.551,65.959z"/>
	</g>
	<g>
		<circle fill="#060810" cx="100.924" cy="62.144" r="21.491"/>
		<path fill="#060810" d="M170.704,147.863c0,4.801-3.895,8.69-8.689,8.69H41.286c-4.802,0-8.697-3.891-8.697-8.69V68.183
			c0-4.801,3.895-8.693,8.697-8.693h120.728c4.796,0,8.69,3.892,8.69,8.693V147.863L170.704,147.863z"/>
		<path fill="#FFFEF4" d="M162.014,142.067H41.286c-0.796,0-1.447-0.653-1.447-1.451V68.183c0-0.797,0.651-1.449,1.447-1.449
			h120.728c0.796,0,1.443,0.653,1.443,1.449v72.434C163.457,141.414,162.81,142.067,162.014,142.067L162.014,142.067z"/>
		<path fill="#F0F4F4" d="M161.998,66.733h-60.576v75.334h60.576c0.806,0,1.459-0.653,1.459-1.451V68.183
			C163.457,67.385,162.805,66.733,161.998,66.733z"/>
		<path fill="#BDC3C6" d="M126.094,148.706c0,1.398-1.135,2.536-2.534,2.536H78.408c-1.399,0-2.538-1.137-2.538-2.536l0,0
			c0-1.399,1.138-2.535,2.538-2.535h45.153C124.959,146.171,126.094,147.307,126.094,148.706L126.094,148.706z"/>
		<g>
			<circle fill="#BDC3C6" cx="134.85" cy="148.946" r="2.535"/>
			<circle fill="#BDC3C6" cx="144.143" cy="148.946" r="2.537"/>
			<circle fill="#BDC3C6" cx="153.861" cy="148.946" r="2.536"/>
		</g>
		<g>
			<g>
				<path fill="#060810" d="M83.128,19.95l15.426,26.225c0.608,1.035,1.937,1.38,2.97,0.773l0,0
					c1.038-0.611,1.385-1.942,0.777-2.976l0,0L86.874,17.748c-0.605-1.031-1.94-1.377-2.976-0.768l0,0
					C82.867,17.589,82.522,18.92,83.128,19.95L83.128,19.95z"/>
			</g>
			<g>
				<path fill="#060810" d="M98.583,43.975l15.425-26.224c0.606-1.035,1.935-1.38,2.972-0.77l0,0
					c1.037,0.609,1.384,1.939,0.774,2.973l0,0l-15.425,26.224c-0.607,1.032-1.94,1.377-2.979,0.768l0,0
					C98.317,46.338,97.978,45.005,98.583,43.975L98.583,43.975z"/>
			</g>
		</g>
	</g>
</g>
</svg>
