<?xml version="1.0" encoding="utf-8"?>
<!-- Generator: Adobe Illustrator 16.0.0, SVG Export Plug-In . SVG Version: 6.00 Build 0)  -->
<!DOCTYPE svg PUBLIC "-//W3C//DTD SVG 1.1//EN" "http://www.w3.org/Graphics/SVG/1.1/DTD/svg11.dtd">
<svg version="1.1" id="Capa_1" xmlns="http://www.w3.org/2000/svg" xmlns:xlink="http://www.w3.org/1999/xlink" x="0px" y="0px"
	 width="200px" height="200px" viewBox="0 0 200 200" enable-background="new 0 0 200 200" xml:space="preserve">
<g>
	<circle fill="#533952" cx="100.207" cy="100.17" r="98.173"/>
	<path fill="#281229" d="M198.293,96.762l-35.738-23.019v30.895h-5.369v13.422H56.712v24.159H41.595l78.359,50.472l-2.669,4.142
		c46.072-8.087,81.095-48.272,81.095-96.662C198.38,99.028,198.332,97.895,198.293,96.762z"/>
	<g>
		<path fill="#F4A794" d="M91.947,80.453C87.922,69.844,83.532,54.847,82.8,50.09c0,0-8.336-1.346-10.714,10.955
			c-0.396,2.043-0.26,6.24,0.472,9.896c0.731,3.659,5.121,12.803-3.292,14.999c-8.416,2.194-20.853-6.219-30.364,0.731
			c0,0-8.778,6.219,0.732,12.804c0,0-11.707,7.317-1.832,14.634c0,0-2.925,2.195-3.292,6.585c-0.317,3.827,1.831,8.413,6.953,8.779
			c0,0-2.974,2.196-3.293,5.486c-0.319,3.291,1.096,7.318,5.853,8.78c0,0,20.119,9.878,53.777-4.023c0,0,9.509-4.757,12.802-5.854
			V89.599C110.602,89.599,95.97,91.064,91.947,80.453z"/>
		<path fill="#EBEDED" d="M132.552,135.327c0,4.849-3.931,8.78-8.779,8.78h-11.34c-4.849,0-8.78-3.932-8.78-8.78V91.793
			c0-4.849,3.932-8.78,8.78-8.78h11.34c4.849,0,8.779,3.932,8.779,8.78V135.327z"/>
		<path fill="#3E8CA9" d="M166.572,141.546c0,4.849-3.931,8.78-8.778,8.78h-32.192c-4.849,0-8.78-3.932-8.78-8.78V80.818
			c0-4.848,3.932-8.778,8.78-8.778h32.192c4.848,0,8.778,3.93,8.778,8.778V141.546z"/>
		<g>
			<circle fill="#404040" cx="111.333" cy="129.476" r="4.024"/>
		</g>
	</g>
</g>
</svg>
