<?xml version="1.0" encoding="utf-8"?>
<!-- Generator: Adobe Illustrator 16.0.0, SVG Export Plug-In . SVG Version: 6.00 Build 0)  -->
<!DOCTYPE svg PUBLIC "-//W3C//DTD SVG 1.1//EN" "http://www.w3.org/Graphics/SVG/1.1/DTD/svg11.dtd">
<svg version="1.1" id="Capa_1" xmlns="http://www.w3.org/2000/svg" xmlns:xlink="http://www.w3.org/1999/xlink" x="0px" y="0px"
	 width="200px" height="200px" viewBox="0 0 200 200" enable-background="new 0 0 200 200" xml:space="preserve">
<g>
	<path fill="#EF795E" d="M198.309,100.863c-0.044-5.318-0.674-10.515-1.058-15.748C189.216,40.058,149.866,5.842,102.5,5.842
		c-53.175,0-96.278,43.105-96.278,96.278c0,53.174,43.103,96.278,96.277,96.278c48.36,0,88.384-35.663,95.231-82.121
		C197.872,111.139,198.349,105.991,198.309,100.863z"/>
	<g>
		<path fill="#ED6E55" d="M198.309,100.863c-0.04-4.919-0.585-9.733-0.971-14.569l-41.226,5.353l-44.834,6.792l-31.624,65.942
			l54.916,28.523c33.124-11.702,57.925-41.01,63.167-76.684C197.876,111.104,198.349,105.973,198.309,100.863z"/>
	</g>
	<g>
		<g>
			<path fill="#24B2A2" d="M56.591,83.788v42.363h78.876V83.788H56.591z M129.803,114.701c-2.844,0-5.151,2.308-5.151,5.151
				c0,1.059,0.32,2.044,0.867,2.864H68.583c0.342-0.692,0.542-1.467,0.542-2.291c0-2.844-2.306-5.151-5.151-5.151
				c-1.101,0-2.118,0.347-2.956,0.935V94.921C61.888,95.596,62.979,96,64.165,96c2.845,0,5.15-2.307,5.15-5.151
				c0-1.144-0.377-2.197-1.008-3.053h56.888c-0.344,0.691-0.543,1.467-0.543,2.29c0,2.845,2.308,5.15,5.151,5.15
				c0.429,0,0.843-0.058,1.238-0.155v19.776C130.646,114.76,130.231,114.701,129.803,114.701z"/>
			<path fill="#FFFFFF" d="M96.469,107.239v6.368c0.725-0.268,1.236-0.664,1.544-1.187c0.301-0.521,0.455-1.212,0.455-2.07
				c0-0.797-0.188-1.436-0.571-1.912C97.514,107.963,97.039,107.563,96.469,107.239z"/>
			<path fill="#FFFFFF" d="M129.803,95.237c-2.844,0-5.151-2.306-5.151-5.15c0-0.823,0.199-1.6,0.543-2.29H68.306
				c0.631,0.855,1.008,1.909,1.008,3.053c0,2.844-2.306,5.151-5.15,5.151c-1.186,0-2.277-0.404-3.147-1.079v21.288
				c0.838-0.588,1.855-0.937,2.956-0.937c2.845,0,5.151,2.308,5.151,5.152c0,0.824-0.199,1.601-0.542,2.29h56.936
				c-0.547-0.82-0.867-1.805-0.867-2.864c0-2.844,2.308-5.149,5.151-5.149c0.429,0,0.843,0.059,1.238,0.155V95.081
				C130.646,95.179,130.231,95.237,129.803,95.237z M84.923,106.15c-0.427-0.183-0.823-0.254-1.224-0.257
				c-1.669-0.029-3.468,1.448-5.463,2.343c-0.607,0.261-1.213,0.383-1.804,0.383c-1.994-0.019-3.681-1.273-5.496-2.539
				c-0.396-0.279-0.844-0.392-1.356-0.393c-0.925-0.006-2.016,0.419-2.846,0.865c-0.836,0.444-1.401,0.88-1.401,0.881v0.001
				l-0.701-0.906c0.05-0.017,2.463-1.956,4.948-1.986c0.686-0.002,1.396,0.163,2.015,0.603c1.818,1.293,3.385,2.347,4.838,2.328
				c0.437,0,0.877-0.084,1.35-0.29c1.786-0.745,3.635-2.401,5.917-2.434c0.546,0,1.112,0.104,1.677,0.35L84.923,106.15z
				 M85.105,102.911c-0.425-0.183-0.823-0.255-1.223-0.256c-1.667-0.031-3.471,1.447-5.466,2.341
				c-0.605,0.262-1.213,0.384-1.804,0.384c-1.993-0.018-3.681-1.272-5.496-2.538c-0.397-0.276-0.844-0.393-1.355-0.394
				c-0.926-0.005-2.014,0.42-2.848,0.867c-0.818,0.433-1.377,0.862-1.401,0.879l0.002,0.001h-0.002v-0.001l-0.701-0.905
				c0.05-0.018,2.462-1.955,4.949-1.984c0.685-0.002,1.396,0.162,2.017,0.603c1.815,1.292,3.383,2.345,4.834,2.328
				c0.438,0,0.878-0.086,1.351-0.29c1.786-0.745,3.635-2.404,5.92-2.434c0.544-0.001,1.109,0.105,1.68,0.351L85.105,102.911z
				 M99.995,114.056c-0.695,0.863-1.868,1.399-3.526,1.608v2.396h-1.712v-2.285h-0.143c-0.857,0-1.677-0.061-2.454-0.171
				c-0.781-0.114-1.394-0.248-1.829-0.4v-1.285h4.427v-7.537c-0.536-0.246-1.066-0.517-1.601-0.813
				c-0.534-0.295-1.008-0.671-1.427-1.126c-0.419-0.459-0.753-1.012-1.014-1.656c-0.258-0.65-0.385-1.458-0.385-2.43
				c0-1.54,0.359-2.735,1.07-3.583c0.713-0.845,1.831-1.345,3.357-1.5v-2.342h1.712v2.314c0.725,0.04,1.403,0.113,2.043,0.219
				c0.637,0.105,1.144,0.217,1.525,0.332v1.307H96.47v7.412c0.533,0.246,1.077,0.513,1.625,0.8c0.552,0.283,1.043,0.644,1.47,1.08
				c0.43,0.438,0.781,0.974,1.059,1.61c0.276,0.64,0.414,1.424,0.414,2.354C101.037,111.959,100.69,113.19,99.995,114.056z
				 M126.523,106.15c-0.428-0.183-0.827-0.254-1.227-0.257c-1.667-0.029-3.468,1.448-5.465,2.343
				c-0.604,0.261-1.212,0.383-1.803,0.383c-1.994-0.019-3.681-1.273-5.495-2.539c-0.396-0.279-0.845-0.392-1.354-0.393
				c-0.928-0.006-2.017,0.419-2.851,0.865c-0.835,0.444-1.4,0.88-1.4,0.881v0.001l-0.701-0.906c0.052-0.017,2.462-1.956,4.952-1.986
				c0.683-0.002,1.394,0.163,2.016,0.603c1.813,1.293,3.382,2.347,4.834,2.328c0.437,0,0.877-0.084,1.351-0.29
				c1.785-0.745,3.634-2.401,5.918-2.434c0.546,0,1.111,0.104,1.679,0.35L126.523,106.15z M126.702,102.911
				c-0.424-0.183-0.822-0.255-1.224-0.256c-1.667-0.031-3.47,1.447-5.467,2.341c-0.605,0.262-1.211,0.384-1.802,0.384
				c-1.995-0.018-3.683-1.272-5.497-2.538c-0.396-0.276-0.848-0.393-1.356-0.394c-0.927-0.005-2.015,0.42-2.848,0.867
				c-0.817,0.433-1.377,0.862-1.399,0.879v0.001h-0.001c0,0,0-0.001,0.001-0.001l-0.699-0.905c0.048-0.018,2.459-1.955,4.946-1.984
				c0.684-0.002,1.396,0.162,2.015,0.603c1.815,1.292,3.386,2.345,4.839,2.328c0.436,0,0.875-0.086,1.352-0.29
				c1.783-0.745,3.634-2.404,5.917-2.434c0.545-0.001,1.109,0.105,1.678,0.351L126.702,102.911z"/>
			<path fill="#FFFFFF" d="M92.899,100.358c0,0.838,0.172,1.499,0.514,1.984c0.342,0.484,0.789,0.9,1.343,1.243v-6.254
				C93.517,97.751,92.899,98.759,92.899,100.358z"/>
			<path fill="#24B2A2" d="M77.962,103.944c-0.472,0.204-0.913,0.29-1.35,0.29c-1.452,0.018-3.02-1.036-4.835-2.328
				c-0.621-0.439-1.332-0.604-2.017-0.604c-2.487,0.03-4.899,1.969-4.949,1.984l0.701,0.906c0.023-0.018,0.583-0.446,1.401-0.88
				c0.833-0.446,1.921-0.871,2.848-0.866c0.512,0.001,0.958,0.117,1.355,0.394c1.815,1.267,3.503,2.521,5.497,2.539
				c0.591,0,1.199-0.124,1.804-0.385c1.995-0.894,3.799-2.372,5.466-2.341c0.4,0.001,0.799,0.073,1.223,0.256l0.456-1.05
				c-0.569-0.244-1.135-0.352-1.68-0.351C81.598,101.54,79.749,103.199,77.962,103.944z"/>
			<polygon fill="#24B2A2" points="65.515,104.194 65.512,104.193 65.512,104.194 			"/>
			<path fill="#24B2A2" d="M77.782,107.183c-0.473,0.206-0.913,0.29-1.35,0.29c-1.452,0.019-3.02-1.035-4.838-2.328
				c-0.619-0.439-1.33-0.604-2.015-0.603c-2.485,0.03-4.898,1.97-4.948,1.986l0.701,0.906v-0.001c0-0.001,0.566-0.437,1.401-0.881
				c0.83-0.446,1.921-0.87,2.846-0.865c0.513,0.001,0.961,0.113,1.356,0.393c1.815,1.267,3.503,2.521,5.496,2.539
				c0.591,0,1.197-0.122,1.804-0.383c1.996-0.895,3.794-2.372,5.463-2.343c0.401,0.003,0.797,0.073,1.224,0.257l0.453-1.05
				c-0.565-0.245-1.13-0.351-1.677-0.351C81.418,104.781,79.567,106.438,77.782,107.183z"/>
			<path fill="#24B2A2" d="M119.562,103.944c-0.474,0.204-0.914,0.29-1.351,0.29c-1.452,0.018-3.022-1.036-4.838-2.328
				c-0.621-0.439-1.332-0.604-2.016-0.604c-2.486,0.03-4.898,1.969-4.946,1.984l0.699,0.906c0.021-0.018,0.583-0.446,1.4-0.88
				c0.831-0.446,1.92-0.871,2.847-0.866c0.508,0.001,0.96,0.117,1.355,0.394c1.815,1.267,3.504,2.521,5.498,2.539
				c0.59,0,1.195-0.124,1.803-0.385c1.996-0.894,3.8-2.372,5.465-2.341c0.401,0.001,0.8,0.073,1.225,0.256l0.454-1.05
				c-0.568-0.244-1.133-0.352-1.679-0.351C123.196,101.54,121.345,103.199,119.562,103.944z"/>
			<polygon fill="#24B2A2" points="107.11,104.194 107.11,104.193 107.109,104.194 			"/>
			<path fill="#24B2A2" d="M119.379,107.183c-0.473,0.206-0.913,0.29-1.352,0.29c-1.45,0.019-3.02-1.035-4.834-2.328
				c-0.622-0.439-1.333-0.604-2.016-0.603c-2.489,0.03-4.9,1.97-4.95,1.986l0.701,0.906v-0.001c0-0.001,0.563-0.437,1.399-0.881
				c0.833-0.446,1.922-0.87,2.85-0.865c0.51,0.001,0.958,0.113,1.355,0.393c1.814,1.267,3.502,2.521,5.494,2.539
				c0.592,0,1.199-0.122,1.804-0.383c1.996-0.895,3.798-2.372,5.465-2.343c0.399,0.003,0.798,0.073,1.226,0.257l0.453-1.05
				c-0.567-0.245-1.133-0.351-1.679-0.351C123.014,104.781,121.164,106.438,119.379,107.183z"/>
			<path fill="#24B2A2" d="M99.564,106.399c-0.427-0.437-0.918-0.798-1.47-1.082c-0.548-0.286-1.094-0.553-1.625-0.799v-7.412h3.568
				V95.8c-0.382-0.115-0.889-0.227-1.525-0.332c-0.64-0.106-1.318-0.179-2.043-0.218v-2.314h-1.712v2.342
				c-1.525,0.154-2.643,0.654-3.357,1.5c-0.71,0.849-1.069,2.042-1.069,3.583c0,0.972,0.127,1.779,0.385,2.43
				c0.261,0.645,0.595,1.197,1.014,1.656c0.419,0.454,0.893,0.831,1.427,1.126c0.534,0.296,1.065,0.566,1.601,0.813v7.537h-4.426
				v1.285c0.435,0.153,1.048,0.286,1.829,0.4c0.778,0.111,1.597,0.171,2.454,0.171h0.143v2.284h1.712v-2.395
				c1.658-0.21,2.831-0.747,3.526-1.61c0.695-0.865,1.042-2.096,1.042-3.693c0-0.931-0.138-1.714-0.414-2.353
				C100.345,107.371,99.995,106.836,99.564,106.399z M94.757,103.585c-0.555-0.344-1-0.759-1.343-1.243
				c-0.342-0.486-0.514-1.146-0.514-1.984c0-1.599,0.618-2.607,1.858-3.027L94.757,103.585L94.757,103.585z M98.012,112.421
				c-0.308,0.522-0.819,0.918-1.543,1.187v-6.368c0.569,0.324,1.044,0.724,1.427,1.199c0.383,0.477,0.571,1.115,0.571,1.912
				C98.466,111.209,98.313,111.9,98.012,112.421z"/>
		</g>
		<g>
			<path fill="#24B2A2" d="M50.5,104.984l9.524,41.276l76.86-17.729l-9.524-41.275L50.5,104.984z M128.788,118.65
				c-2.771,0.637-4.5,3.404-3.861,6.176c0.239,1.033,0.773,1.921,1.49,2.594l-55.481,12.801c0.18-0.751,0.199-1.551,0.013-2.354
				c-0.639-2.773-3.404-4.502-6.177-3.863c-1.072,0.247-1.984,0.815-2.67,1.576l-4.783-20.742c1,0.461,2.151,0.61,3.305,0.344
				c2.773-0.64,4.503-3.405,3.864-6.177c-0.258-1.115-0.862-2.056-1.669-2.747l55.433-12.788c-0.182,0.75-0.199,1.55-0.014,2.352
				c0.639,2.773,3.405,4.501,6.178,3.863c0.416-0.097,0.803-0.246,1.169-0.43l4.445,19.27
				C129.621,118.516,129.204,118.552,128.788,118.65z"/>
			<path fill="#FFFFFF" d="M94.632,118.871l1.43,6.206c0.645-0.425,1.056-0.924,1.237-1.503c0.178-0.578,0.17-1.282-0.021-2.119
				c-0.181-0.779-0.509-1.357-0.987-1.735C95.813,119.341,95.26,119.059,94.632,118.871z"/>
			<path fill="#FFFFFF" d="M124.415,99.684c-2.772,0.639-5.537-1.09-6.177-3.863c-0.185-0.801-0.167-1.602,0.014-2.352
				l-55.433,12.788c0.807,0.691,1.412,1.631,1.669,2.747c0.64,2.772-1.091,5.538-3.864,6.178c-1.154,0.266-2.306,0.116-3.305-0.345
				l4.783,20.742c0.686-0.761,1.598-1.329,2.67-1.576c2.773-0.639,5.539,1.09,6.177,3.862c0.186,0.804,0.167,1.603-0.013,2.354
				l55.482-12.799c-0.718-0.674-1.252-1.562-1.491-2.594c-0.639-2.772,1.091-5.539,3.86-6.177c0.418-0.098,0.834-0.134,1.243-0.127
				l-4.445-19.27C125.219,99.438,124.831,99.587,124.415,99.684z M83.137,120.404c-0.457-0.081-0.859-0.061-1.25,0.025
				c-1.634,0.344-3.057,2.191-4.798,3.51c-0.533,0.391-1.096,0.647-1.671,0.78c-1.949,0.431-3.877-0.414-5.928-1.239
				c-0.448-0.183-0.911-0.192-1.407-0.077c-0.908,0.202-1.873,0.86-2.581,1.484c-0.717,0.62-1.168,1.169-1.168,1.171v0.002
				l-0.886-0.728c0.045-0.026,1.958-2.459,4.378-3.046c0.663-0.156,1.393-0.156,2.096,0.134c2.063,0.853,3.827,1.524,5.239,1.184
				c0.424-0.1,0.836-0.282,1.25-0.587c1.571-1.128,3.001-3.158,5.22-3.702c0.531-0.123,1.106-0.148,1.711-0.036L83.137,120.404z
				 M82.585,117.21c-0.454-0.084-0.857-0.063-1.25,0.022c-1.633,0.346-3.055,2.192-4.798,3.511
				c-0.534,0.391-1.096,0.646-1.672,0.779c-1.947,0.431-3.874-0.414-5.928-1.236c-0.449-0.184-0.91-0.194-1.409-0.08
				c-0.905,0.203-1.867,0.862-2.579,1.483c-0.7,0.608-1.149,1.15-1.167,1.171v0.002l0,0v-0.002l-0.887-0.724
				c0.044-0.026,1.961-2.459,4.375-3.046c0.668-0.156,1.398-0.154,2.099,0.134c2.061,0.852,3.827,1.522,5.237,1.18
				c0.425-0.098,0.834-0.278,1.25-0.583c1.574-1.13,3.004-3.158,5.22-3.703c0.531-0.124,1.106-0.146,1.717-0.034L82.585,117.21z
				 M99.599,124.72c-0.486,0.999-1.507,1.784-3.076,2.359l0.539,2.335l-1.669,0.385l-0.513-2.225l-0.141,0.032
				c-0.833,0.192-1.645,0.321-2.431,0.385c-0.785,0.064-1.412,0.074-1.871,0.022l-0.289-1.254l4.312-0.992l-1.693-7.347
				c-0.575-0.119-1.154-0.264-1.741-0.433c-0.586-0.167-1.136-0.426-1.645-0.776s-0.96-0.815-1.358-1.387
				c-0.398-0.574-0.703-1.333-0.923-2.279c-0.345-1.501-0.266-2.745,0.238-3.732c0.504-0.985,1.483-1.721,2.932-2.214l-0.525-2.282
				l1.669-0.386l0.521,2.254c0.713-0.124,1.393-0.206,2.038-0.245c0.646-0.041,1.166-0.048,1.563-0.019l0.292,1.271l-3.477,0.802
				l1.667,7.224c0.572,0.12,1.162,0.258,1.765,0.412c0.602,0.152,1.162,0.396,1.677,0.725c0.517,0.329,0.979,0.773,1.391,1.33
				c0.414,0.562,0.724,1.294,0.931,2.201C100.143,122.443,100.082,123.72,99.599,124.72z M123.669,111.056
				c-0.456-0.082-0.86-0.063-1.249,0.025c-1.635,0.345-3.058,2.19-4.799,3.51c-0.533,0.39-1.096,0.644-1.675,0.778
				c-1.944,0.43-3.872-0.413-5.925-1.237c-0.449-0.184-0.911-0.192-1.407-0.08c-0.906,0.203-1.87,0.862-2.58,1.484
				c-0.717,0.621-1.168,1.171-1.168,1.173v0.001l-0.886-0.727c0.045-0.027,1.961-2.458,4.378-3.046
				c0.665-0.157,1.396-0.154,2.097,0.134c2.062,0.852,3.826,1.525,5.235,1.184c0.427-0.101,0.837-0.283,1.253-0.588
				c1.572-1.128,3.001-3.157,5.218-3.7c0.532-0.123,1.107-0.148,1.716-0.037L123.669,111.056z M123.118,107.857
				c-0.455-0.081-0.857-0.063-1.251,0.024c-1.631,0.344-3.054,2.191-4.8,3.511c-0.53,0.39-1.094,0.645-1.67,0.777
				c-1.946,0.433-3.874-0.412-5.929-1.236c-0.447-0.183-0.91-0.191-1.408-0.079c-0.902,0.203-1.871,0.862-2.578,1.484
				c-0.701,0.605-1.149,1.149-1.168,1.172h0.003h-0.003l0,0l-0.887-0.726c0.045-0.026,1.961-2.457,4.375-3.046
				c0.67-0.156,1.398-0.153,2.1,0.135c2.062,0.851,3.826,1.522,5.239,1.182c0.424-0.098,0.834-0.281,1.248-0.586
				c1.573-1.128,3.003-3.159,5.22-3.702c0.53-0.123,1.106-0.146,1.714-0.036L123.118,107.857z"/>
			<path fill="#FFFFFF" d="M89.606,112.968c0.188,0.818,0.503,1.422,0.947,1.817c0.443,0.396,0.971,0.7,1.586,0.91l-1.406-6.093
				C89.622,110.288,89.248,111.41,89.606,112.968z"/>
			<path fill="#24B2A2" d="M75.857,119.821c-0.416,0.305-0.825,0.485-1.25,0.583c-1.411,0.343-3.176-0.328-5.237-1.18
				c-0.701-0.288-1.431-0.29-2.1-0.134c-2.415,0.587-4.33,3.018-4.375,3.046l0.887,0.724c0.018-0.021,0.466-0.563,1.167-1.171
				c0.711-0.623,1.674-1.28,2.579-1.483c0.5-0.114,0.961-0.103,1.409,0.08c2.054,0.824,3.98,1.667,5.928,1.236
				c0.576-0.134,1.139-0.388,1.672-0.779c1.742-1.318,3.165-3.165,4.798-3.511c0.392-0.087,0.795-0.106,1.25-0.022l0.209-1.126
				c-0.609-0.11-1.186-0.088-1.717,0.034C78.862,116.663,77.432,118.691,75.857,119.821z"/>
			<path fill="#24B2A2" d="M63.782,122.862v-0.002V122.862z"/>
			<path fill="#24B2A2" d="M76.41,123.018c-0.414,0.304-0.826,0.487-1.25,0.587c-1.412,0.343-3.176-0.331-5.239-1.184
				c-0.703-0.29-1.433-0.29-2.096-0.134c-2.42,0.587-4.334,3.019-4.378,3.046l0.886,0.728v-0.002c0-0.002,0.451-0.551,1.168-1.171
				c0.708-0.626,1.674-1.282,2.581-1.484c0.496-0.115,0.958-0.105,1.407,0.077c2.05,0.825,3.979,1.67,5.928,1.239
				c0.575-0.133,1.138-0.389,1.671-0.78c1.741-1.318,3.163-3.166,4.798-3.51c0.39-0.087,0.793-0.106,1.25-0.025l0.204-1.123
				c-0.604-0.114-1.18-0.089-1.711,0.034C79.411,119.859,77.981,121.89,76.41,123.018z"/>
			<path fill="#24B2A2" d="M116.391,110.471c-0.414,0.304-0.825,0.488-1.249,0.587c-1.411,0.341-3.177-0.333-5.238-1.184
				c-0.701-0.287-1.431-0.29-2.1-0.134c-2.413,0.588-4.329,3.019-4.375,3.046l0.887,0.726c0.02-0.022,0.468-0.566,1.168-1.172
				c0.708-0.623,1.677-1.28,2.579-1.484c0.498-0.112,0.961-0.103,1.408,0.078c2.053,0.826,3.98,1.671,5.929,1.237
				c0.575-0.134,1.139-0.387,1.669-0.777c1.746-1.319,3.169-3.166,4.801-3.511c0.393-0.089,0.795-0.106,1.249-0.025l0.207-1.124
				c-0.607-0.11-1.184-0.087-1.714,0.036C119.395,107.312,117.964,109.343,116.391,110.471z"/>
			<polygon fill="#24B2A2" points="104.317,113.512 104.314,113.512 104.314,113.512 			"/>
			<path fill="#24B2A2" d="M116.943,113.666c-0.416,0.306-0.826,0.488-1.253,0.587c-1.409,0.344-3.174-0.331-5.235-1.183
				c-0.701-0.288-1.434-0.291-2.097-0.134c-2.417,0.587-4.333,3.018-4.378,3.046l0.886,0.727v-0.001
				c0-0.002,0.451-0.553,1.168-1.173c0.71-0.623,1.675-1.282,2.58-1.485c0.498-0.112,0.958-0.102,1.407,0.08
				c2.053,0.826,3.98,1.669,5.925,1.238c0.579-0.134,1.142-0.388,1.675-0.779c1.741-1.318,3.164-3.165,4.799-3.509
				c0.389-0.089,0.793-0.106,1.249-0.024l0.208-1.126c-0.608-0.112-1.184-0.088-1.716,0.036
				C119.944,110.509,118.516,112.538,116.943,113.666z"/>
			<path fill="#24B2A2" d="M97.46,117.356c-0.514-0.329-1.074-0.572-1.677-0.725c-0.603-0.153-1.192-0.292-1.765-0.412l-1.667-7.223
				l3.477-0.803l-0.292-1.272c-0.398-0.027-0.917-0.021-1.563,0.02c-0.645,0.039-1.323,0.121-2.038,0.245l-0.521-2.253l-1.669,0.384
				l0.525,2.283c-1.449,0.494-2.429,1.229-2.932,2.214c-0.504,0.987-0.583,2.231-0.239,3.732c0.221,0.945,0.525,1.705,0.924,2.279
				c0.398,0.57,0.85,1.035,1.358,1.388c0.509,0.349,1.059,0.607,1.645,0.776c0.587,0.168,1.165,0.312,1.741,0.433l1.693,7.345
				l-4.312,0.993l0.289,1.254c0.459,0.051,1.085,0.042,1.871-0.023c0.785-0.062,1.597-0.19,2.431-0.384l0.14-0.032l0.513,2.225
				l1.669-0.384l-0.539-2.336c1.567-0.575,2.59-1.359,3.076-2.359c0.482-1,0.543-2.277,0.184-3.832
				c-0.208-0.907-0.518-1.64-0.932-2.201C98.439,118.13,97.978,117.686,97.46,117.356z M92.14,115.695
				c-0.615-0.21-1.143-0.514-1.586-0.91c-0.444-0.396-0.76-0.999-0.947-1.817c-0.359-1.559,0.016-2.68,1.128-3.365L92.14,115.695z
				 M97.299,123.574c-0.181,0.579-0.592,1.078-1.237,1.503l-1.43-6.206c0.628,0.188,1.18,0.47,1.659,0.849
				c0.478,0.378,0.807,0.956,0.987,1.735C97.468,122.291,97.477,122.996,97.299,123.574z"/>
		</g>
		<g>
			<path fill="#24B2A2" d="M60.85,126.424l18.803,37.957l70.682-35.015l-18.807-37.958L60.85,126.424z M140.174,121.623
				c-2.546,1.263-3.589,4.354-2.327,6.902c0.471,0.949,1.196,1.689,2.049,2.18l-51.022,25.274c0.002-0.771-0.165-1.554-0.531-2.292
				c-1.263-2.549-4.352-3.591-6.902-2.328c-0.987,0.49-1.743,1.25-2.234,2.149l-9.449-19.074c1.08,0.217,2.234,0.097,3.298-0.431
				c2.551-1.262,3.593-4.354,2.33-6.903c-0.508-1.024-1.313-1.802-2.259-2.287l50.975-25.253c-0.002,0.771,0.165,1.553,0.531,2.292
				c1.263,2.549,4.354,3.592,6.901,2.329c0.383-0.19,0.728-0.427,1.04-0.691l8.78,17.723
				C140.955,121.302,140.559,121.431,140.174,121.623z"/>
			<path fill="#FFFFFF" d="M106.992,129.734l2.828,5.703c0.528-0.557,0.812-1.142,0.854-1.746c0.04-0.602-0.13-1.289-0.509-2.058
				c-0.355-0.715-0.809-1.201-1.36-1.459C108.25,129.918,107.648,129.771,106.992,129.734z"/>
			<path fill="#FFFFFF" d="M131.534,104.182c-2.547,1.263-5.639,0.22-6.902-2.329c-0.366-0.739-0.533-1.521-0.531-2.292
				l-50.974,25.253c0.945,0.485,1.75,1.263,2.259,2.287c1.263,2.549,0.221,5.642-2.33,6.903c-1.064,0.527-2.218,0.647-3.298,0.431
				l9.449,19.074c0.491-0.899,1.247-1.659,2.234-2.149c2.55-1.264,5.639-0.222,6.902,2.328c0.365,0.739,0.533,1.521,0.531,2.292
				l51.021-25.274c-0.853-0.49-1.578-1.231-2.048-2.18c-1.263-2.549-0.22-5.64,2.328-6.902c0.385-0.19,0.781-0.321,1.182-0.41
				l-8.78-17.723C132.262,103.756,131.918,103.991,131.534,104.182z M96.166,133.884c-0.465,0.024-0.852,0.135-1.213,0.313
				c-1.507,0.712-2.465,2.836-3.854,4.523c-0.428,0.505-0.918,0.881-1.449,1.143c-1.792,0.872-3.864,0.494-6.05,0.167
				c-0.477-0.076-0.931,0.021-1.387,0.247c-0.833,0.407-1.621,1.272-2.17,2.041c-0.549,0.771-0.862,1.41-0.862,1.41v0.002
				l-1.03-0.502c0.037-0.036,1.337-2.845,3.553-3.977c0.612-0.305,1.324-0.472,2.073-0.354c2.202,0.353,4.076,0.602,5.368-0.058
				c0.393-0.195,0.749-0.468,1.08-0.861c1.271-1.462,2.192-3.768,4.224-4.809c0.488-0.241,1.043-0.398,1.659-0.43L96.166,133.884z
				 M94.89,130.9c-0.462,0.024-0.85,0.137-1.21,0.313c-1.507,0.712-2.466,2.838-3.858,4.524c-0.428,0.503-0.916,0.88-1.447,1.143
				c-1.793,0.871-3.863,0.495-6.052,0.165c-0.478-0.072-0.932,0.024-1.387,0.25c-0.833,0.406-1.621,1.271-2.168,2.04
				c-0.539,0.753-0.852,1.384-0.865,1.412h0.001h-0.001l0,0l-1.03-0.502c0.037-0.037,1.34-2.845,3.553-3.976
				c0.612-0.306,1.324-0.472,2.076-0.354c2.199,0.351,4.072,0.598,5.366-0.063c0.392-0.191,0.749-0.465,1.082-0.858
				c1.271-1.462,2.191-3.767,4.224-4.808c0.485-0.241,1.04-0.396,1.659-0.43L94.89,130.9z M113.178,134.275
				c-0.239,1.084-1.054,2.086-2.443,3.008l1.063,2.146l-1.536,0.761l-1.014-2.047l-0.127,0.063c-0.767,0.38-1.526,0.691-2.277,0.936
				c-0.751,0.246-1.356,0.396-1.815,0.454l-0.569-1.151l3.963-1.966l-3.342-6.752c-0.589,0.016-1.187,0.007-1.795-0.021
				c-0.609-0.027-1.203-0.151-1.779-0.377c-0.578-0.223-1.125-0.569-1.643-1.033c-0.52-0.467-0.993-1.136-1.425-2.005
				c-0.685-1.383-0.892-2.61-0.631-3.686c0.266-1.075,1.046-2.02,2.343-2.835l-1.041-2.097l1.534-0.761l1.03,2.075
				c0.664-0.286,1.305-0.522,1.923-0.711c0.619-0.188,1.126-0.315,1.519-0.38l0.578,1.169l-3.198,1.585l3.291,6.641
				c0.587-0.015,1.191-0.018,1.812-0.004c0.621,0.01,1.222,0.114,1.797,0.315c0.582,0.202,1.134,0.526,1.663,0.974
				c0.532,0.45,1.001,1.09,1.415,1.924C113.181,131.935,113.419,133.19,113.178,134.275z M133.439,115.418
				c-0.466,0.024-0.852,0.138-1.213,0.313c-1.507,0.712-2.464,2.838-3.855,4.525c-0.426,0.502-0.918,0.881-1.448,1.143
				c-1.795,0.869-3.864,0.495-6.051,0.164c-0.478-0.072-0.932,0.024-1.388,0.25c-0.833,0.407-1.622,1.271-2.168,2.039
				c-0.552,0.771-0.865,1.409-0.865,1.411v0.003l-1.029-0.501c0.036-0.038,1.337-2.848,3.552-3.978
				c0.611-0.305,1.323-0.474,2.073-0.355c2.202,0.354,4.075,0.602,5.368-0.059c0.391-0.195,0.748-0.466,1.08-0.862
				c1.271-1.459,2.189-3.764,4.224-4.804c0.487-0.245,1.042-0.4,1.657-0.433L133.439,115.418z M132.163,112.434
				c-0.463,0.024-0.849,0.137-1.21,0.313c-1.508,0.711-2.465,2.837-3.858,4.523c-0.427,0.503-0.914,0.881-1.446,1.143
				c-1.793,0.872-3.863,0.496-6.053,0.167c-0.479-0.071-0.93,0.023-1.389,0.249c-0.833,0.408-1.621,1.272-2.168,2.042
				c-0.541,0.752-0.851,1.383-0.864,1.408h0.003h-0.003l0,0l-1.029-0.501c0.037-0.034,1.337-2.845,3.552-3.975
				c0.613-0.306,1.324-0.473,2.075-0.353c2.201,0.35,4.072,0.597,5.366-0.063c0.393-0.193,0.748-0.466,1.083-0.858
				c1.27-1.461,2.191-3.766,4.224-4.809c0.486-0.243,1.041-0.396,1.658-0.429L132.163,112.434z"/>
			<path fill="#FFFFFF" d="M100.74,125.152c0.371,0.751,0.82,1.268,1.341,1.55c0.521,0.283,1.108,0.457,1.756,0.519l-2.778-5.604
				C100.135,122.541,100.029,123.719,100.74,125.152z"/>
			<path fill="#24B2A2" d="M88.948,134.996c-0.334,0.393-0.69,0.667-1.082,0.858c-1.292,0.661-3.166,0.414-5.366,0.063
				c-0.75-0.118-1.462,0.048-2.076,0.354c-2.213,1.131-3.516,3.938-3.553,3.976l1.03,0.502c0.013-0.028,0.326-0.659,0.865-1.412
				c0.547-0.77,1.335-1.634,2.168-2.04c0.456-0.226,0.91-0.322,1.387-0.25c2.188,0.33,4.259,0.706,6.052-0.165
				c0.531-0.263,1.019-0.64,1.447-1.143c1.393-1.687,2.351-3.813,3.858-4.524c0.361-0.179,0.749-0.289,1.21-0.313l-0.059-1.143
				c-0.619,0.033-1.173,0.188-1.659,0.43C91.14,131.229,90.219,133.534,88.948,134.996z"/>
			<polygon fill="#24B2A2" points="77.904,140.748 77.901,140.748 77.901,140.748 			"/>
			<path fill="#24B2A2" d="M90.222,137.979c-0.332,0.393-0.687,0.665-1.08,0.86c-1.292,0.659-3.166,0.412-5.368,0.059
				c-0.749-0.117-1.46,0.05-2.073,0.355c-2.216,1.13-3.517,3.939-3.553,3.975l1.03,0.503v-0.002c0,0,0.313-0.64,0.862-1.41
				c0.549-0.769,1.337-1.634,2.17-2.041c0.458-0.226,0.91-0.323,1.387-0.247c2.188,0.327,4.259,0.705,6.05-0.166
				c0.531-0.263,1.021-0.639,1.449-1.144c1.39-1.688,2.348-3.813,3.854-4.523c0.362-0.18,0.749-0.29,1.213-0.313l-0.061-1.144
				c-0.616,0.031-1.171,0.188-1.659,0.431C92.414,134.212,91.492,136.518,90.222,137.979z"/>
			<path fill="#24B2A2" d="M126.222,116.53c-0.335,0.391-0.689,0.665-1.082,0.858c-1.292,0.66-3.165,0.413-5.365,0.063
				c-0.751-0.12-1.464,0.047-2.075,0.353c-2.216,1.13-3.517,3.94-3.553,3.975l1.029,0.501c0.013-0.025,0.323-0.656,0.865-1.408
				c0.547-0.77,1.335-1.634,2.167-2.042c0.458-0.225,0.911-0.32,1.388-0.249c2.189,0.329,4.26,0.705,6.054-0.167
				c0.532-0.262,1.02-0.64,1.445-1.143c1.395-1.687,2.351-3.813,3.858-4.523c0.361-0.178,0.749-0.289,1.212-0.313l-0.061-1.143
				c-0.618,0.033-1.172,0.187-1.658,0.43C128.414,112.765,127.493,115.069,126.222,116.53z"/>
			<polygon fill="#24B2A2" points="115.179,122.279 115.176,122.279 115.176,122.279 			"/>
			<path fill="#24B2A2" d="M127.497,119.512c-0.333,0.396-0.689,0.666-1.08,0.861c-1.293,0.661-3.166,0.414-5.368,0.06
				c-0.75-0.118-1.462,0.051-2.073,0.354c-2.215,1.132-3.516,3.94-3.552,3.979l1.03,0.501v-0.003c0-0.002,0.313-0.639,0.864-1.41
				c0.548-0.771,1.335-1.633,2.168-2.04c0.456-0.225,0.91-0.322,1.388-0.25c2.187,0.331,4.256,0.705,6.052-0.164
				c0.529-0.261,1.021-0.641,1.447-1.144c1.392-1.687,2.349-3.812,3.855-4.524c0.361-0.176,0.749-0.288,1.213-0.313l-0.062-1.144
				c-0.615,0.031-1.17,0.188-1.657,0.432C129.687,115.749,128.766,118.053,127.497,119.512z"/>
			<path fill="#24B2A2" d="M109.394,127.605c-0.575-0.202-1.176-0.307-1.797-0.315c-0.621-0.014-1.226-0.011-1.812,0.005
				l-3.291-6.641l3.198-1.586l-0.578-1.17c-0.393,0.064-0.899,0.191-1.519,0.381c-0.618,0.188-1.259,0.427-1.923,0.71l-1.03-2.074
				l-1.534,0.761l1.041,2.098c-1.297,0.814-2.078,1.759-2.343,2.833c-0.26,1.076-0.054,2.305,0.631,3.688
				c0.433,0.868,0.905,1.536,1.425,2.004c0.518,0.465,1.065,0.81,1.643,1.034c0.576,0.224,1.17,0.348,1.779,0.376
				c0.608,0.026,1.206,0.035,1.795,0.021l3.342,6.752l-3.963,1.965l0.569,1.152c0.46-0.057,1.064-0.208,1.815-0.454
				c0.75-0.244,1.511-0.556,2.277-0.936l0.127-0.063l1.014,2.047l1.536-0.761l-1.063-2.146c1.39-0.923,2.204-1.925,2.443-3.008
				c0.241-1.085,0.003-2.341-0.706-3.772c-0.415-0.834-0.885-1.475-1.415-1.924C110.527,128.132,109.975,127.808,109.394,127.605z
				 M103.837,127.221c-0.647-0.062-1.234-0.235-1.756-0.519c-0.521-0.282-0.97-0.798-1.341-1.55
				c-0.711-1.434-0.605-2.611,0.318-3.536L103.837,127.221z M110.675,133.692c-0.043,0.604-0.326,1.188-0.854,1.746l-2.828-5.704
				c0.656,0.036,1.258,0.184,1.813,0.44c0.551,0.259,1.006,0.745,1.361,1.461C110.545,132.404,110.715,133.092,110.675,133.692z"/>
		</g>
		<path fill="#F9BE96" d="M198.309,100.863c-0.038-4.535-0.505-8.982-0.879-13.438h-14.702
			c-29.688-17.879-45.88-19.229-45.88-19.229c-28.337,1.687-47.398,15.686-47.398,15.686l11.809-0.168l33.564,0.336v11.807
			c0,0-13.156-1.011-20.578-0.674c-7.422,0.337-7.422,8.433-2.361,11.807c5.061,3.372,22.267,3.036,22.267,3.036
			c5.601,8.092,22.686,4.698,25.3,4.124v-0.077h38.363C197.999,109.669,198.342,105.258,198.309,100.863z"/>
		<path fill="#F5B591" d="M198.238,104.965c0.047-1.368,0.08-2.736,0.068-4.102c-0.036-4.535-0.504-8.982-0.877-13.438h-14.703
			c-29.688-17.879-45.88-19.229-45.88-19.229c-21.158,1.261-37.144,9.383-43.883,13.418c5.705,0.633,11.394,1.364,17.067,2.188
			l24.792,0.25v3.991C156.3,92.271,177.476,97.922,198.238,104.965z"/>
		<path fill="#FFFFFF" d="M198.309,100.863c-0.038-4.65-0.529-9.208-0.908-13.777h-9.953v27.665h10.341
			C197.967,110.121,198.345,105.483,198.309,100.863z"/>
		<path fill="#2C404A" d="M198.309,100.863c-0.042-5.106-0.626-10.102-1.012-15.125h-7.487v29.011h7.979
			C197.967,110.121,198.345,105.483,198.309,100.863z"/>
		<path fill="#FFFFFF" d="M198.058,109.073c-0.481-0.452-1.126-0.733-1.838-0.733c-1.491,0-2.699,1.209-2.699,2.698
			c0,1.49,1.208,2.698,2.699,2.698c0.614,0,1.175-0.214,1.629-0.559C197.914,111.81,197.986,110.44,198.058,109.073z"/>
		<path fill="#FDE2D1" d="M118.293,97.544l-0.674,8.098c0,0-7.758,0-6.747-5.062C111.883,95.521,118.293,97.544,118.293,97.544z"/>
	</g>
</g>
</svg>
