<?xml version="1.0" encoding="utf-8"?>
<!-- Generator: Adobe Illustrator 16.0.0, SVG Export Plug-In . SVG Version: 6.00 Build 0)  -->
<!DOCTYPE svg PUBLIC "-//W3C//DTD SVG 1.1//EN" "http://www.w3.org/Graphics/SVG/1.1/DTD/svg11.dtd">
<svg version="1.1" id="Capa_1" xmlns="http://www.w3.org/2000/svg" xmlns:xlink="http://www.w3.org/1999/xlink" x="0px" y="0px"
	 width="200px" height="200px" viewBox="0 0 200 200" enable-background="new 0 0 200 200" xml:space="preserve">
<g>
	<circle fill="#E63A12" cx="100.406" cy="99.358" r="97.898"/>
	<g>
		<path fill="#C21718" d="M197.632,88.031l-74.859-49.442v30.453h-2.297v2.803H96.003v97.627l34.479,23.059
			c39.348-12.695,67.823-49.602,67.823-93.173C198.305,95.525,198.062,91.75,197.632,88.031z"/>
	</g>
	<g>
		<g>
			<path fill="#F0C414" d="M100.079,32.516c-47.971,0-44.901,55.431-37.826,68.439c5.75,10.578,13.257,14.139,13.257,27.98
				c0,0.073,0,0.273,0,0.578h47.401c0-0.305-0.001-0.505-0.003-0.578c-0.212-11.601,4.855-14.137,13.26-27.98
				C143.853,88.298,147.655,32.516,100.079,32.516z"/>
			<path fill="#F69F27" d="M100.662,32.528v107.814h22.231c0.011-6.379,0.026-10.984,0.016-11.407
				c-0.212-11.601,4.855-14.137,13.26-27.98C143.82,88.35,147.615,32.988,100.662,32.528z"/>
			<g>
				<path fill="#58301E" d="M75.51,128.936c0,0.605,0.008,9.74,0.028,20.391h47.32c0.021-10.65,0.051-19.785,0.051-20.391H75.51z"/>
				<polygon fill="#58301E" points="90.593,163.972 107.813,163.932 122.857,149.326 93.206,147.313 75.538,149.326 				"/>
			</g>
			<g>
				<path fill="#3B2415" d="M100.662,128.936v20.391h22.196c0.021-10.65,0.051-19.785,0.051-20.391H100.662z"/>
			</g>
			<path fill="#FFFFFF" d="M90.593,163.972c1.708,3.51,4.199,6.033,8.586,6.033c4.386,0,6.919-2.792,8.634-6.073L90.593,163.972z"/>
		</g>
		<g>
			<polygon fill="#3B2415" points="107.813,163.932 122.857,149.326 100.662,147.818 100.662,163.944 			"/>
		</g>
	</g>
</g>
</svg>
