<?xml version="1.0" encoding="utf-8"?>
<!-- Generator: Adobe Illustrator 16.0.0, SVG Export Plug-In . SVG Version: 6.00 Build 0)  -->
<!DOCTYPE svg PUBLIC "-//W3C//DTD SVG 1.1//EN" "http://www.w3.org/Graphics/SVG/1.1/DTD/svg11.dtd">
<svg version="1.1" id="Capa_1" xmlns="http://www.w3.org/2000/svg" xmlns:xlink="http://www.w3.org/1999/xlink" x="0px" y="0px"
	 width="200px" height="200px" viewBox="0 0 200 200" enable-background="new 0 0 200 200" xml:space="preserve">
<g>
	<g>
		<circle fill="#F49614" cx="100.802" cy="99.654" r="98.115"/>
	</g>
	<path fill="#CE6614" d="M196.461,77.88l-57.694-37.696v67.004H69.779v54.274l52.071,34.02
		c44.067-9.636,77.067-48.867,77.067-95.827C198.917,92.167,198.048,84.887,196.461,77.88z"/>
	<g>
		<g>
			<path fill="#385E71" d="M101.334,29.327c-38.523,0-69.754,31.23-69.754,69.753c0,38.523,31.231,69.754,69.754,69.754
				c38.524,0,69.755-31.231,69.755-69.754C171.089,60.557,139.858,29.327,101.334,29.327z M101.334,155.316
				c-31.056,0-56.235-25.179-56.235-56.236c0-31.058,25.179-56.236,56.235-56.236c31.06,0,56.234,25.178,56.234,56.236
				C157.568,130.138,132.394,155.316,101.334,155.316z"/>
			<path fill="#060810" d="M101.338,29.327v13.518c31.056,0.001,56.23,25.178,56.23,56.236c0,31.057-25.175,56.234-56.23,56.236
				v13.519c38.523-0.001,69.751-31.231,69.751-69.754C171.089,60.557,139.861,29.328,101.338,29.327z"/>
			<circle fill="#D1BBB4" cx="101.334" cy="99.081" r="56.236"/>
			<circle fill="#FFFEF4" cx="101.334" cy="99.08" r="50.828"/>
			<path fill="#F0F4F4" d="M101.334,48.252c-0.084,0-0.168,0.005-0.252,0.005v101.646c0.084,0,0.168,0.005,0.252,0.005
				c28.072,0,50.827-22.756,50.827-50.828C152.161,71.01,129.406,48.252,101.334,48.252z"/>
			<path fill="#385E71" d="M103.037,155.036c0,0.952-0.772,1.725-1.724,1.725l0,0c-0.953,0-1.725-0.772-1.725-1.725v-9.582
				c0-0.952,0.772-1.725,1.725-1.725l0,0c0.951,0,1.724,0.772,1.724,1.725V155.036z"/>
			<path fill="#060810" d="M101.338,143.733v13.022c0.938-0.014,1.699-0.775,1.699-1.72v-9.582
				C103.037,144.509,102.276,143.746,101.338,143.733z"/>
		</g>
		<path fill="#0F2336" d="M54.8,96.748c0.954,0,1.726,0.772,1.726,1.725l0,0c0,0.953-0.772,1.725-1.726,1.725h-9.582
			c-0.952,0-1.724-0.772-1.724-1.725l0,0c0-0.952,0.771-1.725,1.724-1.725H54.8z"/>
		<path fill="#060810" d="M157.322,96.748c0.953,0,1.725,0.772,1.725,1.725l0,0c0,0.953-0.771,1.725-1.725,1.725h-9.581
			c-0.952,0-1.724-0.772-1.724-1.725l0,0c0-0.952,0.771-1.725,1.724-1.725H157.322z"/>
		<path fill="#385E71" d="M103.037,52.705c0,0.952-0.772,1.725-1.724,1.725l0,0c-0.953,0-1.725-0.772-1.725-1.725v-9.581
			c0-0.952,0.772-1.725,1.725-1.725l0,0c0.951,0,1.724,0.772,1.724,1.725V52.705z"/>
		<path fill="#060810" d="M101.338,41.403v13.023c0.938-0.013,1.699-0.776,1.699-1.721v-9.581
			C103.037,42.179,102.276,41.416,101.338,41.403z"/>
		<path fill="#DD3D2D" d="M126.881,128.847l-25.19-29.138l-1.74,1.503l25.19,29.138c0.417,0.481,1.145,0.534,1.624,0.117
			C127.243,130.052,127.298,129.327,126.881,128.847z"/>
		<circle fill="#0F2336" cx="101.337" cy="98.696" r="5.941"/>
		<path fill="#0F2336" d="M142.184,97.323h-38.518v2.3h38.518c0.635,0,1.15-0.515,1.15-1.15
			C143.334,97.838,142.818,97.323,142.184,97.323z"/>
		<path fill="#0F2336" d="M103.805,97.227c0,1.376-1.115,2.492-2.491,2.492l0,0c-1.375,0-2.491-1.115-2.491-2.492v-36.92
			c0-1.375,1.117-2.49,2.491-2.49l0,0c1.376,0,2.491,1.115,2.491,2.49V97.227z"/>
		<path fill="#060810" d="M105.362,98.696c0,2.223-1.803,4.025-4.024,4.025c-2.226,0-4.025-1.802-4.025-4.025
			c0-2.222,1.799-4.024,4.025-4.024C103.56,94.671,105.362,96.474,105.362,98.696z"/>
	</g>
</g>
</svg>
