<?xml version="1.0" encoding="utf-8"?>
<!-- Generator: Adobe Illustrator 16.0.0, SVG Export Plug-In . SVG Version: 6.00 Build 0)  -->
<!DOCTYPE svg PUBLIC "-//W3C//DTD SVG 1.1//EN" "http://www.w3.org/Graphics/SVG/1.1/DTD/svg11.dtd">
<svg version="1.1" id="Capa_1" xmlns="http://www.w3.org/2000/svg" xmlns:xlink="http://www.w3.org/1999/xlink" x="0px" y="0px"
	 width="936.5px" height="202px" viewBox="-398.5 -103 936.5 202" enable-background="new -398.5 -103 936.5 202"
	 xml:space="preserve">
<g id="_x23_ffffffff">
	<path fill="#FFFFFF" d="M13.148-34.856c5.591-0.509,11.196-0.237,16.802-0.373c2,2.354,6.064,3.998,5.573,7.622l2.117-0.338
		c-0.423,4.234-0.644,8.502,0.068,12.737l-1.71,0.22c-0.559,3.523-3.387,6.521-7.13,6.402l0.44,2.05
		c-4.42-0.847-8.909-1.017-13.295-0.034l0.119-2.083c-3.794,0.135-5.86-3.303-8.385-5.521c0.033-0.763,0.118-2.303,0.169-3.083
		c-2.845-1.643-1.981-4.946-2.457-7.554l2.524,0.05c-0.559-2.829-0.389-6.437,3.184-6.911
		C11.658-32.469,12.657-34.061,13.148-34.856z"/>
	<path fill="#FFFFFF" d="M460.827-31.978c1.456,0.034,2.93,0.085,4.42,0.136c2.389,1.27,4.929,2.202,7.622,2.778
		c-0.253-0.491-0.744-1.474-0.999-1.965c1.558,0.289,4.657,0.847,6.199,1.135c-0.236,0.508-0.694,1.524-0.932,2.015
		c1.051-0.271,3.149-0.83,4.2-1.101l-0.253,2.422c0.88-0.119,2.642-0.372,3.522-0.491l-0.542,2.642l1.946-0.508
		c-0.659,3.015,2.474,3.964,4.134,5.572c-0.83-0.999-2.508-2.997-3.336-3.997c1.016-0.491,3.048-1.457,4.063-1.931
		c-0.287-1.27-0.847-3.811-1.118-5.081c8.013-0.033,16.041,0,24.07-0.017c0,13.974,0,27.947,0,41.92
		c-8.588,0-17.176,0.084-25.745-0.034c-0.729-1.846-1.525-3.642-2.405-5.419c-1.49-6.132-6.995-8.774-12.076-11.484
		c-0.662,0.017-2,0.034-2.66,0.051c-2.644,1.914-5.827,2.929-8.333,5.014c-2.812,3.455-4.861,7.452-7.521,11.009
		c0.526,0.135,1.609,0.423,2.152,0.558c-0.898,1.863-1.881,3.659-2.947,5.42c-0.068,1.948-0.085,3.913-0.035,5.861
		c2.236,1.879,1.948,4.555,1.762,7.112c2.592,3.523,4.134,8.333,8.3,10.315c-0.168,0.493-0.542,1.492-0.711,1.981
		c0.932-0.337,2.812-0.999,3.743-1.336c-0.152,0.695-0.475,2.066-0.627,2.743c3.946-1.559,8.3-0.932,12.348-0.05
		c-0.152-0.407-0.475-1.237-0.644-1.644c4.031-0.88,5.302-4.895,7.283-7.91c-2.405,0.135-4.811,0.271-7.215,0.407
		c-2.744-5.114-1.306-11.094-1.441-16.632c15.618-0.237,31.251-0.136,46.868-0.034c0,4.658,0.27,9.333-0.086,13.99
		c-1.338,2.709-4.335,2.541-6.876,2.66c-0.052,10.619,0.119,21.221-0.119,31.826c-10.128,0.085-20.29,0.627-30.353-0.508
		c0.407-1.373,0.831-2.728,1.254-4.099l-2.507,1.406c0.051-1.39,0.153-4.168,0.203-5.557c-0.186,0.864-0.541,2.574-0.728,3.439
		c-2.033,1.727-4.015,3.793-6.895,3.708l0.526,1.271c-8.64,3.151-17.836,0.949-26.829,2.253l0.524-2.303
		c-3.1,0.813-5.945-0.255-8.705-1.524c-6.979-4.403-12.924-10.435-17.345-17.378c0.152-0.559,0.475-1.712,0.644-2.288l-2.44-0.323
		c0.119-0.559,0.374-1.659,0.51-2.2c-2.253-1.747-2.828-4.049-1.693-6.911l-2.372,0.372c0.644-10.434,0.694-20.936-0.033-31.369
		l2.642,0.203c-0.288-1.354-0.847-4.065-1.135-5.419l2.354,0.067c-0.236-8.299,6.793-14.481,12.128-20.037
		c2.625-3.252,6.487-4.895,10.078-6.843C450.935-31.401,456.846-28.268,460.827-31.978z"/>
	<path fill="#FFFFFF" d="M-332.852-30.368c17.038,0.102,34.095-0.22,51.134,0.169c3.066,2.846,7.741,2.591,10.874,0.05
		c0.695,0.847,2.068,2.575,2.761,3.439c6.522-0.169,12.619,5.419,14.635,11.365l1.694,0.389c-0.136,0.525-0.391,1.559-0.526,2.083
		c4.642,5.285-0.033,13.262,2.27,19.63c-0.491-0.152-1.49-0.474-1.998-0.644c-0.068,5.234-5.437,10.129-10.451,10.925l0.592,1.762
		c-1.422-0.169-4.268-0.509-5.673-0.678c-0.051,0.237-0.136,0.729-0.187,0.966c6.505,0.305,13.077,5.86,14.432,12.161
		c3.083,4.946-0.626,11.637,3.456,16.633c1.032-3.252,1.591-6.606,1.643-10.01c3.743,0.118,7.486,0.084,11.229-0.017
		c-0.152,3.675-0.22,7.351-0.101,11.026c0.491,0.152,1.49,0.491,1.998,0.66c2.185-5.081-1.067-11.568,2.557-16.479
		c1.289-1.643,2.491-3.388,3.406-5.268c2.522-1.32,4.911-2.931,7.604-3.896l0.61-1.659c0.931,0.236,2.795,0.693,3.727,0.929
		l-0.288-2.658c6.385,0.762,12.821,0.203,19.24,0.423c0.491,0.524,1.474,1.558,1.965,2.083c0.458-0.237,1.39-0.695,1.864-0.932
		c0.372-1.54,0.744-3.065,1.135-4.59l-2.559,1.525l1.205-3.269c-0.847,0.339-2.524,0.982-3.371,1.304
		c-0.204-0.999-0.627-3.032-0.831-4.048l-0.457,2.694c-4.812-0.356-9.638-0.255-14.397-1.05l0.253,2.557
		c-1.355-0.288-4.064-0.83-5.42-1.101l0.982,1.847c-1.744,0.694-3.472,1.423-5.199,2.169c-1.305-0.119-3.914-0.374-5.217-0.51
		c0.304-1.185,0.896-3.574,1.202-4.776l-2.914,0.186c0.271-1.271,0.813-3.811,1.068-5.082l-2.508,0.153
		c0.796-3.049-1.169-7.554,2.354-9.231c3.574-1.999,7.301-4.404,11.586-3.693l-0.187-2.049c3.015,0.593,5.844,0.136,8.366-1.643
		c5.504,0.745,11.027,0.508,16.514-0.034c3.032,1.914,6.707,1.626,9.858,3.133c1.71,0.322,3.336,0.881,4.913,1.66
		c5.334,1.964,10.196,5.979,10.79,12.008l1.271,0.018c-0.374,3.743,2.878,6.504,2.337,10.282c0.169,9.229,1.456,18.749-0.694,27.812
		c3.167,0.676,8.502-2.101,9.959,1.727c0.136,5.284,0.355,10.637-0.627,15.853c-9.739,0.187-19.495,0.254-29.234,0.086
		c-2.27-0.34-6.522-1.694-4.183-5.114c-2.795,2.878-5.505,6.553-9.858,6.908c-3.692,3.118-8.469,0.407-12.72,1.39
		c-3.794,1.321-6.539-2.337-10.298-1.946l-0.016-1.933c-0.646,0.152-1.932,0.44-2.576,0.593c-5.149-2.93-9.18-7.47-11.349-12.975
		c-3.048-0.777-3.319,3.693-3.455,5.742c-1.795,3.914-4.895,7.232-8.977,8.757c-7.03,0.407-14.093,0.052-21.137,0.136
		c-0.695-0.456-2.117-1.354-2.812-1.813c-0.339,0.051-1.018,0.169-1.355,0.222c-3.946-2.017-6.979-5.286-9.096-9.147
		c0.068-0.322,0.204-0.966,0.27-1.286c-1.336-1.764-2.455-3.643-3.589-5.54l2.201,0.524c-0.795-3.659,0.152-7.976-2.473-11.026
		c0.068-2.27,0.204-4.522,0.44-6.775c-0.61,0.119-1.846,0.374-2.456,0.509c0.322-0.678,0.982-2.035,1.305-2.711
		c-1.05-0.541-3.151-1.609-4.201-2.152c-1.609,2.914-3.591,1.981-5.589-0.017c0.101,6.471,0.051,12.941,0.068,19.394
		c2.913,0,5.825,0,8.74-0.035c0,6.133,0,12.247,0,18.378c-15.16-0.084-30.319,0.119-45.479-0.117
		c-0.152-6.031-0.152-12.062-0.017-18.107c2.337-0.068,4.658-0.119,6.979-0.17c0.136-19.392,0-38.786,0.068-58.18
		c-2.337-0.051-4.692-0.102-7.046-0.17C-332.971-17.208-332.904-23.797-332.852-30.368 M-296.928-10.771
		c-0.254,7.503-0.254,15.023-0.018,22.527c5.505,0.236,11.891,0.695,16.159-3.489c3.609-4.099,3.303-10.857,0.339-15.21
		C-284.411-11.923-291.374-10.585-296.928-10.771 M-208.429,37.331c0.644,0.898,1.914,2.676,2.541,3.574l-2.964-0.238
		c0.271,2.322,0.305,4.641,0.05,6.98l2.915-0.238c-0.627,0.898-1.897,2.692-2.524,3.591c4.861-1.134,10.095-1.422,14.905,0.102
		l-3.065-4.132l4.572,2.913c-0.321-0.779-0.964-2.37-1.287-3.151c0.508-2.913,0.084-5.809-0.644-8.621
		C-198.758,37.806-203.687,38.55-208.429,37.331z"/>
	<path fill="#FFFFFF" d="M46.431-30.334c17.716-0.085,35.417,0,53.133-0.034c1.287,2.541,2.658,5.047,3.996,7.571
		c-0.931,0.203-2.793,0.626-3.725,0.847c0.915,0.153,2.726,0.441,3.641,0.593c0.355,1.491,1.067,4.456,1.422,5.946
		c-0.847-0.018-2.541-0.018-3.369-0.034c0.982,0.22,2.946,0.644,3.928,0.864c-1.406,4.523,3.202,7.707,2.168,12.11
		c0.695,1.322,2.066,3.981,2.761,5.302c-0.915,0.118-2.761,0.372-3.675,0.491c1.034,0.22,3.083,0.661,4.115,0.881
		c-0.136,1.203-0.423,3.642-0.559,4.861c0.949,1.303,2.863,3.946,3.811,5.25c-1.032,0.271-3.082,0.796-4.115,1.067
		c1.574,0.237,3.167,0.458,4.76,0.678c-0.271-2.219-0.559-4.438-0.797-6.657c1.034-0.305,3.1-0.915,4.134-1.22
		c-0.779,0.035-2.337,0.119-3.117,0.153c0.305-1.508,0.896-4.522,1.203-6.03c0.915-0.119,2.761-0.356,3.692-0.475
		c-1.05-0.338-3.133-0.999-4.183-1.321c1.643-2.185,3.336-4.336,5.082-6.436l-3.151,0.49c1.287-2.541,2.812-4.928,4.642-7.131
		l-2.728,0.051c1.186-2.49,2.728-4.759,4.505-6.876c-0.711,0.102-2.134,0.305-2.845,0.406c1.27-2.405,2.642-4.725,4.251-6.927
		c-0.644-0.102-1.931-0.288-2.574-0.372c0.44-1.034,1.32-3.065,1.778-4.082c17.818,0,35.637,0,53.455,0
		c0.017,6.589,0.084,13.161-0.017,19.75c-2.27,0.017-4.541,0.017-6.792,0.017c0.168,19.512,0.084,39.008,0.05,58.519
		c2.236,0.035,4.472,0.084,6.707,0.136c0.119,5.979,0.119,11.957-0.017,17.955c-14.397,0.168-28.811,0.168-43.208,0
		c-0.168-5.979-0.152-11.976-0.017-17.972c2.202-0.035,4.42-0.084,6.656-0.119c-0.305-13.007,0.101-26.017-0.237-39.023
		c-3.303,2.32-0.559,6.961-3.71,9.315c0.103,1.22,0.304,3.642,0.407,4.861c-1.287,0.339-2.557,0.694-3.827,1.05l3.692,0.779
		c-3.844,4.777-4.726,11.028-5.234,16.956c-0.966,0.202-2.896,0.625-3.846,0.829c0.95,0.119,2.847,0.339,3.794,0.458
		c-1.253,2.506-2.777,4.827-4.539,6.995l2.794-0.136c-1.032,1.881-2.099,3.76-3.252,5.572c-0.068,2.338,0.355,4.979-1.795,6.673
		c0.101,0.949,0.288,2.813,0.372,3.762c-10.806,0.185-21.628,0.065-32.435,0.084c0.288-1.001,0.88-2.999,1.168-4.015l-2.592,0.34
		c-0.017-1.762-0.017-3.542-0.017-5.302c-2.218-3.93-1.965-8.792-4.895-12.501c0.948-0.017,2.829-0.066,3.776-0.101
		c-0.999-0.22-2.98-0.677-3.963-0.915c1.237-4.031-1.151-7.096-3.472-10.078c0.982-0.304,2.929-0.915,3.912-1.203
		c-1-0.168-3.014-0.491-4.013-0.643c0.101-1.219,0.321-3.659,0.44-4.878c-0.931-1.39-2.76-4.167-3.675-5.556
		c0.964-0.101,2.93-0.304,3.912-0.405c-1.914-0.711-3.811-1.457-5.673-2.236c0.304,9.858-0.711,19.783,0.66,29.555
		c1.458-0.016,4.337-0.066,5.792-0.083c0.119,5.978,0.119,11.958-0.016,17.937c-12.872,0.22-25.746,0.05-38.618,0.084
		c0-6.047,0-12.111,0-18.157c2.896,0.084,5.809,0.084,8.722,0.066c0.051-19.495,0.019-39.006,0.019-58.519
		c-2.915-0.051-5.828-0.119-8.74-0.101C46.364-17.19,46.296-23.763,46.431-30.334z"/>
	<path fill="#FFFFFF" d="M188.96-30.368c17.312,0,34.638,0,51.966,0c0.05,6.657,0.084,13.33-0.018,19.986
		c-2.81,0-5.605,0-8.401-0.068c-1.271,2.203-1.795,4.675-1.575,7.216c0.068,20.884,0,41.768,0.051,62.652
		c0.592,3.743-3.116,6.996-0.576,10.536c-0.982,1.371-2,2.726-3.015,4.064c0.016,0.745,0.067,2.236,0.084,2.964
		c-3.387,6.029-8.417,11.145-14.465,14.498c-0.744,0-2.252-0.033-2.997-0.05c-1.389,1.05-2.779,2.065-4.185,3.048
		c-0.813-0.304-2.473-0.897-3.302-1.202c-4.489,2.524-9.706,1.591-14.619,1.626c-1.048-0.66-3.166-1.981-4.216-2.642
		c0.016-6.573-0.086-13.127,0.152-19.682c3.794,1.252,7.571,2.506,11.314,0.339c0.931-1.593,1.813-3.202,2.66-4.845
		c0.744-0.084,2.236-0.236,2.98-0.322l-4.031-0.728c0.966-1.339,2.896-4.031,3.844-5.369c0.441-23.984,0.103-48.001,0.187-71.985
		c-3.93-0.017-7.858-0.034-11.789-0.034C188.979-17.021,189.063-23.695,188.96-30.368z"/>
	<path fill="#FFFFFF" d="M246.735-30.368c16.938,0.084,33.892-0.152,50.83,0.118c3.846,4.15,9.807-0.034,14.024,3.083
		c6.233,1.101,12.229,5.691,14.21,11.805l1.018,0.289c4.099,7.774,0.695,16.835,2.37,25.186l-1.913-0.237
		c-0.085,5.674-4.777,9.62-9.012,12.687c-2.709,1.202-5.419,2.438-8.282,3.184c-3.794,2.711-9.061-0.763-12.398,2.964
		c-4.895,0.237-9.84,0.018-14.685,0.898c0.153,5.233,0.136,10.483,0.051,15.717c0.814,0.628,2.422,1.864,3.219,2.491
		c1.271,0.017,3.793,0.033,5.063,0.05c0.187,6.047,0.187,12.078,0,18.125c-14.77,0.185-29.522,0.185-44.274,0
		c-0.204-6.031-0.187-12.078-0.051-18.125c2.067-0.05,4.15-0.083,6.234-0.117c0-19.462-0.374-38.923,0.204-58.367
		c-2.168,0.05-4.32,0.084-6.454,0.118C246.735-17.123,246.922-23.745,246.735-30.368 M281.829-11.686
		c1.881,8.079,0.152,16.463,1.187,24.644c3.455,0.05,6.91,0.203,10.365,0.609c0.305-0.729,0.898-2.202,1.203-2.947
		c1.219,0.474,3.675,1.422,4.895,1.88l-2.761-4.082l4.387,2.676l-2.474-4.607l3.507,2.778c-0.966-5.064-0.813-10.281-0.372-15.396
		c-1.39-1.304-2.728-2.643-4.031-3.997c-0.627,0.372-1.848,1.135-2.456,1.507l0.102-2.98
		C290.925-10.619,286.216-10.195,281.829-11.686z"/>
	<path fill="#FFFFFF" d="M332.813-30.368c28.15,0.017,56.317,0,84.468,0c0,10.67,0,21.341,0,32.029
		c-8.402-0.051-16.804,0.034-25.186-0.068c-0.595-3.98,1.438-9.214-2.695-11.772c-6.062-0.339-12.126-0.034-18.189-0.102
		c-0.051,5.86-0.034,11.704-0.034,17.564c8.503,0,17.005-0.051,25.509,0.05c0.067,6.572-0.052,13.126,0.136,19.7
		c-8.556-0.136-17.108,0.049-25.661-0.103c0.118,6.031-0.169,12.093,0.118,18.124c4.148,4.861,11.483,1.761,17.09,2.489
		c5.877-1.338,2.896-8.859,3.641-13.211c8.42-0.136,16.854,0.051,25.272-0.154c0,10.655,0,21.291,0,31.945
		c-28.082,0.22-56.184,0.084-84.265,0.067c-0.339-1.102-1.05-3.301-1.405-4.402c-0.171-4.726-0.136-9.503,1.116-14.093
		c2.914-0.22,6.506,0.662,8.249-2.438c0.136-17.751,0.187-35.519-0.033-53.269c-1.593-3.151-5.116-2.202-7.944-2.287
		c-0.355-1.017-1.051-3.066-1.388-4.099C331.304-19.766,331.864-25.101,332.813-30.368z"/>
	<path fill="#FFFFFF" d="M-139.831-2.743c4.572-0.61,8.79-3.15,13.55-2.219c4.386,1.203,8.74,2.524,13.126,3.76
		c-0.255,0.678-0.746,2.05-0.982,2.728l1.965-1.524c0.321,2.93,2.59,4.844,4.487,6.809c-1.067-1.542-2.168-3.066-3.285-4.557
		c1.1-1.948,2.37-3.743,3.811-5.437c5.996-0.271,12.008-0.017,18.004-0.084c0,8.909,0,17.818,0,26.71
		c-6.081-0.186-12.23-0.541-18.276,0.035l-2.202,2.152c1.575,0.372,4.726,1.1,6.3,1.472c2.574,0.339,4.674,1.78,6.691,3.321
		c3.235,2.286,7.52,4.81,7.571,9.281c2.32,4.031,2.964,10.551-0.44,14.091c0.049,0.746,0.152,2.236,0.203,2.982
		c-3.829,3.388-6.826,8.773-12.314,9.433c-1.897,1.034-3.794,2.033-5.708,3.034c0.238-0.526,0.694-1.559,0.931-2.084
		c-5.826,0.678-11.686,0.525-17.53,0.355c-0.475-0.491-1.439-1.457-1.93-1.947c-0.95,0.202-2.863,0.576-3.829,0.761l1.305-2.302
		c-3.811,1.064-4.861-3.101-5.572-5.76c-0.66,2.608-1.305,5.2-1.982,7.807c-5.708,0.035-11.416,0.07-17.125-0.082
		c-0.22-8.216-0.185-16.432-0.033-24.646c6.69-0.22,13.363-0.084,20.054-0.152c-0.271,0.88-0.814,2.643-1.083,3.523l2.693-0.662
		l-1.102,2.795c0.61-0.255,1.813-0.761,2.405-1.016l0.594,1.795c3.811,1.88,7.978,2.304,12.177,2.288
		c2.896-4.354-1.491-5.928-4.81-7.42c-3.675-0.559-6.927-2.742-10.79-1.879l0.322-1.998c-2.999,0.642-5.743-0.458-8.419-1.661
		c-4.522-2.372-7.858-6.352-10.568-10.603c0.169-0.711,0.491-2.168,0.644-2.88l-2.592,0.117c0.576-4.436,0.559-8.891,0.271-13.346
		c1.83-4.336,4.861-8.892,9.671-10.145l0.524-1.593c0.729,0.169,2.22,0.525,2.947,0.694L-139.831-2.743 M-123.724,13.06
		c-0.95,0.965-2.829,2.896-3.778,3.861c1.897,1.084,3.71,2.27,5.437,3.591c2.389,0.407,4.676,1.27,6.929,2.185
		c1.896,3.133,5.199,0.847,7.486-0.271c-3.371-3.573-7.149-6.724-11.383-9.248C-120.591,13.145-122.166,13.11-123.724,13.06z"/>
	<path fill="#FFFFFF" d="M-25.774-4.86c1.795,1.016,3.591,2.032,5.386,3.065c2.321,0.592,4.557,1.457,6.81,2.303
		c3.657,3.862,8.045,7.368,9.281,12.839l0.999,0.406c2.643,3.998,0.662,9.283,3.811,12.907c-0.389,5.538,2,12.313-2.794,16.547
		l3.082,0.288c-1.151,1.677-2.302,3.354-3.456,5.032c-0.117,2.644-1.659,4.726-3.166,6.775c-2.541,3.827-5.86,7.146-9.671,9.723
		c-6.911,4.454-15.228,1.591-22.833,3.149c-3.404,0.762-6.132-2.15-9.384-2.558c-0.236-0.813-0.711-2.438-0.948-3.235
		c-0.339,4.218-0.288,8.452-0.323,12.687c2.354,0.033,4.709,0.103,7.063,0.169c0.119,6.573,0.051,13.144,0.119,19.733
		c-14.042,0-28.083,0-42.124,0c-1.237-5.234-1.135-10.604-0.982-15.939c0.288-1.016,0.88-3.048,1.169-4.065
		c2.674,0.798,4.792-0.439,6.571-2.387c-0.103-17.836-0.119-35.671,0.017-53.489c-1.862-1.863-4.115-2.846-6.758-2.456
		c-1.626-6.504-1.39-13.364-0.017-19.902c10.925,0.017,21.867-0.017,32.809,0.017c0.982,1.152,1.981,2.321,2.964,3.489
		c6.588-5.183,15.209-2.845,22.882-2.964L-25.774-4.86 M-43.083,17.329c-5.963,3.878-6.555,11.856-6.047,18.309
		c0.321,5.607,2.88,12.551,8.943,14.025c5.166,0,8.298-5.082,9.146-9.62c1.287-6.843,1.102-14.652-3.167-20.478
		C-36.123,16.735-40.119,15.431-43.083,17.329z"/>
	<path fill="#FFFFFF" d="M2.461-3.268c11.11,0,22.223,0,33.333,0c-0.559,17.056-0.186,34.163-0.186,51.236
		c2.337-0.051,4.691-0.103,7.063-0.185c-0.086,6.08,0.033,12.177-0.119,18.274c-13.262,0.086-26.524,0.051-39.787,0
		c-0.117-6.148-0.033-12.313-0.117-18.479c1.271,0.152,3.792,0.441,5.046,0.594C7.407,37.467,7.187,26.729,7.847,16.024
		c-1.303,0.22-3.896,0.643-5.199,0.847C2.716,10.164,2.833,3.439,2.461-3.268z"/>
</g>
</svg>
