<?xml version="1.0" encoding="utf-8"?>
<!-- Generator: Adobe Illustrator 16.0.0, SVG Export Plug-In . SVG Version: 6.00 Build 0)  -->
<!DOCTYPE svg PUBLIC "-//W3C//DTD SVG 1.1//EN" "http://www.w3.org/Graphics/SVG/1.1/DTD/svg11.dtd">
<svg version="1.1" id="Capa_1" xmlns="http://www.w3.org/2000/svg" xmlns:xlink="http://www.w3.org/1999/xlink" x="0px" y="0px"
	 width="169.148px" height="60.656px" viewBox="0 0 169.148 60.656" enable-background="new 0 0 169.148 60.656"
	 xml:space="preserve">
<g>
	<path fill="#3874BA" d="M4.299,6.007C20.625-0.377,39.131-0.151,55.55,5.792c0.093,5.099,0.072,10.219,0.031,15.329
		c-13.159-3.341-27.059-5.357-40.467-2.201c0.021-1.696,0.052-3.393,0.094-5.079c11.679-2.745,23.832-1.645,35.428,0.987
		c0.01-1.831,0.021-3.651,0.03-5.47C37.281,5.071,22.609,5.051,9.223,9.338c0.01,5.604-0.031,11.207,0.062,16.821
		c15.114-3.609,31.08-3.435,45.987,1.049c-2.086,14.517-13.026,25.724-25.147,32.95c-9.101-5.252-17.479-12.348-22.434-21.775
		c10.548-4.133,22.167-4.461,33.26-2.858c-0.741,1.543-1.502,3.075-2.262,4.606c-7.763-0.473-15.637-0.535-23.246,1.285
		c3.649,4.873,8.226,9.068,13.438,12.205c1.162,0.902,2.447-0.156,3.444-0.762c7.886-5.297,14.208-12.965,17.292-22
		c-14.568-3.857-30.072-2.737-44.445,1.428C3.743,23.598,4.525,14.767,4.299,6.007z"/>
</g>
<path fill="#E84B3D" d="M61.215,59.266c0.002,0.002,0.007,0.003,0.01,0.005C61.223,59.269,61.217,59.268,61.215,59.266z"/>
<path fill="#E84B3D" d="M60.291,59.379c0.002,0.002,0.004,0.007,0.005,0.008C60.294,59.386,60.293,59.381,60.291,59.379z"/>
<path fill="#E84B3D" d="M57.675,59.805c0.001,0.003,0.002,0.008,0.004,0.01C57.677,59.813,57.676,59.808,57.675,59.805z"/>
<path fill="#E84B3D" d="M62.063,60.033c0,0.003,0.003,0.008,0.004,0.009C62.065,60.041,62.063,60.035,62.063,60.033z"/>
<path fill="#E84B3D" d="M59.829,60.157c0.002-0.002,0.006-0.005,0.009-0.005C59.836,60.154,59.832,60.155,59.829,60.157z"/>
<path fill="#E84B3D" d="M57.059,60.54c0.003-0.001,0.008-0.003,0.011-0.005C57.067,60.537,57.062,60.539,57.059,60.54z"/>
<path fill="#E84B3D" d="M59.677,60.539c0.003,0,0.006-0.004,0.009-0.005C59.684,60.535,59.68,60.539,59.677,60.539z"/>
<path fill="#E84B3D" d="M61.558,60.575c0.003,0.003,0.007,0.006,0.009,0.006C61.565,60.581,61.561,60.578,61.558,60.575z"/>
<path fill="#E84B3D" d="M61.671,60.65c0.002,0.003,0.008,0.005,0.011,0.006C61.679,60.655,61.674,60.653,61.671,60.65z"/>
<path fill="#E84B3D" d="M58.524,61.071c0.001,0.003,0.004,0.01,0.004,0.011C58.528,61.081,58.526,61.074,58.524,61.071z"/>
<path fill="#E84B3D" d="M56.328,61.119c0.001-0.002,0.004-0.006,0.006-0.009C56.333,61.113,56.33,61.117,56.328,61.119z"/>
<path fill="#E84B3D" d="M61.639,61.376c0.001,0.004,0.004,0.008,0.005,0.011C61.643,61.386,61.641,61.38,61.639,61.376z"/>
<path fill="#E84B3D" d="M56.135,61.456l0.033-0.002c-0.01,0.018-0.03,0.051-0.039,0.067C56.13,61.505,56.133,61.472,56.135,61.456z"
	/>
<path fill="#E84B3D" d="M63.251,61.454c0.002,0.005,0.008,0.013,0.011,0.018C63.259,61.467,63.253,61.459,63.251,61.454z"/>
<path fill="#E84B3D" d="M59.406,62.421c0.002,0.003,0.005,0.008,0.006,0.009C59.41,62.429,59.408,62.424,59.406,62.421z"/>
<path fill="#E84B3D" d="M61.68,62.429c0.002-0.002,0.003-0.008,0.004-0.011C61.683,62.421,61.682,62.427,61.68,62.429z"/>
<path fill="#E84B3D" d="M56.212,62.726c0.002,0.003,0.005,0.008,0.007,0.009C56.217,62.733,56.215,62.729,56.212,62.726z"/>
<path fill="#E84B3D" d="M55.447,63.043c0-0.002,0.003-0.008,0.003-0.011C55.45,63.033,55.447,63.04,55.447,63.043z"/>
<path fill="#E84B3D" d="M59.406,63.035c0.002,0.001,0.007,0.005,0.011,0.005C59.413,63.04,59.408,63.036,59.406,63.035z"/>
<path fill="#E84B3D" d="M56.75,63.154c0.002,0.002,0.007,0.002,0.011,0.003C56.757,63.156,56.751,63.156,56.75,63.154z"/>
<path fill="#E84B3D" d="M60.024,63.456c0,0.002,0.004,0.005,0.005,0.008C60.028,63.461,60.025,63.458,60.024,63.456z"/>
<path fill="#E84B3D" d="M61.791,63.461c0.001,0,0.008-0.003,0.011-0.005C61.799,63.458,61.792,63.461,61.791,63.461z"/>
<path fill="#E84B3D" d="M57.634,63.766l0.033-0.002c-0.01,0.018-0.03,0.05-0.04,0.067C57.63,63.814,57.633,63.781,57.634,63.766z"/>
<path fill="#E84B3D" d="M60.216,63.804c0.001,0.002,0.002,0.006,0.004,0.01C60.219,63.81,60.217,63.806,60.216,63.804z"/>
<path fill="#E84B3D" d="M60.562,64.622c0-0.005,0.003-0.008,0.004-0.013C60.565,64.614,60.562,64.618,60.562,64.622z"/>
<path fill="#E84B3D" d="M57.215,64.841c0.001,0.001,0.003,0.008,0.004,0.009C57.219,64.849,57.217,64.842,57.215,64.841z"/>
<path fill="#E84B3D" d="M57.254,64.955c0.001,0.004,0.004,0.01,0.004,0.011C57.258,64.965,57.256,64.959,57.254,64.955z"/>
<path fill="#E84B3D" d="M62.215,65.199c0.001-0.002,0.004-0.006,0.006-0.01C62.22,65.191,62.217,65.197,62.215,65.199z"/>
<path fill="#E84B3D" d="M59.713,65.275c0.003-0.003,0.007-0.004,0.01-0.006C59.72,65.271,59.716,65.272,59.713,65.275z"/>
<path fill="#E84B3D" d="M58.328,65.383c0.004,0.002,0.008,0.005,0.011,0.005C58.336,65.388,58.331,65.385,58.328,65.383z"/>
<path fill="#E84B3D" d="M59.406,65.424c0.002,0,0.008-0.001,0.011-0.003C59.413,65.423,59.408,65.424,59.406,65.424z"/>
<path fill="#E84B3D" d="M61.483,65.85c0.003-0.003,0.008-0.004,0.01-0.004C61.491,65.846,61.486,65.847,61.483,65.85z"/>
<path fill="#E84B3D" d="M61.058,66.504c0.003-0.002,0.009-0.006,0.012-0.008C61.067,66.498,61.061,66.502,61.058,66.504z"/>
<path fill="#E84B3D" d="M58.331,67.051c0.016,0.009,0.048,0.029,0.065,0.04c-0.016-0.002-0.048-0.007-0.065-0.008V67.051z"/>
<path fill="#AE4A33" d="M58.554,56.225c0.004,0.004,0.012,0.012,0.014,0.017C58.566,56.236,58.558,56.228,58.554,56.225z"/>
<path fill="#AE4A33" d="M58.706,56.452c0.004,0.007,0.011,0.019,0.014,0.026C58.716,56.473,58.709,56.46,58.706,56.452z"/>
<path fill="#AE4A33" d="M58.826,56.721c0.002,0.004,0.007,0.015,0.009,0.021C58.833,56.735,58.828,56.725,58.826,56.721z"/>
<path fill="#AE4A33" d="M55.368,59.666c0.004-0.005,0.008-0.014,0.012-0.019C55.376,59.652,55.371,59.661,55.368,59.666z"/>
<path fill="#AE4A33" d="M54.793,64.143c0.001,0.006,0.005,0.015,0.007,0.021C54.799,64.157,54.795,64.148,54.793,64.143z"/>
<path fill="#AE4A33" d="M56.25,66.262c0.004,0.003,0.015,0.008,0.019,0.011C56.265,66.27,56.254,66.265,56.25,66.262z"/>
<path fill="#AE4A33" d="M57.019,66.685c0.005,0.003,0.015,0.01,0.019,0.013C57.033,66.694,57.023,66.688,57.019,66.685z"/>
<path fill="#AE4A33" d="M57.211,66.8c0.005,0.003,0.014,0.009,0.019,0.012C57.226,66.809,57.215,66.803,57.211,66.8z"/>
<path fill="#AE4A33" d="M57.94,67.299c0.005,0.003,0.016,0.008,0.021,0.011C57.956,67.307,57.946,67.302,57.94,67.299z"/>
<text transform="matrix(1 0 0 1 56.2148 33.832)" fill="#3874BA" font-family="'RefrigeratorLight'" font-size="29.941">SecBerry</text>
</svg>
