<?xml version="1.0" encoding="utf-8"?>
<!-- Generator: Adobe Illustrator 16.0.0, SVG Export Plug-In . SVG Version: 6.00 Build 0)  -->
<!DOCTYPE svg PUBLIC "-//W3C//DTD SVG 1.1//EN" "http://www.w3.org/Graphics/SVG/1.1/DTD/svg11.dtd">
<svg version="1.1" id="Capa_1" xmlns="http://www.w3.org/2000/svg" xmlns:xlink="http://www.w3.org/1999/xlink" x="0px" y="0px"
	 width="143.574px" height="60.656px" viewBox="0 0 143.574 60.656" enable-background="new 0 0 143.574 60.656"
	 xml:space="preserve">
<g>
	<path fill="#3874BA" d="M2.528,7.721c13.634-5.331,29.089-5.142,42.8-0.179c0.078,4.258,0.061,8.535,0.026,12.801
		c-10.989-2.79-22.596-4.473-33.794-1.838c0.018-1.415,0.043-2.833,0.079-4.241c9.753-2.291,19.901-1.373,29.586,0.825
		c0.008-1.528,0.018-3.048,0.025-4.567C30.072,6.939,17.819,6.923,6.641,10.503c0.008,4.68-0.026,9.36,0.051,14.048
		c12.622-3.015,25.956-2.869,38.405,0.875c-1.742,12.125-10.879,21.482-21.001,27.516C16.496,48.557,9.5,42.633,5.361,34.759
		c8.81-3.452,18.512-3.726,27.776-2.386c-0.619,1.288-1.254,2.568-1.888,3.846c-6.484-0.395-13.06-0.446-19.414,1.074
		c3.047,4.07,6.869,7.573,11.222,10.191c0.971,0.753,2.043-0.13,2.875-0.635c6.586-4.425,11.866-10.827,14.441-18.374
		c-12.165-3.222-25.113-2.285-37.116,1.192C2.065,22.412,2.718,15.038,2.528,7.721z"/>
</g>
<path fill="#E84B3D" d="M50.059,52.199c0.002,0.001,0.006,0.001,0.009,0.005C50.066,52.2,50.061,52.2,50.059,52.199z"/>
<path fill="#E84B3D" d="M49.288,52.292c0.002,0.002,0.003,0.007,0.004,0.01C49.29,52.299,49.29,52.294,49.288,52.292z"/>
<path fill="#E84B3D" d="M47.103,52.648c0.001,0.003,0.001,0.008,0.003,0.009C47.105,52.656,47.104,52.651,47.103,52.648z"/>
<path fill="#E84B3D" d="M50.768,52.838c0,0.005,0.002,0.009,0.004,0.009C50.77,52.846,50.768,52.841,50.768,52.838z"/>
<path fill="#E84B3D" d="M48.902,52.943c0.001-0.002,0.005-0.003,0.008-0.003C48.908,52.941,48.905,52.941,48.902,52.943z"/>
<path fill="#E84B3D" d="M46.59,53.261c0.001,0,0.006-0.001,0.009-0.003C46.595,53.26,46.591,53.261,46.59,53.261z"/>
<path fill="#E84B3D" d="M48.776,53.261c0.002,0,0.005-0.003,0.007-0.004C48.781,53.259,48.778,53.261,48.776,53.261z"/>
<path fill="#E84B3D" d="M50.346,53.292c0.002,0.002,0.006,0.006,0.007,0.006C50.352,53.298,50.349,53.294,50.346,53.292z"/>
<path fill="#E84B3D" d="M50.44,53.355c0.001,0.001,0.007,0.004,0.01,0.004C50.447,53.359,50.443,53.356,50.44,53.355z"/>
<path fill="#E84B3D" d="M47.812,53.708c0.001,0.001,0.004,0.006,0.004,0.007C47.816,53.714,47.814,53.709,47.812,53.708z"/>
<path fill="#E84B3D" d="M45.978,53.747c0.001-0.002,0.003-0.005,0.005-0.008C45.982,53.742,45.98,53.745,45.978,53.747z"/>
<path fill="#E84B3D" d="M50.414,53.962c0.001,0.002,0.003,0.005,0.004,0.01C50.417,53.971,50.416,53.964,50.414,53.962z"/>
<path fill="#E84B3D" d="M45.817,54.027l0.027-0.001c-0.008,0.016-0.024,0.042-0.032,0.056
	C45.813,54.068,45.815,54.042,45.817,54.027z"/>
<path fill="#E84B3D" d="M51.76,54.026c0.001,0.004,0.006,0.01,0.009,0.016C51.766,54.036,51.761,54.03,51.76,54.026z"/>
<path fill="#E84B3D" d="M48.55,54.834c0.001,0.001,0.004,0.006,0.004,0.007C48.552,54.84,48.551,54.835,48.55,54.834z"/>
<path fill="#E84B3D" d="M50.448,54.84c0.001-0.001,0.002-0.006,0.003-0.008C50.45,54.834,50.449,54.839,50.448,54.84z"/>
<path fill="#E84B3D" d="M45.882,55.089c0.002,0.004,0.004,0.007,0.005,0.008C45.885,55.095,45.884,55.093,45.882,55.089z"/>
<path fill="#E84B3D" d="M45.243,55.352c0,0,0.002-0.007,0.002-0.009C45.245,55.345,45.243,55.35,45.243,55.352z"/>
<path fill="#E84B3D" d="M48.55,55.345c0.001,0.002,0.005,0.005,0.008,0.005C48.554,55.35,48.551,55.347,48.55,55.345z"/>
<path fill="#E84B3D" d="M46.331,55.446c0.001,0.002,0.005,0.002,0.008,0.002C46.336,55.448,46.332,55.448,46.331,55.446z"/>
<path fill="#E84B3D" d="M49.065,55.698c0,0.001,0.003,0.004,0.004,0.005C49.068,55.702,49.066,55.699,49.065,55.698z"/>
<path fill="#E84B3D" d="M50.54,55.702c0.001,0,0.007-0.003,0.009-0.004C50.547,55.699,50.541,55.702,50.54,55.702z"/>
<path fill="#E84B3D" d="M47.069,55.957l0.027-0.001c-0.008,0.015-0.024,0.042-0.034,0.055
	C47.065,55.998,47.069,55.969,47.069,55.957z"/>
<path fill="#E84B3D" d="M49.225,55.99c0,0.002,0.001,0.005,0.003,0.008C49.228,55.995,49.226,55.992,49.225,55.99z"/>
<path fill="#E84B3D" d="M49.515,56.672c0-0.004,0.001-0.005,0.003-0.012C49.516,56.667,49.515,56.669,49.515,56.672z"/>
<path fill="#E84B3D" d="M46.719,56.853c0,0.002,0.002,0.007,0.003,0.01C46.722,56.86,46.72,56.855,46.719,56.853z"/>
<path fill="#E84B3D" d="M46.751,56.949c0.001,0.004,0.004,0.008,0.004,0.008S46.753,56.953,46.751,56.949z"/>
<path fill="#E84B3D" d="M50.895,57.154c0-0.001,0.003-0.006,0.005-0.008C50.899,57.147,50.896,57.153,50.895,57.154z"/>
<path fill="#E84B3D" d="M48.805,57.218c0.002-0.002,0.007-0.003,0.008-0.005C48.812,57.215,48.807,57.216,48.805,57.218z"/>
<path fill="#E84B3D" d="M47.648,57.305c0.004,0.003,0.007,0.007,0.009,0.007C47.656,57.312,47.652,57.308,47.648,57.305z"/>
<path fill="#E84B3D" d="M48.55,57.342c0.001,0,0.005-0.001,0.008-0.003C48.554,57.341,48.551,57.342,48.55,57.342z"/>
<path fill="#E84B3D" d="M50.284,57.698c0.001-0.003,0.006-0.003,0.007-0.003C50.29,57.695,50.285,57.695,50.284,57.698z"/>
<path fill="#E84B3D" d="M49.929,58.244c0.001-0.002,0.007-0.006,0.01-0.007C49.936,58.238,49.93,58.242,49.929,58.244z"/>
<path fill="#E84B3D" d="M47.652,58.7c0.013,0.009,0.04,0.024,0.054,0.034c-0.013-0.001-0.04-0.008-0.054-0.008V58.7z"/>
<path fill="#AE4A33" d="M47.838,49.661c0.003,0.003,0.009,0.009,0.01,0.013C47.847,49.669,47.841,49.663,47.838,49.661z"/>
<path fill="#AE4A33" d="M47.964,49.848c0.004,0.006,0.009,0.017,0.012,0.022C47.972,49.867,47.967,49.855,47.964,49.848z"/>
<path fill="#AE4A33" d="M48.064,50.074c0.001,0.003,0.006,0.013,0.007,0.018C48.07,50.086,48.066,50.077,48.064,50.074z"/>
<path fill="#AE4A33" d="M45.177,52.534c0.003-0.005,0.006-0.013,0.01-0.018C45.182,52.521,45.179,52.529,45.177,52.534z"/>
<path fill="#AE4A33" d="M44.696,56.271c0,0.005,0.004,0.013,0.006,0.018C44.701,56.283,44.698,56.276,44.696,56.271z"/>
<path fill="#AE4A33" d="M45.913,58.041c0.002,0.004,0.013,0.007,0.016,0.01C45.926,58.048,45.916,58.045,45.913,58.041z"/>
<path fill="#AE4A33" d="M46.556,58.394c0.004,0.003,0.012,0.009,0.016,0.011C46.567,58.402,46.559,58.397,46.556,58.394z"/>
<path fill="#AE4A33" d="M46.716,58.491c0.004,0.003,0.012,0.008,0.017,0.01C46.728,58.499,46.719,58.494,46.716,58.491z"/>
<path fill="#AE4A33" d="M47.325,58.907c0.004,0.003,0.013,0.008,0.017,0.01C47.338,58.915,47.329,58.91,47.325,58.907z"/>
<text transform="matrix(1 0 0 1 45.8826 32.0828)" fill="#3874BA" font-family="'RefrigeratorLight'" font-size="19.3843">SecBerry</text>
</svg>
