<?xml version="1.0" encoding="utf-8"?>
<!-- Generator: Adobe Illustrator 16.0.0, SVG Export Plug-In . SVG Version: 6.00 Build 0)  -->
<!DOCTYPE svg PUBLIC "-//W3C//DTD SVG 1.1//EN" "http://www.w3.org/Graphics/SVG/1.1/DTD/svg11.dtd">
<svg version="1.1" id="Capa_1" xmlns="http://www.w3.org/2000/svg" xmlns:xlink="http://www.w3.org/1999/xlink" x="0px" y="0px"
	 width="200px" height="200px" viewBox="0 0 200 200" enable-background="new 0 0 200 200" xml:space="preserve">
<g>
	<g>
		<circle fill="#F49614" cx="99.422" cy="100" r="95.661"/>
	</g>
	<path fill="#C47114" d="M194.536,89.801L119.639,42.35l0.481,86.163h-9.343v25.784c0,0-50.447-8.968-49.326-2.989
		c1.121,5.98,60.726,41.606,60.726,41.606c41.842-10.216,72.904-47.929,72.904-92.914C195.083,96.554,194.893,93.154,194.536,89.801
		z"/>
	<g>
		<path fill="#934115" d="M144.254,147.618c0,5.132-4.159,9.296-9.292,9.296H69.033c-5.133,0-9.295-4.162-9.295-9.296V88.66
			c0-5.133,4.162-9.295,9.295-9.295h65.931c5.131,0,9.292,4.161,9.292,9.295v58.958H144.254z"/>
		<path fill="#FFFEF4" d="M59.862,149.072c0.699,4.438,4.531,7.842,9.17,7.842h65.929c4.637,0,8.469-3.403,9.169-7.842H59.862z"/>
		<g>
			<g>
				<path fill="#FFFEF4" d="M84.425,79.365V59.034c0.013-6.997,5.78-12.766,12.777-12.78h8.423
					c6.996,0.015,12.766,5.784,12.781,12.78v20.331h9.292V59.034c-0.016-12.173-9.901-22.057-22.073-22.072h-8.423
					c-12.171,0.015-22.055,9.899-22.073,22.072v20.331H84.425z"/>
			</g>
		</g>
		<g>
			<g>
				<g>
					<path fill="#E7E6CC" d="M84.425,79.365V59.034c0.013-6.997,5.78-12.766,12.777-12.78h8.423
						c6.996,0.015,12.766,5.784,12.781,12.78v20.331h3.485V59.015c-0.027-8.945-7.32-16.229-16.262-16.245h-8.427
						c-7.938,0.014-14.558,5.754-15.975,13.288v23.308H84.425z"/>
				</g>
			</g>
		</g>
		<path fill="#63180C" d="M134.427,79.365H99.754v77.549h34.672c5.429,0,9.829-4.164,9.829-9.297V88.66
			C144.254,83.527,139.855,79.365,134.427,79.365z"/>
		<path fill="#E7E6CC" d="M99.195,149.072v7.842h35.113c4.971,0,9.072-3.403,9.823-7.842H99.195z"/>
	</g>
</g>
</svg>
